<mxfile host="Electron" modified="2023-12-20T08:14:02.128Z" agent="Mozilla/5.0 (Windows NT 10.0; Win64; x64) AppleWebKit/537.36 (KHTML, like Gecko) draw.io/21.6.1 Chrome/112.0.5615.204 Electron/24.6.1 Safari/537.36" etag="OdT0VeMP9uS35e12Fw9h" version="21.6.1" type="device">
  <diagram name="第 1 页" id="a9Wf5TV9nVjGO6Tv2hhZ">
    <mxGraphModel dx="398" dy="234" grid="0" gridSize="10" guides="1" tooltips="1" connect="1" arrows="1" fold="1" page="1" pageScale="1" pageWidth="1000" pageHeight="1000" background="none" math="0" shadow="0">
      <root>
        <mxCell id="0" />
        <mxCell id="1" parent="0" />
        <mxCell id="zJTkyF94yKX1d19e7NJj-1" value="" style="shape=image;aspect=fixed;image=data:image/png,iVBORw0KGgoAAAANSUhEUgAAAQQAAADcCAYAAACWEt/8AAAAAXNSR0IArs4c6QAAAARnQU1BAACxjwv8YQUAAAAJcEhZcwAADsMAAA7DAcdvqGQAAP+lSURBVHhe3P0J8PbZVd8H3v++v2vv3Wq1FpCEEEiYLQk4yWRmCs/E2B47U5VlsthksPFQReIQExwwLtsEJ3aBY7vGwQY7JizGUBUvFU8yMcQ2SWGQkAAhtdZutaTe3v397/t8P9/vOc/z/N/uZkmmKpTu85znbueee+655567/JZn7k9/7/efz80vjOPjk7EwP8bZ+RhzY4yTk5Mxzs/HwsKSYmfj7OxsHCttfn5uzM2BIZzjU6cnej5OTk9V7tR5OGgcHR+P8zNF9HN6qvjRkcodjt3d3XH77p1x9+69cXx4qHrmxpny9/f2qm59586rLtVprpRISEGxlrgi4Wbe6Q7jF5/zlXg2FsbX/nNfP77xX/2/jKPDo3H7zq3x0iuvju29/bGyuj6uXr06VtfWxle/78vH5Usbatec0q44vL66MhaXFyQfU/8tOapvd34+W94NsEtbpu7cCef6CL8ySQPO1EGnkvM5cp+nzaEZtMircUkkGQkllBhlT5W3uLBAIdObFy1k1SXakd6u6+o+QReSwLfTkj/hSx/yKjrjktBYDsij9v9/u1PJ7OTodOwdHI5793fHnTt3xee5w7/wwV8eB/v7SrszDg/2xtb62njy8cfGlctXx/LK8vh7/+C/G//zz/3sWJJ+wtxZyfacgVL8Imo0zJ4jaW/SE2/5U3YOPdB3cXFxrK2vj7mFRen++VhaWRlXrlwe165cHRsbG2NxaWUsLy9rbCwKX30t2S4vLblcu8XFhepH+j39tbiUfm19WRJ++nFefX0s1DnTgCO68FTjc2lJ8bPTMfdn/7O/qGISmAZhlMm0MihFbFGIZ4xopR+fHBsH4hgCBv+58uZlUChGmTOniREBBuBEhuZUFYU5jIKMiPBOxNj+/sHY3t4eO9v3x+7ejjpmbxwfieFmAoOA5Ay4SpdAMRbEELU4cgiFnpOA5uckJDV4UR26urY+1jc3xyV18Lvf/e7xr/yLv1PCXpeQJDgJcl6wrk7Z3FizAqytLju9lVrf/9WOzqDNuG4/TYNky8gflAufuILIlLI4Bh354KYfQIhi4igzGw+/oTlJQ0qS12xZymHgSKJ/rHR2LU9lXJBB5GtnHz2Y5gXGWJBc51Fel1MaX4eVxmcSr/zmkeKTdKdcCPs33v8mZxFU+5nA9g+OPEHs7O6PPU1GZ0xqguOTM01ae+Mf/eN/Mn7lV3557O5sj72d0lFNYKfS87Nz6bV92iCaNgriWbEM+rSt+Q8ODFRcDVpaXhqr6xtjY21jbG5dGltbW2NtbVU6uDTmpcML6KjGG7JY0DhjPNJX1nXBPAZBeFA8Y0BLzhiJHqO0c2lRk7oQ6BfGowIuUywYxzSg+af/zH9xPr+wPBnsERbENXjV2GUxjMKM8/lxrEFMxQtUJiQGN4MepmnkCQZAgx1lhA75MIDgTkUvBqF81cdq4VBwdHgg47BnobNCQGgLmENCkbW+qpkvTEsgi7KUHsAa8Jsa8FuXLsmqXx7Xr131bH/92vVxRTP8tWuXx2WlX7l8yYZgU4N/SRYUgXmwIRU52oWD73az4Vnn1PoBJTIrXqUUp7L2KAfG7VgrJM/oDHK3PbgelA6n0xoiI8lM/gJGTZ3ZODj4JI8oBoLZnnCMiIwzSqL+MA5AGeRWCoK60hekoWCn9Jc+i4vLHgy0iRVjCwRj31LyoG4d0adXi9QPXb7UbR6cBz6ADnYcvBgXeEpbo8hWfJVrg+I+Il1L14v5ocWqUpQhZ/yAOe3v6zrzUK7DaWHKtCE/1gp4R/q4s7Or1cT2uHfv3rh9+964c/u2Vph3vKq4dZtV7t1MbDIY6PGRViIeB2qb+83y8c+Ev1P1l7j1CmFz6/JYXV2VPq+OFa0IvCpQv9PeBbXdvmXRBqEmLMnCE59XEBlvGAsbEeXTz7RriVX+nPRJfXkknVwogwEv0IFHjMbZ6dGY++7v/u7zpdVrWRGAQWeLytkZg1sGYWl5okDEw6QqY7DTmVJymKCMVwQ2CMgAoWIQjm1xETBAOcowUI6PZQwwCISPDr10w0pDJw1W41T/mpbyWM6rVy6N69eva5A/NK4/dG08dF0g/6qWWZtbm5rlN8aWBv2qlvgsgRDm67keXG/kkk0L5Gqm9QCTD8B/G7hJu9RWh9U+zx4KY2RjEJAJAxRyokG4aFGPvw6jKsKhbiEzuJaXV2wciZOZcpSfKi4AEXzkxmBsw8OHvmPguB9dnjQpgtJPZbChh2LRv14dITfhUD+Vurh/UBGUMTLxwBdvcaGJ0jHQ0ZMoXQax+xMi1Kuy0CcPGbFVPFc6rrCMDy4GifbYMDVdp0sPUWyUn7DxpvV6ANmQpG6nQxNeuqYE3tCZh9dxTGpssQ808Le1isAQYDTuaPt78+btcePmrXH71h0Zj5vj1i2F79wrY7EveR+p/2MoGDesTlc9SckQMMnJGBBeUhj+e4UA0DdMhDHS+kj09Bt0YBU9owwGgnJMTOgEKwZEjkyOVH9WECnjH2VC5/jg9pj7T77j28/Xtp6IQUBUlJR/aoNwMlbaIKhyLKaFbYPAlgGDIKskYhSDoeOjzG42DsQxCDVAGCjQPdVyjLI2CAKE6zpUM7QuaTZ/+OFHxmOPPDKe0H7uscceHY888tC4dvWyDMOGDQSD3vspOl08eXkG6whKYQf981pHR2dJzuCgyREcfhss86uBwgzqNMUn4HbQRnBZJZEvEL595ZsuPKkubwmUQCf612KeDmbLSgMDObVcDy23I9eDTFlJIa/ITYZGPviBY9FTnTYQMQIxFtRPGzFG8ECTFadepN08KB+mZHbcv3MYAvglzAfxgo8TXg8Uz9Q12AljgL1fFUR5F0q5M+vhr2jFyWzETLdcPspIGMWmXGZFDE8GguuDXf1gPJhESMtMJzAe5RR2ec57lFYzYYPTVRcG1mk14My/4vhURWVePUoGr+eCg4gIIGM8+ll9p/5jFj7QtgIDsL29q1XE3XHjxq3x8suvjBdfenm89MrLMhw3x/17961fXR+TGBMwcvJA1/ZrgUmx2sFAxlBkwOdcYGk5YXiCFu2PkWD1lf5lRUwXI5NDGwTli254TxtI299+ccz90W/99vNHH3vcimWrJAQUhIMYFBVEU3OF8XO4xszAwMoqgW0BtBmsV69cHZcvsQxaU1opnL7nCsMDcrZSCjjcQuzUzZL+ipb+PszTfmpVe6nVFSmKG0DRMB837UC3acb17Ah9BkPipNfgJc8DT4OJAexBnXawmmFQMuMz+GwQALUPItDMOGf4hCMa52WvQtBHEQ6lFPBFvZyV7GopyXZoV2Hie6yG9ne1KpLiHBx4e2EjLKNroE7xZF5EEzpeJeD7xwFz4PbDm6BFoSwl8UsvGcFhLwvaYJYDjQGlNW6y3beqSy5lCTTlOMu98pJFQuOYq0TRFQU8q7O6UFw6a8VlEKBfGAWMz7LS1rR0XltfG+vqew7WAJbVzKSEV5ZWRBklXxbOmgc0bTH/Nmnhy0ZQVTNoqH9BdVuPqM/6hOHocyQMgwaYwotK9wyqtBg5jItomxZtijGJEen2xrlLDMgOTnDgoDcZsAeHnJ3tj/vaYnC4eff+fZ9VYOTBXDBd0XcdKT6n7TpdguE7V/jgYF9bGG1d7t4xLfef2meee6BLRoxhghiWCGbeeoVBgXfa5QlHddPml196acx915/8c+ccbDAY1jc3VEplESaDSERhisYzEKiZOAMMQS6vrGiZrkGspfxD11i+PzSuag9/SXRWtB/CsrlRvwU3maU9mN2KZMg1LxEA6TFe4DKosc6eYRnMDHAPKgY8B0gJsz2JAUvasdKUoc4CDwMVYxDh07GshrLsBw4ZwAzmvd2xvbMtK3/PncMecndby8fdHXXwTmaIQ7ZExz60ot7eSmAMra04eQyCS5cva+ZcdttoYzvzId8zPMlGwHMElMhY6WSRkuIYiMQZKgxR5zlcBkGI8w4oqP6k3R7IikNrsupSQpeOyUEv5IsHp5KEH8Ty9WteYxzA82zOAFV66xN9TF8eHDJI7nmL6T6mBL7yiTPb+wAOnVtnoliRgWCbuDk2tta9pWQSQo5bm1syIFlJrqxpy1Uzaq6YQY8zsOypvVrAIIi+ELTflkFgwFCn0rMKpSwDrgyEVzMxHjYqHKRW29JfaZdI2Nd3xlV7hAuN2b7+zThooUeHhwfjPtuU23e82rh5+/a4e/e+9G9P+nboiY1B77qrvuZFsVrZqS/k9kSHtjIpzX3/X/zBcw5MYBQrzGD3ckODCV5jrdIxCGZtbWlckvAffeTh8cQTj2s/f3VsygC01aFCcHHuVHyYmBGOZZCs9uKoT5nJ5hcoHBX04Peg1+CUQvVyGQEhAJSJpTSKzUA/xzh4j6yyinvlg3FQPiubLPHwZYSEx1IUxeQsA6u9zUBH6HfujLv37iq+I+DwaHvsyUofHtVps8rDdbjNLw65wXwUfCYdOUQg5m1dM9/6xpbpwBN5yE6Sd1lcjFNRd1nykEzRnQQT6L4QNY/ruKKlVGiEYyD9wsqP/ka25ld1JrexAkTgzcZNYbdPBKAXFZummXZSnEZFjvPDSkU+ddI/e7vb7s+0ufBBzFcQQ8K2YepCj1/PehrYK8srY12r000Zhq1LwOa4cvmKD5u3pKtbMhysRrnMvLqylkM8r1K0YpEec6jKAM+ARyYZ7PDj1YwG8hJGROlskVjdxlCwupABkc/yPKuOGAkVVovaIavwzcTkQLkJTkRFMdfb4WQlQDpp6A16zDnGbRmIF198abzy6g2vQvb3OcOrK4jCc5+JFislJk9kxrkdVC9LVnM/8F/GIICIQYC5OU5vNWhoFEuzjc318dD16+OxRx8Zjzx63af5WGhbHT7UUAziWjnM92xLyhlvZobEWTx8he9OFzDgmdU92D34M0t7Zj/qOPnyPTBjLEwDUB7W0jjaj/uqhuL3ucy5uysFzGBnRkd49xns25rh92QUtIwH1zxIFjhfSvJQEJ8SJM3olUqYl6cfy4WwBlTz4hneudVklbPclM7KrA0CZZzXePqNj4sSTX6E5zzxlX6odDkUmXjznmQUUwEyun5T8PC3i/EnNengTPqykJJCjfjJg2z3vx1hopTvdKrDme/waw40mM5kCHbVL6ykPCmoiPMqcCFun4GAkVTASfjhl+Q5yRJ8YUk8CTGAGawr0l1O9Te0NeEw+pIGApMcKw6MxsbmpsfCJW1bweVgl4HOoGdV7O2OGIAXD3oGP8ZAYXC8z1/qwz0MRtJzPhIeKNNGJk3yz4yM0pYLjjjI8iz9FJzgmZY+yIUV6l2tXl995dZ4+ZVXfSXkvia0IyYxBCRZnGtypFoMArxMDAJLDWYgll0Sp4Sw7Fn/YW0DnnjisfHwww9bYBzksWzCeTZzjzKbxKVxU0XruL7lUAM5laF89vS5HtyDOoMXkGXTrN2HZ/jHGtA9g1gZLKDs2zlwYwBva0/GiS5L+Dt3bnufxqzO8p5LQljRXQkAXB9mqizAWIyREpQC9eCnAfiepT34UMSp6w6hODMkwq2G2hB4C1YySSokQ5PIumarNSmjL1cWGrMgl2Zp57S80GvwUzbGqPNinCFgEsqihi4Xp7jaBk3y4DO0svXChy8UBhwGEHX4bIKqRMphGQ1mFhpsWtRVuESMKjxwGQBZmqYevsy4HCwy8cAe9dBe7kdBYaEf3ODj6BJwk5Y2Ubd7Qhmehe0iQ+oMDXinnWRFNsjMzv0NMuUxohmwDGAMwYaMAuMA47Apg81qg/Ota9eu+1J3X+5e1faY03/KugLxaNmqPgxJDEoMASsKcH12ongMxKzB6BUJvJf+Fde0C5rpU9qV/k1c6P6JkXF5ObbLXA1hwrtx44ZWDy+PG9peMA4OtZUVpscKMmLrry3DfyWDcM9EL19maXV5vP3tz4yn3/QmNf6yBcOBBbV57+t6mGn4ihk6pRkqQTzotDLxbO39vTrewOCXwjMojzEA8hns7LmnM36f1oe2zwk08NnT72rQs3+/pcbR0Js3b2jw37Ml3FVjsZBHh+z9e8DDJ0oErzRCA8lt0HKVuCpqJeSAlD5wq/QDNuC4nDAqFIfs4I+y4KQbUTLFJR+DUoxDTsmrHQZhY/OS8Bhg4lXYZ1xROD78+wdHxz/sg1sLgq9oKAztKCAGQS2QEoUuSq9WKX8yqGYcbfZpNOWlrM07RoADLfCZpU+Ew9Ibxcqgpy3nNsye4bQUhj6GmDIcZtH31mN9bKTVj6wwYyBTD/VrAP1Bpf9u0kljFmUFtyNj3lcQ9DVdPCjaKDpICiH6ySlyFgxVgKlPyvucpWiAaWySyrdeqxAf8GIe1VYjxojRftqEwUHewPJKzjI2ZCyuXMFAXBnXrz/kifO6JtHLSmMbyJnFotpPGRvSVCOaooOBULu5zwcZEV8CWE3UtoP8rDIkV+p+7dBy37Q+uc8xRDTOSdJT6rT8FZNeMxEyTl747GfHJz/5vFcR9+7tiK853yUZg3D7rmf+/8O//HXji7/4i3xpL50VoZQIFbToIngnKV7MuBPl03BmOpaqKJVndyvYdOaPEcg1eucpnlnQJN0J1MTdjIdaut+/f3fc0J7oVS19Xn75pXHzxi2fsN73jUwHGfReGmOVzY35IowaobrEMQrQhVPn4xs7kKIKScgU9rCXb25UFluSsICIfOMLsPLuDMshSsSWi3OM2Rne9XS5CqM8G5uXbawwCNCdO9fAOz/6gQ999KP/gRG/gNx73vs136/B8W0lEg8GJoft7XteBWZ2tKQlB4WFOJEZ6cTTE+kDAQOD7WInQQOdROAxMDVQFPa4Is8DxakUMxCGMmVSC30Zw9W6RFHTNp485fiAUoN2bX1Vq+nL46om1oce1jb7scfHY48/Nq4/dF1bkytjRVsV7kKEricn0wK0xZAxYLthkFHAOPSZhFcXXlnUisL1wRt80gx+my9kVHSTyK9cWmhdlry4JPrxj39i/MzP/pxXEldk2Ob+8//iL51zUsnVgW/5w/+emcJZIAhLPoVfz/VSjBnQM4IGN8sQrqFzYslsPxn0Ng4B6GX2V0dSzisDbmO+P275xo4bvgTCzH/rlga+Zo597esZ9G63O6j2YNQvCI/qQo9l8e6+Dv/GYZkiLbQyqYB9pdslwR3eAxLBxa9wh1SnT+ZJMm1FxAtWHHVxGsqosr6hCL4U7tqUrWgIhPy5jMHWWBd4JSMlgeeFcTyWx8kPvP/DH/6CMwi/46t+5/er37+NlSDKOdky7NzPSTdC4osv5xVWy0xplia+kijvrkAHLWvpllJyA1YmKCUaB78IJyzfy/NOc7oxXHeS9CN94mYtUxI956FO0id1ceHO6mJ0G14obkOxtiaDwI11V8ejPovTVvwhrSgeuqYJ+LK3FRgBVgLQ64PMbC0CbSy8qhCsKMz2njTq8KVK8yjmXsdBr/lnvLT/V/7KD/kwkvOTuT//F/7y+Y1Xb8qaPTz+/T/0b4nxVYvPBU1Gg4S2lWDtIXKUXRFme5Yh+9qncPMMM/q+9oGc+LM07WvqzM42CFpi5oYNDf5btzTrvzw+//kXPfPDFHsblqVhPNYwqxUt7+CllUNgVgji+xcQ78y0rM/0zeESbaBcBqeNhwth9enQLko9ivBV2EvKmq2crrBSnZ+aSBI9DeRzASkoqlUHnzLFr7l1nXjIltJEZBA40NKWgS2VlV/lFsepDMLpD/zir/7yF5xB+Iqv+nobBN/ApQ+DAF3ZtUGY3TIIMO7uuygyIswgJ51spTuuFIy1ltgYBGOoLP3OwGydQZn9DILTSeJHYdVFUL0rp4Di6B2MRBcYbKJrfVAeRoKwa0opYvzEpxwDmzx4xdhnDBAmj/MEzig4sH/k0UfHk08+YUPB3bhbW5dsRNhyeAyofhuGJbYb+EtjTUaEFQe3O6+tKqxtDKsKy4k2iS8FXb95qTAcEyfEPTF/7Yf+G626b4yHH3koh4qvaCkOU9/0h/5NWx9mWJeVo3BbnMiUAaVBrgHA9XUMATfWcFLJ6oAOZe+IxT882Pde3zdRaLC/8uorg7puvPqq7wXnsI9VBMuVHFRhFbUXLqF6IAF8YAQXJmaCNeCchp/lkGP6sV0AFPAeC2Epz/sqDXhb1eo0W3l3uOIanPAi06s8nEslGDMiEE3q09YGg+DVgNK95CUfj9ki4nO7YMa80lPFM8ZgQ7NEDELuBVjUFLQ8d/YDv/ArH/zCWyF85dd/v9r6bayI6FvOI/oqA2cSvdzHbOZQNkCa5YYc5XpyINr9OOf79rXiEF7Q+J3pO9XpVSAbcnTH9Okg+dCjDzEY8l1S9LP/hyfFBc1CJqrWnQbSlIQzYiIOzuCZI/3Ai1cU4oNtO+OPw8trmq0ffuQRryYefeRRr+C5z4IrICurazZ8S4CMAasEDj59Uxd38CruG66kv6nPLMgXbwmmfjHA+PvrP/Sj46YmZ+qa+y//yg+dczslDwV90x/8N21tWvieSWccy9kTWTgO7A40+He1f2e25w48lvzUgkG4cfPV8bnPvTCef+45XxO9efOWVwR7+7luD146MAJEVGFRv6qbUHe0ApNO8eCnA+k4PgpTrssgcBdCCNVZXlngqy729OC7VRaW4haYOsj1VVg+A5OZqwjbNZdRIMUsH7XHd2tmBgDBKwM5L9GcRilcKFAX9ZpvwSYGYfOyjSz3ucPHovYlS/NnP/D+X/7CMwhf9VVf9/3HJ2ffdkI/qv3ebrFlwCBIt9J3YCKj4FhkxJXuQalc9DE9H1m7v7hTDxABaLiMMeQIKI2+4hCWHNPWp3WAity/9L8L5cDVumZe1EfWw+pXf6Or0HCN6LX9qY73ZARTZoP4pAwOP3W3jpPE+cr62opXDA89dN33/jzzlreMp556WluOR2wQwFtaWvEdndzluaGVxZqMQm8nMkFNnfVSTMjTOJZB+OH/xg9pPSnac3/th3/0/FOfes57m2/6g/8Pn54yU8EcliuDKqfGXL7YxQAACrMq4DZKquOU+IXnnx+/9MFfGh/96Md8FsDKwcJU7Z6pzZcE0WGE7xRqi0+al/fiwb4tKPw4S3gIVhEEiqBlJVuB/JSe8t1gG4EyNiasdLdJNI0v0CccQDszQjoITFls6CgdBy45fRDkclYSKYhmN1ZEWZ6yEkm9lEeJwI4W48e44aKMY2IQcobAXZJDKwRWCecyCO//wjMIX/31Mgin33Zywn4/d70yAHe27/m+kQyiDNAepDj/kp5QBk6lMeC8otMS23pA/yqTwQBOl6Hf0YHqzUkfkO58fUixPgiPPqy1QjGgPMorP3pJHCOhkOLogXXGvEMPY0O5DMRcnpUvI2g96Uw580FAadPxMh07yIRJjZUAZw/vetc7xle87yvG0888o+2EJnJh87hAVgsyEDIMGAduF+CMIfKsla9qwhAzuf/1H/4Rn9W97W1vGQu/7/f9378H67C+vjre994vc4UUcmOKV/b0e3v74z7X97XHZ5/PDTwnR4deeT333KfHf/8P/+H4h//wvxsf/cjH/NSXtwIWXBoCs9CME2FFel+PQH3eoIHFy1NYNp4e88BOCiBE33rKwYssIi+SWFpeE6wGfNlG6bKm3HHG7O9DFusFgz/d3waCG2E48HN65dFYwiiSO67a7s5DQfXBGDFYu3PyocuiWCw9IrfOMdmkGS9hB+ySSZuW1ckTBBVCrovzcz//+Zdf/O+D+4XjnnjymW+QUfxaG1C1lcHMYMp7BnKHLBB5RCQRIBF8IpwPJBlk97P6NRMEqz/6TnTJc373CQOUOjH6FFWa46Fhw0Ja4VsXwDN9cNhtiL7ifjCLOtE99vqapb3n16zc9xqYH+iJCgaM1QnnaFxByx23WXHAF/zwYz5Vxilmkqh+1H4mJM7tOGj/zPOfGR/5yIfHLe3/t7Y2vco/0bhj685EzMQeo5V2cCcqdCzP1OZV6Qc/9Cua5A+14rg+Fn7P7/3XZBBu+UGR97333bYa5gB2xCgHhTziyX3T2zICO7u7fm8BDy3dv397/IO///fGT/7k3xnPPvtxE+WBCj8rQG+ZClsPGqa0GvzsuX35UasKC0eDP8aDGZ+TVO2DZOmWVgTyCS9PbjGVtVMHMOA5XGHww29f9lGCoihEhMqWIYNaUQmFps3PVScZJUKqSDq+0u3Kt0IhGoA4uPhWUrYN+IqbjmhIab1Uc74zKpi46StIeMnPwa8pGANJnbREK4QvSIPwpje99RvU31+LXiBDD061m20nA6T7gwHB2O+Td4uLLDqBvrS0GcD0L/0DgFtxJgRoVVn8eNGDxIUnP5NAcF3eODnfIH2y9SSs+luvbBy8otSv+LSBYPKSjmIceBaCSWuRm5OAMhp52lDluETPeGAS1JjgAbesONhaWwKizORpzp3GWMlsn0PBTz+Xlfmd2zfHI48+7LswOd871jjEKPAAIWVQR8vK7aHtuS/ogx/8sFf9HGYufOPv/f3fw+n+mvYp73vve9wYOoqBfahtwc42D/HkeW/uADzSNgDmP/D+Xxg/8iM/Mn7x/b8ki6UGSKAcDsYi4cQwM78bGwOAVfSJfDXTt3VKWMtrvMNgcyyvb/gNR7wogvcgYHk9m3uwM/jVGISixjDYuhNt2QWZOLqxAdJt8V1MPxKsl21VJrjI2RI3rku6DLRcxPlWEsqDQId4MRkrTNvdSfrQgaDQAcGb+qZD3Jipk/Zi8GJURFMV8Mqu5fn5n//sS5//gjMIT2mFoIFvg4AI6EtO/nlRTrapkVDEw48FSSR+OiATTBKNgrLnUDo64J6Ub52U776dDOq4Lt/6MKsT9FnHeyClevCgLRzyMAroo+LRH/KqPtMkX+VnDYX7XIYC3wajjQSyoG21amYlIZ9x44kH/aFeuZyrKSDa3IT3yU9+anz84x/z5P7Iw49IlRjwGBfhIQN93R7xYydCrFJ6hXDt+lW3QSycixkKqT6MgYhwKZHVwPaOVgc81CNjgDW5p1XB3/8Hf3f87b/9k+Nzn3s5exdVyGEhPkTYR7HsP9Ly3zcdIShutFheHytrW2Nt49JY37o81oDNrbG6LmMgq+brqSz7ZZUB8W6hdkexAvATZxZ+zRDy/choQTpLMFOO/sG5rcTV3r6/3WmFa0UpGu5856cuK4Q+lHJJF0ygP4nRYQqLPnXwSQ4OBSOPFAHicqdSRpFCTHkg8S80x8NltLlFQTPxkU3kHjkjQ2JCnoJTSI/EU376sSsv2Bf7Dzfbx8Ck752rctYN1UF6kkyz9al1y7pGWIAOEgeRPOsouorOXijHhavot+9OlM4v85i/xgBjgTHhsaExwlhhzDB2GEOMJcYUY4sxxlibHXuMRcYkY5MxylhlzDJ2M4Z5GpdblvN8Tw4v2QIhz8gaPuWOBQxk3vLDfQVH2hZQOAR293Zd+Uuf/+z4qZ/6qfGPfuZnvYVAADkIS2edq+xxMUzfYQ09+6+rcRuXx8r6lgY+L49cUx6DX0t3QEKbLvkCEV4E6EEEw3QKgndXEweYUROmU3z7rbLTwXxUBp+0TiHPywmGK6xTvgyN6qN+44h2VgEmGGyKlctddOCFX3BSzrnBcX0ECClAhfpxkn9x4SMuOSTA1xeia6MYUSD7qSzySw4ySay9EmxcBY2jrwd85Xs8OxAqkT0hdCWrBesYg1M+5ZB1ioki/eoy9VGGdcgk9aEepbW+tf61LjKWqM+6apYyEbQuO516Z4ExoLHAmPCtyxojjBXGDGOHMcRYYkyhFowxxhpjjgSv6jUWGZOMTcYoY5Uxy9hlDDOWGdOMbd8i4JWH5MHSQTbA/M3N7amxez4AIZnDQA4QeQBoj8K7OxbaSy/KGPydnxy/9IFf0vKfpYvIlKVnv8P+h+UNoltgGSSLt7ohC7e24T2yl0RLi7J2tXwyYD0LPPtP82JltScTcNCJIBGu71BTuHrHwg24D+VjGHr2UZlC9LLNFh3FYXtBl6WQ66SwXdI6DO04YxtwdDtgp4BvkFEmWJ0uqpMCLktdgNMD3VaXRZmsUITZjHxhOreZfjhvudN4hEj7FXVfS/ZGrnykpnDHEnCoEopEgnYT3EpNX3aZadh0xRNp7j/iM7qC7oDrj/LQrehY+px466FJCtDR0FGewuhwdDkrBusccvAKYgo+A+m8OiRn7Pg8bY0xxeS6NRZXtcUUb9lSMAFnLDImaS5jlLH64z/2o+Nzn32eA2oZg20/5esnfX2rgLbwYpc7JBcGE/wuOvuZcTb/wnj0kevea3G4gDHYkUW5L2NAY1956fPjx370R8dHn312YFB8VqAAHcDehvchchgyL8ZhFmtGA+YXOQDkqTbuNpRwAE5qvR0owSB0dwphBm1DBB8cMNROWUEu9yB46JCnTLU/H6wzSoTVpjPzLsIoQ+jDAz4ppSRF38okHHrTv8bhsGhee7WUpwNEwWWgT9yd70GMYSyfoqSZNrjFq5CTpy+84BN3kikrnxRocRj0hWkSIlucey1tJq3SkQSy9YAiQXJtHTCSwtMZHUdYsmKAEkXmyL7o0AdexLpnifNrRPc53Qb99BGO+igKrqgIx6lC9AtVBNYxpaFz/aGQ60W/Kaf+Q2dxTR+dDs1ZXYdX0sO3DYNo5KoG5eTLcLB64FxtcXnV2wlWD4w5DmIZgz6fU3U+1OewUiL55Kc+Nf72T/zEeFljGJ63WSXwQmNN+ox1xvwjj1wbp/NaScy9MOZX1l4dG5eOfLccT5rxllm/3ksFuBeAKwp/62/9zfGJT3xSlWjWOokh8J5GlglGxK0Y3LD14pDEjUG4ahh5ESjCFaighSVQJlIwroWshrfAfVK7UC+UJG4DAnAbp/zqUjrPg0/g25XdQXPjVHQVC67KU4/VAJzqvPBAMEKHL3I5lTVKukl58J6YUynH19lJfdA5CxoQfICGfcEkDRzXZylRQHG1Aj6+IJ3aaEEQri1ZJeQj1+0vWQXoP2c6HYc3FZMooXekVdy/QkLWxE1dmf3qvhjr0G/c0KYOYzhunZQukRLdAm+qc8EFKBHcPAEavW0dtk4zQSqOrnubKt/jxfWGlxgUwvCNnpCv8QQt9EZjjLHmFYPGHnmMRcYkYxOZMFYZs4xdxjBjmTHN2GaMM9YZ875TVjYAWzB/cnowtjaeGhtrV3wJg70FNytwrZNTzb/zU39nfOzjn5IlyWltZsNsETihZAWwJku1tLolZnPbaM4EaKSiNNgrgqi6B78E4u2CGu3FGLIteUQuEW6sbuVhLRdFQ8uoeb+yCoG18AHVY2GCTPGUZ+bgQSfSvKxX0MKWj3ObhIufMEW7buiJrng1LplynrgdFD3aq5rjSDSBopMUx1ndJOaOvuBmosFXXWqH1lxO+0JzWTZLGvSJ2kibGfwTMZAgyLZuJkFAzxkT4ZKizhCa+wnnvp0ZnFm1oVcMSiMqh/5JH037PTqAg1LrSLZx8tUV1iXoUtCk0D4Gb+kgMWV5cildtc56pg9hlxd4Nas0s1Q+WuZ6kY/HCNShJ8q1WjAu6RpjjDXGHGOPQ0jOF3xvg8YmYxTefdlRRoEx/OM/8ePeXnB24LuND45sHBj7W+tvGkfHB2Pu+/78N51f2njneM+X/s6xvrkmy3Gg5QTPR5+Pn/0f/9H46Z/66XGk/UhucqAxWJ28r4DLJ0ur6+JpWYwhcBom5qshOBph34JMB8TlQIa9lQUG6XKWt4ux7DkbR2enn1T9P8c7E+PIdLfWQyYSsOgsLyxcW1iY/0ZoavUkRy/MDGSWcHACn8QrjRBsEW/rnHTxFvZNg9ILLiQQw76Uw96Ny6qc/CqOjFAO5ITigwyJVjo7108dylU9PO24tXXFZTkVjhEy/A9LS0s/DhOk0V6lOsynaRVD9knPdXvV6SWkBoz44LKtb4IRH/BnTCGhQMxky1qO8h4EyNCHgFSJ2kzbNQif7nQfKoxPLpnIJg4CHVIAOeKpsRhFy3ac/euHR0f/Z55spBQP+aDEO9t3NRGhzBQrejQEQVHOfZAobUA3PLCUxwDxqlK66AnJ/AvIFwPg4CgLt86HJwE5Uhk5ZJIWg4ZOwi1puKbB4SH4dfPP3zs6Pb2NXP0+CxVyuydUhu9NWFiY+7rl+YW3o5umCu2Qc4C+9T0J0DSTKeuVjfDCpfySC7/RKYDIqd+hcXywZ13kCgbyQIfRJa5qLCvt9/+B3z/+5f/jv6Iyc2NjfdMvs93b2R+/+uF/Mu7vPjvm/tx//mfP3/bWLx2PPf74WFheVOaeK3nhhefHX/1//9XxysuviMkssdiInZ9pZXDGn7Nw89D6mFtessJZkHSM+GbWRHFopIVDIoyfnv1/jo6Pfv5EFoqGLi/wz0or/5KQ/yVaJSolHMtA1Z2Og5OTD+3sH37Py5/81b+rpF/XPfPu9z2mTvuTy0uLf3hRDT5VB+EsMHw+SjrTD52d1Q75GihBcP18onpdXhkKek/bcuDDAQ4gZY6RlEFQvo2gfN+SC77AA4I86EGZdjrrbKxv8M9S15zOgABnc3N9bAlsXJTgVYp8c1c8mpLpUDKO1KTFOJGXGSbGCcVNWf2KT4wEMxuXx2wwTDL0RcGYKpV0fRgUNgRSMDOMk9+rL/e4Ak2HAJ82iAw36uFtwzt7B45zoM3Mxa3LPAszQ0A+Aw0K0AboG/1KLpyxzENT7YN/JoVzzqwElhtx0cjNY8WPHVQwiqST4a/ykZF86Qd64kNDZ6dcF1/QrHCiskfHJ39V/f2nnv+1D76cnDd2j739Pb9nc23le1YXF9/bWw+TU/2eu4icnf9PB/uH/9PRaSYX5LK8tPy1kvU3qHHGddv1wS7kIBFfqZaT4jKyRzIKp6fcRcwqQ6t2DIKYp8sefezR8Yf/yB8eTz/9jGW4Lh07PTrx6wY+9ekPj7kf/us/cv7Ek0/6CSvZmHGgJQRW92/9139r/NN/+nNmwDcewbQq9PVPUV5a3fTpJ0LP8j8GQey5Ii8JxShpdcPSj0sZ/8ynP/qBj0Cq3Zd99e98r5Ywf1K4v5fXRqBw1CneWRmMnYOjv/nCsx/894L9G7tn3vOVEvj44JqEoWrLpSf7RhaE2A7+sMqulwyh0gxfQVE7QIUjFDMZSfGqAyUXXhuE3KGpwSIG4J+OzzlAOpL6W7lw7kh9MAibW1cd503RoPAoK/ej27jo61utCZQRMy+wJS8NMpf+Jeq2mD6oKmnodOgYWeF45ky0yWfVlZKk53f2CVgKhR48haYHkGImXeWdBx3FPRtXGpfHeC7mqPSKl34gv92JQYCmvDBs+u0IGZTHqhWuPAOyNBc/wysEDQRkj6yQn4nVqkhlfTAtnTVZskQL/pi9Z+uievBtXOySpwXt2OeBtvPxvud/9f0fcuJvwj39zvf9jc3V5X93iboVhxvqZU2kuv5brZT+1K/8wj+5QO+t7/odXyJD95/K6P3rbBvgz/za2GfSIq3vAkYnTyTD44MdljBZJTBhC5P/Z6DOr//6rxv/9r/zb6vc3FhdX9NEPO8nj1/8/OfH3E/8xE+dX7163Q9EcMDAW1g+/OFfHn/1v/rBsb29ZwWnAxEGykpDliCyVIeHvg0Y36KWj9gFNhTaBx9xn8LZn1P+X/70R97/OSG9xr3zK/75Z85PTv+krNi/yx16brTStRQb24dHf/NzH/vl37RBeOt7v+a94uKDy2I0w18OLcXJs2VNzHEiLVicWqmQwkqrse8fdYHyUjgxZC9cluXcgSmjwMM6ODUbolawzE4u6XbFVcX8qp41Ld02Ll11J9vgKs/jXsrsQaQw8rVkiSAf5F0D77VOefoye4ajrhH8OHcXdKABKdLq11QTnOCHgn6dXnjyY/CQtfJF1FhVKNyRTlX+Sb0kGUc/0h2t6Lxl2L7HliErBMgGN+WQXZFNm1QO+bdjNrU+ah/NI9DWPzCpS59MMaKgLzaC8uFuOthtUMiriggatysO0zZ8R0pX+fd9+kP/7DdtEJ56x5f/ja0VGQSv1kRObTtmm3B+/ufnFhf+wrO/9L+87krjrV/ylQ9LN/6Ilv1/amlZxlPt9haFdlm3Sz4YhXPpj2ieHB+M4/09s8wf59AaVlFsHXhu6Zv/n//++PL3foVXtbychbOEO3duavuvzoAxKmH/yvv7fuZnfmbwz7gs7az0VGyLJMFr5lqUMeC0dMHLEYSoDJQD3oSrHhEQ0XJwafGPypJ/9xsZA5wE8bwa+EfE63fSPncs4JH1W3N0GR2NoLSiCpRCmU3aIt4A1IllZxSM1Qknv7HeYPpXdFg9eDnJdXOpAx3R+TYTNiiIAuZFeyYfmYXejAOtguS5NIh4TtGv6EArB3BRoBp2Sp/KhfbwiYO/hPnNIAhuY+A7rGqMS9v04R+wnGL+yQxmPgqZLRdyOl9kzOEn9RQWmXb0oy/jQsfFZCBVBwfMiUEww9FVOU44PJCGH9kHhzgB0P0r+sGhfrnq53am7nsdWMGqBExVDlj0tWd/5c3qQuuHP0Js/Wl9onHwP63pN+9sqEq/YUfed0r3/9M3MgY4jZ0bGoffx1iybok3jzH4o0k1/hiLjElWBX5mQgMdcTB2aUvGuCbZnf3xj//xP/bkQ9xjXHSwBZITA4DDDP65aXF85jOfHR/5yMeMwPMMkGI5wtJG1kMGYU2tUJlwElVAqPL9pcFE5Th4PDk52Xvh4x+U2f/13cc//IsH5yfH+yogvdesW8Dy7rfiaBxTuxVAvLC/DJcwFcboTseEyhuVvA+lw20A6XU1hN7GA5RnukjXifKQv8KKTX4ZINCzEvGhnD7QSM8VCbXJHnUq4MM/zmXEVG7PZj8s+vrx3r8MTZbBGK2qVengeYuiNLfOqMURNAyUBSpNvmm4gPiV73pJcn4GELe0kgYq7wzLwHNExcjg65a6PawWrJv6AQvauN72uH79OB8E1UXJPOh2rAEp+VtAagvLXCNRBkYTtrwSytuwjB7ioQ2H+rhqpQuBvrOsIQGQp4i3hYLuf+uCiKc2E5Cb6o91CaA+4Vonfgsu9yVIvxpYcUvnpfuHhfKGjjF0orHk94nIIRJPmLRHP8gILgl7bKo/GauMWWSa7TLb48ieMc5YZ8z77Ihc9ztESmg8zvmhD/2S732uapSHMNNwHj/mD1hbMTOL8aVnwZ3BV5Bkw2/SuUmiyR52QeBuoNG/Bcfg8qB28+MycKK6duV5IHnwZdD5vxYM5PGDcIPrQVUdAB0vz0xI0BWR4nwc0hN9d1R3lT7GTYFWYF49zuvDDvZ2tfc78ANkx0dcAt5T2o7fPMXemqcBudYM/vHhgf+anFfLH+zzN+W72peDu6vy8hU/UrrjwrEveoQ5dDo4BJ/r0KLtP6fZlexOXA91H5G2x9/P7RqoY3/vvpaWgl3ecSnY3fafq+zt8bLbDoeXI/Ox51Pv+LxIRzSEQ/yIP7rZF8jPn6Xu5FZa6SJbVAMDWQqMflovCvhY8iV3BjvOUYUxwwGVU5955UYWHuWVlj5On3sUsBKzLjTR9qBBftJNQmnoGLr2W3HosnUa3Ra4Tfr8ph2ogJjwGDMQQSKlm7RPjfMY1VhlzOIaH0wcY/wDv/R+j/me7IqK5jASRIiXnfzaRzjzk/X0JT6JgzyB7yVgL4JwXCEg0dBfCC2S8o8/YtK3Hi/y91m/OeeXRwqfQyY/5CT4rZTH8bdaLE0l8fAjgDfzV8J0WDzjelCSQZtYijmudmYwJw/0zOhNt9IUpP2ZkpKP8D0bVByHQuVhFv74lNdcrdZjzysGsPwmap9F8FZqLe80GzBIuD31hKs7+DwwVreqstBFT/t2WGb5fkMvh2z0GbLwJSj1HbOuH+cVnhjyS1jSdPqR0+70eTVNMvDlMm8noL0kmn5VeNehdF/qU55nT8UZYKgdB7qciTD7TAY4bQGOeeYl/5R1yLMvGAKV4dF3HuTxa9BUN4P0HLBywzPMzsi5/EmaP3Got33ynYiyp0+jw8qviY28qR7gZvQZlQC144Jz6RZtR9d+K85/9uK+ifzQdXT+N+tcHrnYABQzfOGJj9qZdjA20073u3hlDHssCy9je248++yzHvMQyGpHvfDTP/13z/kfxs2trfH5Fz87vvfPfu+4v8NlCy0jqAErKH9heXksrm2UUYhCFUsTZ4EK10xZkDYYP6ef/+RjH/r5nyu013Xv+rKv+T3Li4vfubQw/9Xd2bxi6+j85JNHJ2ff9+lf/cAPFeobure89yuf1gzyl1bnFr7RZwgCu9YSRZmBokSVMJs5ccJR1MurCS4Ck1PUQ51k8XemgcrBIjMGyzkGAUtiTqLpgCeeeNSvveLtNcjDswSyk68E2ygPJgD5iQ/abt+8phOpz+WFEiWOI0yH5/p0yd5gVh1mVqV5F9udbUNSVN4VdE54IMzw7gzTUYDfyCeTScuUsLmQzxUAM43Dd37a07jO0iesp412VKe6XJ0itI3X7n9WS1yuTpwoDgQ/MmVwIotzGSgMi1cG1e64yIwZ1A80Vdmpm6m8whPZzWbhectzPg7OT/+e2v6tz33o/S8k543dW9/zO/7Q8uL8dyzPLb59kb7mI9rHp2e/oL3Ad330V/7Z/1Cor+ve8d6v/ToV+M9U5OusFxavGFOC/XKEHAOBVQwGWCu2UxlfcGXJXC9G/NLm+vjOP/Gd48kn3jR2tre1Ij0Ycz/5kz8tg7A2Hn7k4fE//y//dPylv/RXRHDey6FUzCykWWJ1dcwvS6mxNrKsEIc+vUkFuPxO4yQwM56dnD8rZfiuT334F34qGRfdW9/9Vf+ODMH3rCwuPBMlTQPx6/ziZdX2LG209YMFo6AMAaKn52ebGphfKRM+TtoYXHAlvBag+awweRXi/gdwOO/HqbXOjeBR6L6pRWGuCnAY6xlQ5SwPWfMF8a7O+NL3vHO87e1v1cpgyYpt60xZaCIfPozy5knOilhKEx7hMnJllp+9PIYxYKaJzMFBPqbq/NQzpV2UTHaCg/FMwLmOgKA4u0vzhjyhQx6o+jCoe1nvfmKQF1/IxzWITljzTz6m11UozuAmAVfV0Mc2nEIC53Of+9z4yIefHUdaQR3wN36nSqc64ccgsIpQmg0Cr1GTQcCYNQ0R7gU+Z+5UzlmJg/6t+olVG8BpuT7oFs2kxsb8wvsX5uZ3wMLgAdYR6rQ4NOuqLWrfOzWOHnObqkZ87u85ODn95Mnp2Z/59K/94n/tjAfc2770q/+AdPxPzy/OvdOGv9iJDtC2OMeRAQn8SI/9KkJtC0+0DaVPeuLx9kh8fuu3/tHxL/zzX+//PTnUNnHux37sb58zez3+xJPjJ37ix4YMhO88ZIWAhaFVLDGXvTrgvgOElEa1jiC4dGgESHORo6HyxeBt/Xy3gj96ciSaCrAE1QD+ZjH5HerUK9hwys46GpkVjuiKlmkWiJkMHGX40IQG63MsoR2fhY9Z5wEsP51MIF5ct0FOdPikc2my8hSena2Nr7j/NJYlfBkE8OCH1SRp7/2K98ggPCPsRStI34UGr+nQKLTbMTuQlWdZAk6J8xZA/YFjMOL8CjlbfkfNf4KThAu+U023aOtnwk/xhINKriKkzeG38iseY8CWIAbBslI52ukVA2WqHRDpOoibWsXb9WVa/dhHLijyyy+9PD7+MS1xubX+SFsO9W8MWXC4CcyGVTrqFYINAXSoO7KNkULe1XJ4kosUkmdXQXgjh/KzjuwlbRuWRMf1u67wk5UP7Tb7AZPnMjS0Umc7aHH/nCYKLTjOvk8D9S+yXaTuxWUM//iDKvVnVG6NNGiZJkB5Agq5DZVPs+HL+kr/SD+PtErwXwXQFiYVyYs7G/+1P/D7xr/xb/xb48UXP++HnebZy/n/FbWk4P8RQleERNR7FTWgb4qh+bQnEGH5YFEuQpUTUzBkCFsk0iHXNJv9ZUXuiKaB8OLC4vctzi9cYYltmvYDkOzGMzYRHDPWqfhilk6jS/HEcix+lorQw8E/kDB5dF7Rv+CqIvhXLC02C6bvblahyaW0giiLAFkZO2TsC/rSbUvCgx4DoA7hvXt+R2RBzhby3kjy/Gw8ii6QFhv81h0ZAM4ffA6hMuD0c/T9dKkCw++aYA+pQcJ97gt++lTAZWP5pGP8occlKr+khlfXCXhwhgOp8BA+AJ9DAFXnovbAs+8R5H2XvPmXW2LZH/tMQyOBZTI+9xzk3GTZfzSyiq8yy6LB7dN5F6Ha4ZmeuVz9HHVEelOQkNFT+gnA0XPI1koPinz6zH2nPujS3bfd35Scdd290RX6l7jKkCiHbqFjUELnsjLIIPZHuomOoqse7FWNq1K86QdkKJSsMbC6uLj4PQpeGB8aM39BOrNWlFVcIDpACCqc1ngsErowjlymxjD5WAzzIqkoyBvXOUjGBmAL5lFYiPBg0+3bt1WoBho1mGgRIk7ShCBho8QpgTBMcOgCGg9ExVGAGYQCUgwpBYdexlEe1389oygb/wKIalVpC98WEddc5aoHRqI6vnlmnNpas1ikTdQGNIWpg1LP1DSC/CyvkouvWNEFL/swBqCXX0GMqwqgYmNSGtGsg0s9lGcr4TdFQYNs8GXJ2+dsgs4jz3WnkfZNw7zAWerz6LELnislzb6A9AJzTLCcs5VgxZ7gkt7tCE+sHn3KDn05Vi3dDgZK45mgwO1y/wfSH/CrsuKdG3X8glz5HmhuTOTcOtJ14cwbdJVJEDZtFpAF98eIH8sEOSsHkmCYNDQdTR+07GZdkaRWA6Hc3i65Wz2gxeqWtnS8tx/RnZRRCYFpqRJ0+UH9nuq8ZEMZ4TE2GCNUFt0JDzjGlMeDxpjbQ6LK4wgzJh0VeKx2evFMJNmUn/eYZ+yDgy2Yz/XJMY60fGDJMC0MRcUE5PsPR9krc734+HAc+vIVj0hrDy0OXE6Q6hCUGoGlIkVJCSXSy3tKkO4S+uEZgxwGVhmAIpQr1/jNW3c85CN66EwFWNjOd2cpSspvBNCGrvl2VaqrFC2zQ/INIIgwbery07yE9UORQLkJDnlyuQ9CWxD5ErZQ1Q7R9OAXCi+58HkJ8iNfPuluo9MCImJImIGJvDEsFVZacFOf+3UClVZ8RAIC1wPPzI4wS520OcbKp+5lGM0ffCsdWdmfhEtO1O/y0J724yzgGqciwYcKeiL98sdpSZ+U18d9Jb5MS19jOAw28d8A9AMdvriUwkWHEzKS6VIftHHkUl+70NRHGdl+yhdE76eQ9BojJMh1ut0ccgsodVoDaafHHpdcqj45OvBWgRcaG8CpdltWVTD/qaItrz4YOJkgkmEUq44FlBCV4l8aqjhETk60teBpKlW0v7PjSvd37/taNntIWKOTONAbZ7bLrjQMUEW3CGfRYDZcvVlQmAHQy52UbBdB+6AGMOY035SoS0mk2gfPdVIWpQAznUZ6OiVgZ7opP0PadFVIzaqlpzKx6HSIZy3hunOEZ2WTy1xC1kVCHhDmpRRTDhoTEN3M/NMBljMDDBGzKYPKrEJQX+oXRwzsHtAe5IEYgeDM4k6NQUGVm6RhFAow+DEsrEpigDj4ZWb3s/y0svPVah4IEpviN5crOf1f1BrbKxmzbYERsgxoN7qF33KZlc+kj4BKU22WMVSMp7rS/7QRxW7dqn6AafowxeMgGW9Ct+tq3fAAV6uczexKa4sPPJfnh7pdU5xpKrH1NQRCi6+9hsI2/8anvCmnmBxeBZUmfvgwztg2u1GSo9rOJcSDve0Yhd1d37PC3xlwN6LLqj1sWdkKMUJpH7KCd+pym4mmjekEFgY4e6W8k8YD6jgUiEQuy/Xr1FKeZJckweX4MctkEuVHQaK9/eAHcaJSvn6tdGxVSuLEIwqjPAaMy1aeLWlQXIf36PjESXcVaSOJXdY4k0+Vh3aYhrBAXFU/o2sZuCBChK6kIxQnMwTsm4ZBOAicMs5vozAFHHRxHkTaR/NnOev8A8/G+tgU8BZdgL02sOp/5MlfifveDYWBXNte0H4cmObzKnD2605jn25jI6A+h2ufz9JdwGOyQC/jJ/iKN6yI7uqK6Jo+OODzdB5nBNSHr7ZU/UtLMWo8bs2fsRzw9m4ZAhztzzZEfWn5Tx3xzps4cJCpcWdA/eD+iFjdV6bZRfGhU/0x6e8qEl2ovrFPYnQHHVISXyUVTulakRDZVJS+BQ/6sEU6GPxGt9Fx67rj5IHYtBUVpETRIyB61BUEoqJGPfwonbHImASJMUq9oBv0YzyNaeI4jxHTRo+VICRxFmI+JFKnY2WzH1KiZguQKORXRAuHh0cWVtbGOSe5i3nPvMi6HGWo02Uphx3Csiox9SU9kcIrjzxTEK59xTOYmq4Jp7h/aKzytIRKSHWAQn3KtgWcabzpUYdbftE1zfglJDobi0rdrJyU4dk9lF2PLXowipCSTV7xSoqNUL0FyMJLWUaHs1zAA29tTQZgiycft8bWpUuGy5cvj6tXr9jn34P5Q44N/j5+BjY3N32fwyzwsJr/wYcDvvJXZ4xKBmkO9VbXVquMjNBm6E2B+BS2ZtK3xCc8wdvly7zTYdP59mmHwvDHHwhDHwOHMWOJevPmTQOGAYccJve+VLyBQW3ZlUMVAK85Kpls9wV9Yqi+wlem+xAM+nR2IBvS9w86z57OSya/PmjsiHVgZlCznCeEbs7QjO4qzgAtmrO6bsTCdYCwoeonWbitfyGsthQjGXtzPmCeX1qVMmWMzjE2ORCer8vSlGNMu+yCy2X1qXFddc79tR/8G+dXrlxxx37v933v+PSnP6N2LmiZIQsjHJZ6CDEvnlgyY24wLIhBGPFlHKXLc9zODRC4crDhhzQ3wZXHgQ8eRVIGxluodkoTlUmcJasP9eyHVBaq8lEeCR3eehDaBohsZiDZ5xqMF5zrrbBdeHd5xeC5OzmzPImK6Ht6uOtLj6fHqluKd6I6VhZVWjJ8z5e+03+Rda5OQkmzDah2Uov8nv1YbqNeDiN31xNAkRx27tRFJlmpOSygv7o8zuWVDg22BAw8LhMiC79YRLKkTUKc+JRx24Xne90tO3pBn6Jv3SjcWRc5CZScrUdoLHLVQLi379wbr7zyigzD8bgq3bt+/SGthDZM1+X1oW7q5P0QvDb85qs3xgvPPTf2DrS6ODodh5K179oT/rxkzRUPERgLa5tukyVpmaX9fKBO+2gFtUycozPxcvQLemR9UTb6TXnTsB5FFjiGNmToSt+wJXy2ls5z/QrPxhk7plOycg6/CUHMpRSdHT/wDr4zkuq6SMtkB73w4jqgfcq535HlCW/k0RdsEd/61jeP7/yO7xz372+PO3duj7kf/MEftkG4euWqDMKfHZ/8xPPamnAphQMlCYBVAUqMQaADlGhW3KhYOFeuD4JyfhCcT9wlgmTGQ4AfSlXpC2UREHiO2KugeKAe8aWOoD6MAuUr250IMspIGpdT8EPDIdDsqHPqCCcPodPZ4LtzKwt80uAZHmy0GGSH+zlsZS+M8msQrGiJTEe850vfNd4qg3A2x7v1WaIzAF1NtXnOSn9wyDMM+6bJ8t/KDn+Fo4zgF59uSvlRhunsigM3KEkjL3gZ2O0jp3ZdftafxXX9BT1TzqYBE5fMSXmeVUAu6+sa+Erf3s4f/5B/TfrHPx1vaCWDcJRk3sk7kUwxCLdefXV8RgaBPxQ5PDmTQeC6vmRUg5LtDfLFIKCzXiVAaOKLtLw2YjYWkZAczHZ42v64bluwbMxJBUWJNhYE/ZvzJdrbExH6gXP5IDlQVJxGdalT8jYfAAVABaGSlDCL22VtPP1RG8kJkmtwULphg2DjzOkLYpbslP72L3pGBuFP+E7Qu3fuMqbCnGdcDIGQISQyE6Bi0iKY1wE+KWQGUqbK+YdOpjHBNbEOJ6K8zOw0ptpjiMYGTIt8xfghX6rqD675waW8fmbSnI/IYlGcB2SJKfwKOy0FXE6iU7BmQ/MS+kJwOkEriNNIpTMSCU/TGRuerDACBgjGgHv58Znl6ahlHl2ta/FsJQKEuTZf9wDg8/AK6ZodWS7yN+EB/vRG24K+xk8ez01oGcm2hEHJa9v4k9lN+wJe0rJRfsf9ardL48rlK+Pa1WvaulwbVzRx8Lfk3tIoD5wN4UKXbQHbkvapmzB5uH79N/28sgq//LHwyeCvBG/euOGrXOn/i4DDj+Qj68i3ez6h9B/9QWeCg+wjf/rQDpz2JyB0+aQZ0A0MjXSF8kFPXnhyktM6n/qti8oj2yjw7PwCVeT8CaALlGHUUcIcGw+PcI8bxlDqU7CUDRo4p/Fx/utA4aSOAFFqZcx7pUOKvgkSUAhFs2VjL6RKe7CZYfChYsYKJDD/QkXxEALH7KpcAP69epCftkOsLJuBmR2fmQgAUV/ShW5H3fpJU6iroE5auy7XLX4aD4GQyIBUrumxvSD/AphG6nS9BXmohtWISUdOtJcBjpWtge62g6EyhvZot4Fc6qj2kS/f+2YZB2ZcD3wNcgZ6znHSPgD5wicLPh+40nYrLsYGPmIguJlnnmfiZSTysBA3JOWGpdw8VDciCTAiS8o3yIA0YJD4e7H4M6AywASnbowCyPcz+KJl2kWX/WsbN+uL+OXgFGPB2QZGC2N49+5d/5EIRtE6KJngvBKknRJgiS1O4egJUiFbOPiTvgGQuGgYIf3V/VpFC0oHLkAuwCk79SstulS6A1F9W+88aOkr6qHfCs9IeHKmB0HXOdX36H7SaLvx4UkFLowdlxFAAByzBV/IiFppr37hAXnYB4eyGc3+ZWxz9iZanmCQk3BcWqQhr7IRvK2PGwdSAFTjOSiS8i1URWE2LuKjuDkAUoshDSFMRL6ArGpeInII0Z2WqNEhCl9uTgkRevoxQihQd+rv/TbOYflWMPKhYmVLzV3WSOYXqLTKn2DRhgmED/2mDM58JojzchHcyUdOCBPeihay53kEBrQQDJH9tHNz8xX+tF8aJx2vlgG0UL4SDA/GgQfLX4wHhCh+pCxz8CTlRkGjAMonjkxR4Op5D8AyTvBkbbXGKlO0xD9GAYPBrdYcaHKwyR+TEmdbcP/evXF4cGAD2S68POiQeeUJkGvLFr6m/RP5Jj+fYAro4yoPrSlG8tERU1b5hBWksXLUa70ymeC7HLS6vtZTScdjakY3aJ1VIxW7XFMpVgKdTh1kGCYB1x/EyIux6Jh+Zseq0cBXvmXmRMIyCNVv4FCPYikAIp2ZotM0fyDShFwkGDQ2s7yilRpU/5BoOgwbZ8qZphhAiUl0qSpvxTZOBOOyal3P3rjwhFOC8OCBupgxfRuNfLdDBcIHmOkMlxX41lOkpv2+KrBV7JdkWDTUqfQGcAwwMQPwQafgu9P0tYVXiq/1Yn0B6uVT9Ru3HB2ScwVTUXkUqWjQWV3GbUgftREIkEeQdGjEZaAjY8co/RpQi+zTp4GEZwd+6g+tALxmRaKA/KRP6xDNwmXF0+V6e8NqAWPAKsFbHYW5jZlBt729Pfb9OK6+F9oylZ0/1GedQColS3nJLy7cHwXVfxf7NH096XehGU86gW6gI9N6IS+E5gt8tX9W50CKLpoQqMGVCxs5tyA3eZG8+xBn8s5xWuSa8iTV1BOn9OYrGMiCJkG/e5WcyGmCz0d+84CLPlWa0LOaAlyIgDlzYRMrh1JPFJs4y4xkJaWUKE4MebDmzjjLSM705TJ4KtGs0FiMy2nd9NP5JTSnhWkaHdEED0XCt5KogsYhHGMFCJvOqDi4vtqqIoiPqwL8AemxgEeuzY3wTIcyri3QjSAcnFwjJ9X5dqmHv+7iur4VDyikDJLQaf6bvunqF3G6nfjir9tCkkrbzwokfXPBKe5Ohj/a47YrvfpIPWkeUAZo+VNlwHA/C9p1Hq5phuPXceCBA8+q1waP7Yt88yDXaTEGeSaD7czJCe9KOBYJeIuMLJsueMEpDZbwOqj6fGNVks0LfkP4KlAKfZ0+F8AvKOiEiMFD1x3doXjKQtf9AU3aW7iTviSs3MaxgVUYHhVwGBwfQHL3qGuecD3Jx0HevglBVSYoEacrR0H6LYj89tjkt8ftxDWuERgL8vQzwQeno+ZBEqEhKHAqTSF+zEL5rYxk8cN+LWSi+AQnMxwMkmZC7UI7NKuoPtnPqHaV1QZURMiYlrcSk28OyQynHpTggQ4DzpIvGuGhlEzAHnzw9OE5l6cUFj1lBh8nfB4GAd8zPfUqGVBF/Ba/FEu+vuWQTyL+jwX58IzjtLc7vhXn9dysnCIl6qZt6VxmXlYVxqOvxONsGfMLX4LIhNKFI4Wg66IYkl3xMRlUCiNL6OLoob7PPn3MyqJw5HpgQ9t0qAOQC+/6EFVZwnGpe1GrBlYMgWXlztkozGmQ0PUtyW7LLE/dC5P6BHi+iuAcOfHY/WaZVJ/St80jfClR8dIp6QS6gYmf1RnXY30EH3TaAJm0O5xNdTJ1pY9cFT9kiYa3V86HBpnkR14ttXZdPiyrDZRVOmx0p/XYI4miNmCEhd8+NJo2XMIzYz0infJBnh0Jrbjw7U4UkA0jfT9CGJyFMEfYy14SKq+VNwdlvXwsFIRhPIRHXuXzcbpwYIAAdIt2K2VwgpcBUHH7QWfZJ6rOn9AUZOXCYo9uRzAZpM6vznb7nVqgTCBtmAHlQRvVpRv4MHxMUdJm8OCQHYPHS+UazO6UclaqmTgOnHadAx3Kc49+9ab5FTIh++4ngZVfuMkLOvw5AB7p+oZngfNDA+ABGz95KZ7BzYyHnJpewrm3gq0EClbtUHqwg2egkNJdPhGHG1hRcOmW/nDfqV30a27fzr0FGQQP0E5O6MhXy9Xn6Z/0S+oLlnxFrScAYWeykgUTY8ilOSYYVxW6AkYHcDG99M8JJj9BmPQLfoX9cbDD8Mkk1+NDac2XIeODMeStJflKa3oTvVeU+gkbJ1HT6kutbr8S3X7C+p1sNYvA/OpqTo95rVNES7EqjENWRPgpMDH5WeLPgtRK6U3FS6JTpWum5HXPnKh7SScgTDq3WHrJVpB04UgxeL8AN9Awa+S+eqVTxrg8tq1l/vH0XYO84OGwwvwrELfIEuaVY4DpNo3zeogoQ1eeeFZd3EdA3a5P+X4ewDOm2ibfbVNat6Ov6yJQBgS0+hVjweV/+7nNd3Wsrq6NNS4LruSR5XRkynV4FkK2wvrSkdDj3gjfn06yBov387btUX4GNiz3LeCTsgIRcxl8HzZStgZOJAHRoomSzuTPQurMMy784xOyxTXfuOZ9No229oqmoQ0J8uxXyCFTFJ9BkKsUkWe2P+GCQzsbiHJKNh+szPw2YdNUfwq8yqn+sh7w2D83c0kv6XP6l39kAudUuuH7ShpXab6Wb32MbuDzWjteEOtX2/EAkXCQoMcA+iKc1lnfVly6xV+4Nx8XdF54HiuUqzoDokc7pHc4iaUc9SgfXS4fHOpvYxpUCWYqpjj6RDxKrOkTSRSk+aeffno88tjDUtJlDaZDI6kaESXokH06/VCD71D+gYD/TOBFJCc8Ry2hHqvB/PHG0fF53Umm8NHJOFT6gQRwKMEdoTzC5fVXfg5C4JeZMOgFfi+D6mdvdyIGMCjg0bEIkzDQ+MfiAXoH6tx9GYD9wyMDL9A4BHhvn+rHR0F8vR/Bi4YkYhEwIyFAO9HkFlchKw0l0aASvgp49sAoAwibF6Dwl+D2BTzEww1FyOupJ58cjzz6qAccdXHrrk/Te9/8gEF4IzebB4fI4VjKAtChXFokfV+Gz3fw0fb6vz7+wXv/4MBp5PNffvRfZCBQfxxgRBU/UHy/+vWAfpISHgoOjvifTyk7feAhWGADEf4AlJlLh72NeCPX+JkBZ9pW8kdWDE4PeOUjI94PgbxYpcQJV/kpY9OUVOLqDziILtHfdbMYIP5OMQKCB41B0jEkGpjqdw9UTyiSF7p+zJ/KHKrMseI8i6FJSHCIfCRDADy/M9LGQRMQslb+sfB41whPCPMaM94neQQ4LNxJHdAOkE5+hzE65IcfJjj4h2+1UXw2QJt620Dhc4dodBzJIDc8ZJY+sCHQ10mk/bOf/8A5Skrit//xPz4+8tGP27LkQQ0VkLb7xZcC7mBk+UE3iFo6FzpRD4dmHX1OqnkolNkSSZQi+Bd8aGePA15yi4bLR1HilE+iIHjhJ67qKPq4zonLQz1Yb95gzP/wq9FML1B1Po5J0MrZSW4z1hR0DJUSMV78SabC/FELb07+svd8yeCNyJ/4+CfGl3/pO8ZXvO+9Y2F5VQoqi8xdiKqbe/i5UYdBBN90PmlYa67P4+Oo3zwQd/0BlJabfHwyv69y3L+uAWRllgJkmc0gwmjn/xJxng0E05mTWb4HNO3XB6sn3+1Ue3u7iDMv8tfWlsdlP7Ow5Xr9CC15Mzy2o75XX33Vz94//PDDvl2ZgUgZ2kw77ty5Y3k8/PC18cybn/at9Lw1uO+NeeG5z4wP//Iv+1+Lj07Ox54MPnxxpYIrGItL6UPu5UdPaTf86Mc80C7Hy8/2mHBMHfrudivdhk04fqlIjQXPuOpjb8eEZlq+NFF09SXdcp3Uo18Hk++0Kgs/5ikZE+ctgHyPA9cFFKb4oKxLC8mpxGfATmVcob6U9epBBoNVj1dJ55KTdeVkfM1XvW98+x/7j8ZLL7087qoPVL8puwIq8j6ZTzgXRGFhzhUyIETM5WAyVU+ZkSPHCmEc4mpUAWmN2UrufgBdaWDBh5owwSMnSmoVVV0ADaUQAuv9VwO40BWvCvsBDkHXR0VQh2ei9OscSoCjvEvLiX4rhekqybyaF7dGv3zYYysmev5LMaVz1x3KisLfv3/Phse3QbMCoT7Tgi4hOZWdleGDjjwGOwrHzHTn7t3x8iuvjFdeeXXcvXfPg4lr+awKCO/u7jlO/e3DE4OPG4BYQYDH7cMYlXuicfvO3XFTg/bGzZuCGxrAd5x+7/59w/0G4d+6edtv2Hr55ZdNnxk8Cpw2dbsm7ZPrdAZjn6cw+3NzEpMSA5w04tCyTFgRMgNKme0kIkvJP9Bu+tGLbBMiJ8rGVb30YfFQye7QfjxaGZaz61aSqHiySrtkQFSeeJ8lRQfRIQiVvirdZ2bWydD2W6Mp3/wWfYq5aLnmDX3Lvp9E0fd1cYUpVrqMDOGDIQAiPGKYfVbnT3DgE30913aIZooyP5Ej8i0RkYQ+RnvTEjD0m4YxePrhkS7VgiQKZj44+TQSHxyFYRScvHZMWeaGAGXEJJ1DCCYqTN1BVZoFAqQjPPjLQQawNVWg4xlQAV+aQZjKINnLUZSk2yIcv9lJbNNppkGG8IxDgvj0NXV/yJ+GPMPQZtoFLe/dTr0tYIvgwa7PiZeRJ1J0BgHt0KzMEk71kA91Lk8iA/aJDPp2nqnkLAu1f17Mssq4u7M7Xr51e9zd3tNSEsVHzsIXL/z78Fm1aQqiXQB1tmMNKBVbM5/hiE9elMNDRyyNe1uxhzEBvO3Q0lXp+0cH444Mw6u3bhrYhtDG9InZnrgoXuSugGUADoO/H+PGICyVT9x3NpoWM3S2jBJVdMl9rHbbp6uqQg8elUFeAJOA5IpsXVh44KZvoiMMeVMhm0/RwmcyYBjTR6bg8s71l7a2kUFHwZzUxe8kr5J4DsKDWemMLfpd7WSFal4bin8m3mwtFdcnhoawQL6NgNIwHhfGgliIHMQRw0dCo3r6mkDCxb9bL1Aespino0AgDUGRgaC7EzMLQzwMpAsQpouUUxnjkZ8OdDXgkAayKvelRAG0wEvNcA99Mec8mHeTnSvCwQJHtGaBctTZQNmkFVAcr2CSjLEwLuP/3IqI8BUUvuqDB+MyW4Qv6o8FjvDTGQFXnxb7jkMOEG299QnfDO7M8ByCsjzvgR96FwE3lX8AadDhXiFoYPK3/SyfD+QzgC1rf+Som7hBvDL7atYFCPtpQHCoS8xTxmc6GIHai1KfGmcDcyJDB6DQiysasDJ4/L/n8sb6OBWNm3fviJc9uBZ4DjVEQVXPTDtotw/mZIDARZasCHj0mn+85pCbsrwSnK0QRkn2I/ykcfyUc4J/VU1yqsP5ePCIvo0+xRucJhBmD+iGST8o3eA4gze0wEk1qYeKraFNhw++cOl7yhNH1qbReNAqeolTT5cJkN7lwVVAXwwEYeTrJOvyhA70javWOT9l+UQ/upy5Vp/QX4SIKPSLv/DBcyw1Bf/Db/+Pxkc/9gkzwfLWwxahrOaFm9IZx2EeRxk6WQFi+lLJ3A8r6VddRzHCgRwCBN+1UkSAg0FwoQgu5IJAOPQp1nnGBzeJwcMjn08IxJ2fX1PKd7mgo9DC0sryUk6KyQBlNvJ8o3xQkSeztprquhmEDHxXqC8hoiE7N440MLUX8JL8kvbVX/HeLx8f+9jHxuc/9+J4+1ueGO965xePta3LWurn4A2D0fv95pdtAIMK2fNAEHyCa4UUI6Ah+2N14C0t41/SduHu7bvj5ODQd/pdeuiqy2Fs2JtDn+U49DmYs5FWWWhmULJaYrUSA7OrrQPbCQ6xeDTWS/kV7g0If/DRNIHpZU8MydF49Pr18dC1q34BC0JTNRNHfbdu3fLTdLzb4crly6IXfeh2Uvfe3u64dGnDj0LfvXtfq5XTce36w1o1rIzPvfDC+MTHPqqtDmcIwj889uwKr1yJ4HkKOm6BNtN3fBSHNq8Qo8MyGDPAMtCQa9pHO8IP+q1yWsUp5IkCl7wpnsUiJUau6AAfBjPyCsnIOxJyQTvKJpvJApbDA2UgS5rpgyWfILT5Bk/lQfaXj1Zbiqd/aW9SoYBjJXp2IoN+uD94e5L7XXxTL1c1/rmv+erxx/7YH/Pfwd+6eWvMvf8XMQjcWDKmBkFWyAahCiLkOQmcjuCOsszwYXwqUJg3I7/vuQ/9/H9bif+7urd9xb/wjLznaFv279aLsSKlRYC+HCQheT8mxGlLhu8w9KVYFfLLJ1Eg52TV4JBoIAP+fg083k/3+COPjnd/yTvHRz76rAzC58fbnnl8vOOL3z7WNi9rWa1RojIeUKLXBgHAIPC3bCggh4otWw9E8efTcHXuvgbfy9rjv3rjxti+t+2TcmbXrWuXLxiE3otbAcSrBwYGwXSme2z8Eyk/zxAwKCm/zCpHkwD3IXi2KQdPTRfjkDRtQVTmslYLTz3+mF+QguOkv3UD3wbh7l2/TOXaFQxCBkL7nGdgELa2NvwY9L17MQjXrz8iPpbH5z/7wvjkx54dOzIIbJvaIGDM4QWe0MslZCf+3Zv6up3wwXKdwQ7D6r2s3CJj55OquPtZoIJO80QGn/jkJTUTGjMDZZ0ITcYFgzOzLvI1ZZUVQdcDDy5gmmUQKNMGVGlgc2hNnYnHjzEAST9tGDhtkx+DQJ5qIlBx9zF9zpWQAxl86RzEaCc696/+rm8Y3/LN3zw+88LzfmGNuKN6l7dLkzutmBezCAAGUS+plRP4wDNlfO4hJs38bxOH7FFo79OqZfyGc7VPYfrBne7O1gwjSD8jTWEw+GmkED2oSsA5k9ASWNYXYwM+hoUDt0988pM+fLMkRIYO4hTcbxHa2vKgCq2UMxCX3446J+A2cPp97kNATut3dnateByYsu80v3Ltt+Nc4O7dez4cvHvn3rijWfqOVhYAMzZ8cuDYxmkyKOQ/yCM4GBsfTKr+bfHC4SVL+73dfa00WAGBGx2ABu4CT0ULgHbT7KsNbBV4LPqpp54cT73pqbHOi1Nm6Djo6EwdAqqkL8+4dK0tzxlnK7wLA36UwUrIA0P1sV05kRGkXgxgX9ojzGqJ/5xkG2YQX05TmHdW+BKuwnsqy7sZDg5UxiC50AbBvlZtbOnwuQwM3v5+XRJWmFWOfcV3hLcLvmjvifY++IdHY1f4O8bFT5wtIs96HAqfQ2ruv/ElUPFzfJTJzfJVm/P3CmqzZDPP5XCsD+EyikITLv+Nkr+S6z5C9+Wqw4Sc+6tJgYCIk2daIZjOCfQ/HXd5fhP67eEkDn/ixJmXcHzgH6c26JN9FFGlM5NIeBkISsqpo9vVRoDLdLnRRIPEeFyuY8uNQdiRQXjOJ/ZeZYmWzxpYcQiII3wUE6UEPPDgTendMR1uXO6HQJHZU6O48OiTeWZq+sH9ctG5rPj0FYY9KZsUkW0Ncf4SDYVFuaA/cVVnD9bmD0cdhD2AGRjQkNL6KoAUkMuuxxqIlINGl0kggPQj29TTA5NBh08eWwAMAa9fw+CZVuudlJhoUTf4o/T8gWrt+dnSSEae7RV2GoNBJr/vjCXNwCrDh3OJ+8CP+gTZQqi8aLA98ZmR0pC7/y9D+uKzGOIuz/abkzzqpyzGXMDVJ9GArm/qogy0VW5SL1VqZqWo+Wb6UsRv0rIMSGM1G300zpwGu+oLLEqekq/0EnoQTDPQeMZqNB91z9kecoSu8MoUeFUCFj6V5LCEggwehcyIMfnRh/23KqNjzBBVZfCl3G8f53/ZpanFY4Bw+OyWupOq3bSXlvTDT1Jt36yCXAAM5oQWYQ3G0EQGCknQfv+AlAcXZUJeXO9n0GgWNabqEV0DNaq+HjyWeTnzo0HiLQ64qg9c2tTPW1QxuWlbGnxOoFWCb1KxjyG7CLTBDYCCaDYf1INLvYFJGaVRJuEoYG+l2jUdt8ds59OESad85BLDAyqGlBtxkBX4ps1gmBaVswQNk7BQllYWx+paXr6ysrZqWF3jvZF5Oa1fDCvIC2J5vwNXNZZ9i7avcHRcfv4vgrRlGynuXfFLbLkJTYN8GaMs+fOnufkjGvhMvxDuV/2Rt6wwwIttKcu/Pi2J30W1R1HTWYY++MJzXKtK/8GudImX1y4pf3k5sEQevLo9tGt5rK8ujzXB6uqSwitjnfdViA4TCXKki3NTmfpL/edbCyY5OI+X6iJbISE53d2Q2RF0slTYhySGEADXg0H4FyzObxOHEvGBI/MmYcNf9FMmzw1XSEJzu5VhJRbYUjpeg458u2qr5WFqoac4sw9ljWUykS21RfG5g6xO2F2vPKBwUZ5erjdU8XjUVwOxXfDCn9EnoJ8GlwsQBpAE4B6uPOTFDAgPs3z0MnMWYEGe8AL+t2nKqA3+kCnHIH/QhYZrVn6Wtyx7+/Zeb8NY8srnVlxQkQ34duW5LeKEj6NzZz4L2db26P7d+/b3trUl2t0Zh4I9ATeO7SqNPzfdFWxryxRQGe6xEOzc3678Xb+jAbx9tkZ18LkrOpz3sL058IqL15/vFnDlR7CrsMoYWJntZVtlOtpukb8HKMz2a1ewt6OthGHP8V2tNncAcMQL/OzeE89qGzxu3xO/d+8qDvAKNIF8p9MW+NYKzrpKfwD0Pf2tT/q/5RoZ5k4LshzXD4F8Ha9+LUcqhORcgciqE4IHkEZH//Zw8OlGq000PHzzw6ynH6wEGLIM1lsptJtPxA2nNLNQ5iFCGh3Omx7iQHlC3TLoAWNn3Ozle7l/MrMMxzEYXd0DNExHeZk5WSXAG9yEdbNv7mAL0wcXJArKmwxSkgpieALJY9AXgG9EaIOf/IY2FsGVCdSsRdxXYdAHSyltC98TSTicGMShF3ljFLzfLd9/gS/o1QiSN68u62rU1vDWtJxSE5hBOOBRao6nWtn2UZeAPMJe3ZCATBuUnedyxIvq9RZa6YG0gRqg7DtV0Xf5Jlv5k+2f8VKXiodGtZN485F81WegfuoqvCrj52gEvpVf9bAtaJnNgs9vkGtqhk3zm0kD+ci5z4Uj+XFZGTEiS/elpdYFlWgZm1ygQyYqgPtOnXS2CiGmRCvtt4FzpxSYX6fSRtQkaXFufEKWQQbiTLIdpVwSmnwYABfwiBt1QieQtK5uylPC7cCbLZe0ChukCK5jCt7CzNCIm4mrzIMz/HRQX0yfBTuREfVJXfpJOqyUISEyKZfc1N6oM/SC01iQC1LTNzAQrOhRdj6zOJN9sNMB6EvRuy1KcinrdfjzFSaVo81Ok8+9FPiMH7Z0zecs2GjKx5kLcH32kDtTheVE4zOUlOazIs4DRDsyQtZFjzy2FRPZh+euh9ujeYkrW5MY2sqjPKA8ziG4kalpmZ7S5rRCI8yVIf9VIv+VsaxtBmcXlpmlYhnacArg3lHamG8MAh/PWOQ6HguPQbG1U9AzonwaAF7PugGIUZZCv30crfCffUqY1SLxz48AmaittK7fIckHwXc709FBd7vlXEJt73RLSwUmQuVQSOHctwAlykpKKIGAKwytFL+Rm/BgpWA7Um0yD9RZoI+8OPrJDFVcrnnHNU2U1kpXSjkLxptSnLgmSR65Vi7qLoXtnOS+1pn2A1mhEUe+B4sg8prGldlYqQ++qybnWH8TcZy+VV9gDLwSUD1siEFBl3O2E9oZjBUWbfWO04izv0/7MBw14AHlcZQmTz/Q87nitJzPVPCLT6W7fVW+66YPDAzoGtTgMOi59d3AYSagsP+QR4OdS+LWJcHkD3LLULhX9OPVhGXCJIYXeVmLausJv+mD4i/WQom2xiTjXLosSxyk0ulF2MQVF47LIREFZjv4f2/n8w7t11shUH7YQyFonxJomAExoCQsuYxHeUB4fXiKQtmwgE+6C5MVeVCiSVtWpMvPYVSedJxYcDrdChEFsfwEoRNHuHFIhh945ilH/+sySlCKZ15VuW2B/Aeh3SRMNfA3C7TTyVMeIDxLo3FxSrWvFCsWyQ0lmte4C7Rfx9EWFJ3DPN90pDBpJllFp61RAvzRM2HdBpI6fPCtfCYEt0u+1Vc6waCHBlS5AS2u8/VVwHzSZvmpTz7EHSSdWgM2AgK2EOBmoonRNrqrL22xLPE73INTCQbu/5Fx0Y+vTqis6SmdAe5twmTbgX4HmNBZLbLd8jYLUvKt+64qBiBMqAxb/WqO04mgfx/4wIfOORGlc//D//iPj489+zGFaDziEqbwFlc5rd3wI81esggsKEufklBMpynhu1TDzxHuZ7IRrpVWaBge8izbFPcA9SB1EokSLg0m7noqT+EG0iABLm6i6OWMc3r62PnZyY+bjuw+nUSbrGBqPEJkT8+NSpAhjjEAD2Z9s4vSTyRkhMUhF5RiaIST0SdTfCLFGjkjODp2mzhN5g6+L3nHM+NLvuSLx9rGFe8P/by66NNRXBtvxx2Th4e5a5KbguARF3nE2m/v741Xb98ZN+7cdnnqOVefoIxcouP16/5/h6Mj353InYZc2+dBJNpg5RDfLUMcvUY7qcPX75WfWYr+UgVUX/hdxk5BcOGPv227fvnKePyxR8alra2Sb/rIiqp6uTGJeyj8T08CDBk8cQmUdG5a4tD10UceGm9601N+tTviZWWEkn/m+efHsx/+NbVH7dOA2DnI3Zh9RYcrAXTCIncqwpxa5ncg0GZFvRJCH5XDMxeyqONEtNrRNF8mpv+JKCzpWi9pC21CJr6SoP4Ta+YvOoOuM3ITZzxYp0UC+ULOY4R8CipBSYorooF5QbYkuT7xKB8UEvs9B9Z740c/CsFtjDqST4BEgdKZiLgx6WSf+03Ux5KfGPaVnP/bN/7u8c3f9E3jecn3zt3byEelihlWBA5TGZWHbddJhQbSBTTYjZSj0bBnoc/N/WkFf1ZJP2v/dUClDK+X93qgaqfx8/OfVf0Tv4H4LDhtbu7H1YsWLrOEH1YJj0JBVuJbPp3ZHQrgeUlJPmUpo0/y0+FE3YnunHRQShBWsgSepWbklAMfFEYgy2BQWqebIOSRaxLs/Dy7OpCOJJ3O9sxh+uIZbSx3IuXifRK86GUBXKUx26Ha7i/owlw5lJwlqAew+Q7v7cJFpycDj/p7FveSmESyqYMGUs+Mm21T03k9B07amnsuiCPtCe8zzlSotgBu8bJSwexP66V1mcXRUrCEQ75k2R8PfH0I+5Jc0TEIV4RCxzHS9NGAyNjjYyznRRP0oT6V90A9C0+KCkP4tEeRXJ0LJHMK0R/RsYHOqtKrTIXdZ+Qrbc7xbCuWFsjnTlJWo7z4iEmNvQz3KUzrVcT8q6lOU8zcS07JFJabBfM481SMdzrWr3LVXAQkQsaPwPvwwjTlyKJ+8nGmhcIComUrWpBqVZq48khxKcXDXcKmQf5seDY+mw4NCTpAYzX4CYvzdLQ+8nm5C5e+CCM00k1D+IRTOy1Lm5ymTKThtlJuUnfhVLEuDy755BqHYKUlHRqNE9d5kRmZpmLwr3h1K6uMT6m5pKnOsrLCV2FHGsgj6Tj6DAXLjF48m9/Qa9xpGcprckUx2bZgTDBMlQ8fbeTch+Y9kPLlFIafhqhf8ao2evVUMDlhF404+YULr/SWwxO2M+iTAyoDrdKQi9O6jNLV9oB4ijI7H0RPIuQZn5I4pMgSHV4FyvNkAI7bGl6hVMNK5KVxkJmURx6OsEDwpISfAuBBs/DpY1ekoNshedcEN2mbkVOWerxFVd/kngkZCupXXpExmF4x2HySho2pyquCoDvfoExScYSndbuk/XRKwB/jhVGoZdBDOYKalBUnFrRwTdNQaaqVBpCIZz7U2gg3QJkH4YKjTjpnAmldo3lpVTHPtnKuA0JkyfmIJYwIn0h4d0uKUMKKmAEZSnkMmpZB2iocyISUkuF/Cu1mw13vBUc2QCXGNfUEZxxRV3mBxhRpNh1Z4pKW9AfITZz5e7AyuXDxWoc8vbQXxPC8TlmleTlPn1Y/tFFpw2L68FfFZ+sL1+RVGgkKTw56SRYYj59EnT7VpxrU7uLiw+Vz4MiKiKK+JKgAPPWMy5UH00efqow/VGK+CldAW2kNtIKaeH0NZlLQYRsZf0zNAGaMAvUk1ZRUyIZe/PIv4tzQFBrkCSOFjedzDcpWGq5GYggRsmAcEpY8lj3uSLCrJMQRSuYr0hTH1svMEZ/e0oxTGFCZvnMwqYK2/AYS8Iuqwm5slUcoZ2e5qadhsjooxYnyUP4iTGhQd9FR16oNhSMfIdoQFB7CjizgOJ/uWIJWImFTFtbbUT/luLsMy38h0zREyfX8b3Hm5gFXKZP6EkeOlrFcl+m0TscR7sH3m3FghUboTpvknATlaGsbA+D1XJR6KhcmEF8qBEq+AdotHFcIJn0junUwDhM2KtDyLKo0ATwaCFMMJ5zpSgZy8AYdIion3+1TKsv50Jz3nY8LWlURJo82+TKjcCja44IrW9kGQDcMZ4KAlvwqT13onZvT3FG9PrSc9vtAESh5eBvpMYCMyld6yoq+aCMH3r+hoGl5+yLy1OTRwGSsOG1026hUTlyFWTs8sBxOAzPAkGvwYIo9qgchBxQcVh3z3jjeK5f3xHm/q0EXHDXgBOAQ7dQ36GQ/fDpWV5fH5sbaWFletMFgcKE8Kz5Bnw998E94/dORXwFFXTzG2S9C5WUjOSjhwRrCx+GBA7ICyqdM3mnnk1jxxMMvdCiKY/Ez4EseSIGOY3awMmsZRmKUOspiJPCcgq+PykQphKMMK7ll51L2ca387WYH4oN5E+dk6ghUQtwbFJmp8gJOKzuu63PaDB9v6IQyxQ3+lKe4zn8QZh3yyr7+AWc84TuYMh40Ip8sDWYBH/ByMMdgjJEPGxkEvd92/UxU5EFLXp/D2HCQJsCIc0mdj+OikSJz48qlzfGOt791XOdpTa5HCi/jIobAhoN0QM1yln6YkjwtOUyavxO6TpIPLetagQe2eUzbaRNeJmkZIX1cRpDbpEknHtrt/ByM5UE6jEYObmUEWmC2EyCdg66KGtHMuqDV2wxycAFlssC1oG0gFPaDFRr8YoCCfa89A6MtGfh0GtdeeTb+8ccfHZcvb8jqqvO0vNnc2lT61bG5yVNu3OEneirjF7PCI9UqA9HAFQAibEM/d28JyKMuhMGTbpRXHu3pg7C+ZDc50RUNBOHHvhGdwlqHpA6BUOPUIAwH6cnJT4Qrp/qJIyL/OPBaBw8N/6ud64w8CBF1lVVvOMpvO/cZiMVv19/8O56kqTM+fqKz7vXaoViFJA6VpU9ws7hWdOvSg5XJqZ4LqeAYkHlaG+njarZF0XBG5c3DdbkX0KzOlZdcqlWfC80gmvS1u1Z80swYARl2dNZGhst4PHQ1P1Y1eTFJMan0Sib8SK80NnyZlNK0z3zUAAXB9IVPGdWTUjgiaQt9AF1cJknRKXpcuTIdGUBsDs9a+L8tgDnVK77RXK1RBTx3I9krjbDpwQgYSnOdtdolmDgyIVEu+xCHlEWmclO7PhGfBxyzLfeYYxLtwJFTdNJN3SCTUBUKuNMdr7AjxFVO+N5SeHCWlRNGOoyXXcYCphQFFIBFCcvWUmmTX+rTx/dVCCeWOUVw8Oin3Ujno4wAKSpbvUeuEFUWIeMnbGOjAvAcoKx+yIc+aaZLTHSU7ox2RkpacB6EqaNoyytXOwB4I6OQcNWxPtR1/bS7HHVcJDtxzjIPcea9yj/oSHO7EpVLyNyYP/q5gD7U4GG1Z1d0jceMV2160M2wUjjC9WfqjCOYpnUIbZGRVp5vKW5dsI4Uf6SKJ/gTcYF84bvNjmK4cpnSGTMOHeCt4by/cv/oqIoz6M6G1rsaeKKN3nIXY83ezbsPeKkns5kptyxb5jaaTiNfAH4wwqva4xUIdRBHN0NOoLDi4KX/qiQ0mZzlwxE+dKGmiH+JOQRtAVJ0HoJsxGYt2wVlkKdMi9zMOeBLHggaYnHFSIVTCeWotGZU04Jx1cmgBVN4HriV5w6koJztFHgAM7x7XD68AQxQGi2fpZ4HhMK2rpAw03ADoYR9yCW+J/uu4muCUyF48VJMZdy1QvKKo+k3uCI5h0Orrbyd2xLI3i0K0MrQco4v2mp09oDcjcalpsxyXtFYplWf8LjL0k9j0n5EInri0CsbZMb/FLp34NkfynX5eJTBtUEm2Qa/eGs+40QDHPjQRznJE0C2aZiOEtLXwem+BY/2xiUv9NES2NNv4c2GZ10lB58Bpw8y9SrQtIMARfTLOmo6xGM44Nl1CjXtBI3nHgg0r7SFNz+fjZ2dvfGZz740eP+D02WgJ1tMiBg/4DSR8QQiwHkwC5KftuLAM65oGbMNPLSQJbJWHL6anttKWVdFL6hklUlbOGeQHlC3yrM6EjWomw4ya130GJNvHTKGUpQlYtNOBJwpRFekoG+X5CYWGmUQRkPhUCaDBbQIU2Y5naDE6UmsUQzU1WlJbzxnVlmGCkDTM6AugBrjAaUwDaduDR8vpTT8NbBjBECZvM+Asw0leN8pms2HSIhv2iT+lcNA9DZD9cchRHWIZorTkyN63cI0wyoDjQwap5juNNzxpLWjY9w5SqTu3NKqeuW3cVS15s0yA+oH+ZiePsYlTP+ABbKgO92u6um465zp+zj4QabhK1BZUJ7gTvOVkHTqLdd4Bg8GUqsni/6sIx88HFnOLxz/kiUgHCzCinW6aXKwy2oK3aRn4+DB5ehX54evSWG0lzh9L9f121ecbSv/U+HzC+HQT37MGf1QWWSfVUJIQNGFTVL9Cb5gWWUWxQNx92+D6NiQFi/M6xSGbj9S3S/kTX9G3yNDmARiMPLkKPdyKEs0kDhnr4SNrSqsNyVrmm252cKBYY9iZIoRpUm0FadBKB6NhiGEkD0LwnWHGC/MXagMn/L6UWl98F3dxNIJ0fm2WrRRedCgIEM1+RFg6k+9DZa+oGcCGyr55gp+HBJhaCrOoSN3KHJbc65zF//8wI4+sAWvUWJ86CNMEBLnzzeODw8sSAtcBFyTCoMJHfOoD2XwLjryycJHkWhPwrh0LO99rEeDVQ/1Q3viimbKJTx14KkEMqBBxGb8pkK9KCSu85sH3Gz5qTPj+qqs5a04/VngmUnOA0GKbHpFJ0B+cGada+HH9aXO/KquimQwoCvpJ8DaVX0fvUg/uB7kpnC2uQHLS7j0GROCMF1GVEwQLBIoN3nlHKmqnHLUZZ1U2zKmlEeg9cVgKnbmJVoiPRa3Je/wAS5t0GrOVZjgxJHO+YXf1dA3JlGd2p8reugEeKwuYSHl0R1WTLThiMeghTvPASy86tf1uK4AtiBtKQL45Ker9Gs8EJ2ZqIVh8VdKctzhEhDggYNcBbGYoYtIoGV8GuHOEgHSQHAF3bjQt8CEYKgyiJJ4OpqXP0AAA0A9Ku360gHdjhZSfuW7YxWDjOpOG0mHZxSqeKSAOxbqeCnjGaY+1I2yoTTUYIUkH/qUxXN64KJLvPNmcSaDS5beNxyZSaulwa7SHnTTgVcJr+fIlzdb54UCnSbX+fwmJDxwBSnvlOJZM1Mp4kU3pfdG7o0xxCuDEp1xTYKWLbpGncpHb3w2rnDjwZ8PuNEc9Z8nlkkrhKN+Asd6TVuaC8LgWudz8QA3aVfFnSnwDI/xc99jBGd0RA4NAjzJAaKP73zrTAxUX0VN70ivVB86wBUyJgYbJxdha5lDcq84WGXgM2G7tXWGI8dNV/CtkpOP2bBLe+AOzXcEZ/ZVyNaHLGrFp6TTJEylMAj5HzkSG8MceuxBI8OZTvDsIIbBg7ad0l0SnpxBkspVOl3pAghaCAxyDm18bVfge81Bke86hOw3z1BaisGfrhDuJRoW2fQQiiykGRWH5pws/QCJk958upB5ikLRugjzlEucPoGGVqcSSjErEW1KSjLKdX3gBZI5HcSqUWk9u9pAkV/QLvFpmQfdg0ldbzuXKaQu/1oqU/7sC8DpOhuUYQhq5NEGrWl3/a8FZ4eWQ6HVQXBwyXVCyhUeqzy/sORgXz2b7YL1i3IaHPheXYk+ZbwiVJbrsq7S79E7Bgx5zoLv4t06O+FPzlWLlsFBUWEGJpw6MOL83wVXJFjl8awK70vkvYv8TR7/b8H/XOSFtAWefCbkrUPufwEOdmiLL7WLNnaPI7RjWUH8yDx9Yhp8RCiGLo6QDQfMytEq6uKHVjaKBdINL1IexM5FwWUie0/rNBhWA+h+yDLg8DNw1ABqMYhmhV22kwkXtutUYyb1MQAtBLqIBioIHizjmwD5lHVR+cSptwAHnnCMZxz4jAK4e6kDULt4qjEn1HBA2+A1/BXDiQvHHxSLr2hmaapCyovCKZ9lIX59Uh5QUKj5TQgaPYCA7P+gm7ZD2s51AJVH55cCvBHgqLfdbJh8D1oEWI4ZiUFmeIAn8+W4cKqsiJgnz7y9MirX9cdH8VoGU2gZ4JSiNAeSr89kQBiNurpdaIKjvvolhkBwd7r7C8eeCSrsYPofB8/QitFFr1wifW9cyEBD7WxdMFL62VokosjCWRqkR7yMdX9f20nuyWH71Dw0LQYv8syW0H+Ow/01GuQSKEgG5i7PX1WGyccPOQmHunl/os/D6BelOXzM+ZgmK/GhEh6S8NiOt6ARE0V/CEUWCMw6TyfS1mTaupSVajJi3bMhDYujigxUXBNOGHyAipyEnDyIjAXtBOQpoLj3WhMg2wj6Kk/AqsSWV2nYcbYN0GweJvgq745VxRagFVc4CpPO/isnw0Kflqr2lrFyCpUprEoB1wAv0CXXlWdQuHOUlwGlsGihHKBEpdI+yvj+hgV4gcY03YoPbZVrfmcdPEzuhlPcuakAMUKAlKSXC7+UdWWhX+mz4PqAynNZxT3Y3UYUOv7rgnAo11swg5l7fQdPMbRTIN4wm04DJ3EKVwNps/ktgNfMrgwmcGfKKsSPDcRE7ilD6S6rxihTeY5HLqbOlzQPasqEbtIiNzXZvLMC2N7e9VWInPl0GVyMCfyQZL7It6f6NMN7S8CNdDIUXR8DGyPMKuPEZwK54c9EUlrBaX+Ylnxo+M3LKo/e+O8TqJVyfAWWQcUtFDmNE6FJaRgwPZjy9lqQwJWQABL0tQApacEHnwrTRHCETdCOvOrsog01S1Bf2hV6xPvSI3W5hjhoFeME2R74UIZ6XRFAT4t/0iBlDoPv+qvuhrjC1Q+zhPHcboB4wGUFJmY+UhpPXRCTBCElqGToNIKc0xwCAWOgeAEu9SXcrtOomy0DN7sAfm+hVh0pb+2e4DUNlyUArx0nT2BlmYFWHsKNM1vmjYByxjPkt6FXds3TRd6medYJ8LuMofpW+V7q114cmZFuOvqm+u5l5MrXUidYv2qTyyTd9Snc/Nt4WI7y5CMHSoHD9hDD4NWO8LNqDdXmn3bTF71vz7blUEaBO2YpA4Y+rhMI7Un73UYRFPtpB2OB5b+MgIxJxkGl6QffePzg0w7pE31HhkkpnFWEfCXia1Phuye5Kxj9w03k6Ah+0vnVugDFwLIEwwpLATnK26KCKEBQ3hfJUnkgKE1iA8nMGygj7llwVP3OCG58XITlX30QcDohh0MIg/zgTfD1MR3xilHH8iCP5tecui4BaRI6zUJILKvYr+G8TARLOL7PQGk88oqSdL2QpxNipCgV2uSHB0X5sVUTOJE04Qk3ykiZFI2rPNJ/AwdOK47PEeosAWhjMHEKmu+KOq/yZ2eOWei8nv1xlIBOn1v0APJg6roVfg1UW2fj4E7OP5TWLjQJNY+VJ57oFf5iP3lqY93kQ/9MSaQMNOHLzspAd6c+CuB75lcPEnbcWCFtLVG+t31qP6RI81BSuo3ECf9onTD5fXCclUHr6IL/E4GXqPIPSdF5/Qi/qFmvnCZoGQWt5SsfviudOrzC8K2GJmUcX2Gb4JmCM2nP9H4Z2sLBOwYNUcDIud+R4TJKcxnyZbhENXUn2dlxKEo11jT4IDAqFx0GqdNdMY1SlfJpMAyGXDxCZq7wOg86sEALGDeug7Igy/US1UIXLqQJQMOdD4+dQRGKquysESMRFKy0B7PAB5LqKXZVCNTP8Uu4PDvOK6gsEFl68E4lTD603YeXtEH0KYtF7u2FazMb1EA4ZYxD3KlTSMe37F4fWnEJzzra01TzK4pdzp9pfNa5XMmsjcCDrtNNR+W7fsvUsg1Pr4XXy1e8aDS8hq8wO0nvLLiYcPJAXhWKN4PJLzjIBt1xmhLcbiNzoMiGM04UhS9D5ZepLPo+FG5rBwdzxDDi3QK+vI6O8Pp1+Sy/PetiEFjai76SDMiP/5Q4QW+pt+TJuIjcFQKPsgr4vhcbFnMNlj7wWzxDQ3k8o3PMIK52Tcq6cQLa6TKhe+JDfpx0GUPDsXpNmPinMlqewEpeRdbxiVM+ZlQhpVr6sDRl0ZMdNNSx6l2fhp6o8Z2P6w4BF4EkMZTaGHQHozAUAI0BxmqD+mPdAG7EYYCCE2GZXNFLJ3cjXY3jE8utj3+trMJm8IJkj3vB6XThKN1Lb9LofBRBAvLVFcXhNTxJRYRLMzwA9HEpNRZjw51iMAe/gBm1S71EOwmapBkcT9qDMDuQUCja1Yd5PpxCyPoacMKbhOUu0qjEcq2sU6c6+S1EkxXObwgT5KI5CWcg9N2cMewpM3VVZ4HjE0aRteLiPcx3erki06lTSmRFw/3Qkcpbd/HlYdhP1I++9IZKqgx9bl+rmBYUfExB+24ZA1YdMQzLfrOU33GIjphP0faDdVzZMgkRsYZ4a2t99ie0qY+BCE/g+FN106+ehJRLfsMEUxEPaL5UrDQzMPHrcqsbjs9ooZ1A0fRwIwyxKka6PpSyVJohYYYZ4uCbMOEgE7UykipKOezgFJXOhxOxpPRuOOVofSpNOae3L4LgMuAsCDPaZQXQmVGMeDEKplZxuwp33e4S6IumB3kBgxyGfIso9akXoUU52kRJnK0waf7QDLCgLICWAh7/5JGRbLnmTn48iyH0A1PX9JM2O3Bm8UjL4CqCOLJnST3gZut7EC468ak0jIfpVf2pM/xcgPoociEdOv4Qx4CVMWiDgEvdwbVTNHU3b0nGOT7TSPIm+VTvAJJmPpNPHfp60FipGYL0Z8q5v9RGtjAeyEo0W/J9A9WkginAu1cG8ttAY6haJQ2iNWmjO9y1Z3vns4W0Y3amBqdr8XgBH6Pj7VXOLECju/PuhYwNpiCIhI7KColb1U2BsD6+NA6PGXRBlGAo7/5wWspYiAANUT6e5eQylmYSVLQwm3URd2H/jHn+u19gQcpZUBAsbLdEjfBSqcrRQANZgJIR1vrq6lgTwA1C1a/5YOmesnxJDdjJo04cSkgcIfAHqmura35DDLQtHCy0fTqUdohHymKEKK808xVKCstXYCJQ+RgP86KKbEQAsNU+ZwisiF6mIQuhKi1GBd7kqU4gqyD4MabyAvlQLPQh75SKu/Ug4FzBjFPUSlP9ERf8llPXPws4aPfAf9AVysVy9UlGwQUXWg+CczpccRx1vB79aZqQQDdUOSUmafoJIwrRJ8Qk0xTpPlI/KJjhpzyhZyqQPlv+4CTeAEXAYdWZOwvBwyNfuTO6QdgDjRiMF/PeYjIbRUnU9+hX2pbzOYH6zmjSjd7Pt6yycgCoi1pdc9E1526PweViQESd4i7rDPL4KD57aT39T545qTYUxe4UCARBAaVNwmKAZZSXTrJoPvlmyWVHrRTEp1g1Dr/p8jUwEHIZkP28rZoFAXMIp5RbuBOvyFeSXBKIQy8PAWFpyaO7oRFe4sBUPdAQfZ8oWGFSnmzPAPCLPOST2O3IewxZXqbDInTVolmEm7Rcm8qFI6w1bUz5+IhPaQbli2Y/rDQJU1YdBIVAcCMfxVEC1UunKicgeuDS5lYw2uW2USdKU2VmncvBlBxZ0z5IevhOWxuvjQ7pqVcfKyWKLm5ILzoBsMWTiz/IQ9dBuaoDmtAxOKoflaPdzncx4yQYelHf8IEEYJP3YeSuPqWoXvrDb7zmWRzLDrmElp3pwmsgfKVNzZ/7sRhrPmlX4sJT1LjmQuEq49WCdMd/DSfgykRfnQgNZBvjTH1eLXDPj+maU+OkNsL9O3VeBQiQBWsBY6gsOPCc1QfMsZkhMTSovuWJnGniJEH82AVJAcW9rEZIfFQhxP3+92bcAmBgFZNV2LOvciKa0C+S5c7HkTqNv6RmmWn6xiBHoWZAQP2/Lqh+rs9mry1l0GaKzkbAfdOGLacFBZAHnhSGm0E8eJQqnw6i7igvdzvS8Qri5DMbk977OVpImu/eNG3qplw6PBhxDw7KjuM3POio2rKwPB50r03r+vXjmNPegHaXj6xpc4o16myZpmtdQWtKRu4zRCLnPHzh2njZ4c9AEJIvoGpoJ0+aRILTObHn34yRK2UoKOc6yQ8PRnd2x01wsoCzTiiwsCxjIIPgMyp90s/pH1ghxGqywTQFhaHf0IM+/TqpW/2csHiyrgiE2xOCfX3wMQI8kxBzRFmlqTyTIu8/hHFu+TY/AleAY7LmozhJQNMALZOTSzvuNH7FSOY2eFEY2ZkkwsFv7HYyCJ3gghaQHBXb06+ybWVFVK3yAKTU/JJY4gBHmHQROsGwjoVgqa0UtcoN4ANNh0OXMpzMAjDqQa08DIrrAo8fGpEqBWLYZCVIxRZl7QhTua0t1leIAI562tJTt01U8Qdt6kWYhOdyKYKQvzQNLt1ecCUDoaasgDBtpERc4blt8TGaFXPeg87tNlGRpd0F7WbTnF7Ax67Kvq4DV9mvh9J1vq6DNGUfcNRJeyZhyyGtu+C6TfqC45VPlcOlrH4NTpg6hcF1vghEq7qGGUQnVb8p7C4SUC0GgJehrK2tjo2N9bGxtZk/fl3h1fYyCOKHwQnppujJrXSigf5HDQHiHug0Q5XNLQjwlcEfxhpPWFl9MstmoDP4sxKARjHIKsB15MOkusw/LGkbDh/WSWYrci0HmpYPEU8y0nnrowB6tJ86wewzkawGqJiau3yVwaWQ68CRT5l5KyURmkRhmFbMxWi0PpzEg+x8VQjDTQhSTZiGprEBaEHJMFOxy8hNl0kRIDwqQT5CTeMtgAnVNBJS0PYdXa00nhJ6gCpuYqqN9jiYmsmnLoh0lucgk2e5GQNlRz5h5VGnn48wXcoiB60wyBM5rw2E61UUtOxouRxGyxVMMoz7IMw65PW6AA2TwZ/S69CDdNyI34KDDmCenBJH3SgsPjk2+K4rkFmojDJbSc14pBkmvIfOBYC4SJjvqvA1OA1gS9hTo5tyaXMgMzUAqnhiQIonnDlHRyBT+kEfskrluQI/I2Dg0mItvIU7WY4r4u1k9SfVshRfX1/XBLkwzjxhhjfqZrDDN67PALICkhxpi2kKW1/GGH+7xoqU7a9X4bTV1OKM6mja4YfI9MmzDfQHXDnbDl5tKOAXgVArcgHLwyb1m2YVlOhS2hm2HrFSHmCkm55IQJMEcPTNQO3SckJwCZSCgz11BHmmRWHF+I31j9BiECz2fNRJTnf9hOS57imEixgoFJAwhaBjUPbFf1oSKO7nFAibdC3pqULAgSDtsY7I2boKl/qYOagSznx1gnRno3zQo3JQlGh+SlHMH7ymrCsyxKUjAr+em217qFED8Yq0K5wH3W9A/nXLtJvNgU9w8bM1q62YdQbFS39kZsyqoGlPfAaogHjSLtYdOc26KW7ndKmmiX66LxKTjxZm0DdyZnfxx9JR8ehZt2f4D0t4G9IJ78fgTkH0UukMYOuaPyFHAYftB1a1GlnXaoRZ3s+vBM00kAdnbuCsrK+N1c3NsXH5suCS0lRGq5lsJeZyvoAM5Tsdo2r9c82p35yLsNK82pWLwUIJS1ZU7vErTIXddxSBW+Klu6FIGYoyBuhHDyhSVILsQrSfJIk3QqDzT+qealtMiomCGSzgTybXt9bH8tqKK+IH0wAWREjL47E8lMFz/tx8UYy7pqoLfIpAtsKOE1UgZdJoEo1WucpwPnWlHeTS2Axg882n84Aq2s75+tiA2cpQKGCVg46LVeuaTjnlChXZVsIDbtLmglmXPpg64k4zVOKse6B8uwfpvJGjna/HR7tOx8fo+oW56j8rodtZ/BVOQxtpRRxHFo17Eaqc9Mt4uJk8O5IrC5Sp/Dst5ekPPshepf0BK/jQU594e+hSqQM6imPUeAHJEtsKSjKic3E/4BK4KU2AKAfkGxr0DGpPLqLL3+0ta9Cv8q9aWkUs8U5H0rSFWZUBWb+McdgaaxgT5XmSUjmfNxAW5IzClU5c2BHvVC3IxEb7uz9iINpI5EARNtmuVHvBCyHz7/LyVL9jTkNWTlWk5OUfD4EuK/ycrFNxbvSxdTHzIqjVGX9GSdivNvNSBuqwQgU4CJ/7b8+OBNClztw7YE5cD+jZq5EZcEl+8M2ZuVMfp0GUpUOY2T2YnUaZdB60uByJoE1LCLTB13wJSzPO5rIUI9+dW+XNmmNNV2lCImb67hBAifCOsVS6Ww4vThMPgly1oJ3wpCICcB90pHk21uzl2dhfWh765oO0ynOKfKdJIQj6hqaUMHhQOExuBct3O4uP6IZaVAN7Foyjb85k6Je0n1XDSU8aCuOqFpeJ/KnfKUojvaITzBnn/ClPuGJLrgr7m22mH3evWTqItLcK4AkXPICR4aU9y3OXcSs8kNyOUx5bPnK5rh3fK1vHSvfEA+09PjwU3fQnszwPFPmV7b4vIn3lLcyiwqqXgcpfz61s8jd8MQhekUKTcSPXV7bQPeqOHCJDpwkmfVCyoL3dZvviSa2S7yQ7qBB3fpdRUqg6mE5NU4E0TLQEFE8lVM4qYGnl4vKoAQvL8ofypqZE39FHeXAmSj3nZ8QxCs4TXSVH2Kwgqk6DwqaDIirFSc5KPTgGXC9HvY9TFtgIgg7ucoD3jwLzJ5qw5CR9YgAwdFAuQ0GO+HN1QnT3qgLPQlUPjrBRhNP0WmYG58YZ18gBe/zMuB4I3C7LK+Mx+HYMcEWQmHtAvOSN2a7RH3CxxxShDcjEtTRfDqePnagClp38DPj2wwPObZkBy1wAHeMiS0AV+/2XFKO80lImcWfoa9wG8IyQYoQcNfkqU+XcAqWZnCC3AweSSCq9Bn4GNpIiNduF8Oq3DSnN/6iMLruu0AQLnmHCeM4IePZ1H1AalPj8AxhbDucpzbpEefQBUtIBiEPGs7brFB6rCs/iwpUOW9dVB3xkIqGXkw7HpEcVwh/tgXDqErghzjK2z7pML2WtUzCBk2/+TQrNN7NGM6Hs/bATKgxQSMxmPxySIUAcOjScLAmYhng2mypEM0C+HdMw1UK7kyVYfDOqjsoeDjzXZnAplXHVziGeAWFx1WCwgrZykKf2wHva5STTD4VyyMC1OCK84o+YjYzkAY9gwDOMKx+aOR1Oupg2BbeLH5yzCAtmqyxm8Jsv6gmfpD0I5AfP1FKJ6+q24irZZTJYK2PGiZo/7aDV9CplUsx0ZngiDCPgo1QeiCgbNKpM05vUL2CiyEn+tHahSPGlLyoPDSe0c30ZCI7WbzCKqOmIJ/oengT84a7lIVro4uHhgZ8JiA40/+JDg5GZe3LzmodC6CWukKqgXq8+RbsHkekowzy1niqrz8RotuW1mNvwM5CVpoHP5XgeAQDXuiWgbE92kGu5cilbMRsr/qfET3wKK7whY1+Xs5wsK2SgFPxMYOgtKcgDVHDNnHn3Fg1foEQ1TPIwvqsxaXDlB6WyTBQmEQKnpOdiEKsWJTEKJS3s44Pjce/WvbG/s0dB4aUjMkuCVR8Kqg054FBNKBUcQNudpHLNhFARhkHp7VMMB28INJ2hdOqBPulSiu4od4LwWzFQWNdBBwnXfQsXwoU5yEMXgfasD82qtugrpoLQoQOQD7QgBQu01QVK2WadeXzAkWbeCtzZll2B8ifFVA/E0+lEJ5zZwcXFlFk3zaHcbFnXoQ/1s/SdPS1v12VcbqYsLm2AzwfaYkj6BPhUGDdLj6RJnrMjV3dU4ds5iNzPxtHhvl9OcrB3MHa3d/wegfX1DZPE5kgFhOrecl0ZhhfpeaulPHLmtZ3AJ24DJ8e9K5SEH9etNoFteirLbf3ZrkEH0tEJ8iQCy4Zy52eKnEtnxBSX36c8qJ0EpXCMD8cxYPAiAjnSQi70S49DaMIHmeG19Zt253wFkiVDyrgvFAQHRoUtrRfTQqZQGCdXhGgI4Ari2zZxi67iNBaCOBPTFxllcCIeBi4rC5RAeULNoFNONdKVuUKEhNLAYAghUHBg2HtOsxGhRrjElEzDKC/f+zZBBIFAOBzKDABZrJ/b5U/KEuuXdRKtHNfPYOz9rusQX4CXj+p0cuhg+hJeQMp95aRFqVIHea44/HbarFPaZOAUDmH2w4GSJURECtqu89dz8Am8gZs1MrNY07pjDLpunOs1dFvgWTjKd5lJuUXHzTPyF67LoxuUV5i2sKfu9gWmuLgE+anyBv26XaFlJ59y/JU+dFArJq219XXfkOS/AWRGtb4H4DUzbcp6oD7gMpCSTp+6nv4omRyXN0bw0X+/Nu2IB59UF7kgw7byIAN/GALiJJgnEIQncgwl0ZnThIOvHPnoM+cS/Kvz0vKy77rkzmEevFpaWhlL8v2vZ0pfUJvnBRgRnI2ZIGMQ3unP4qscU6AkAp8wyfJj2lAcPnkYZFFUqMqTDuFCIt/Dl3TihCtPKiH0mcr1dVAfGh5RVh6CVVrQmo4+IDoln+7AKE6FFZooIPWlsAXBxwKhLIkMdoyPcNMOdQY+9RRdUvmllDKS5y/51Bk+ocVTkZUp4EediCKoI8Mjrv24Sarzp3luywVggAhsLIUngLfwOy3T/JtPOXyMZ6G8jsNgZwCbbrlpvQyQDNTpwG68tL+dZVz4PijTUrlva0/6a/mzc16MR14AA37q4QOPoD9YTtn8Vrgw5S8u5ACPgUad8HW0tz+2797VauHe2OFPVna2tYrd963NEPfTitZ9XGh2Xe1HJ9M+Km9OOr/br5QaB3PDt03zWjf1AfUUZQ9IVq2cn/FeTpzbIATTM83yBeiQSWA45GgjA3+BuxvLMABc2lxeIcyjBbydWWHhIFtRsC5AtioSvfDlsMD8C9TGdDYd4ocsmjF3BgUUEth6KMCHPBWNb0IESRce+I4SJxKcBs3vYU6+F+XU6TJShBrItqLFA+VtcEAFlEoazigzjnMLaEsnVIbO4cYhlYBvbsHWx6+Kq3bkBBc6ikEL1DAgmZiigdooxkpjSYoGLIoHy060FhYAZAKP5tAsujSEBdAN13HktQPXEH2LH/Haz8ppmmiSVpQYsigqNIsqYaVPZjQRVZLTZl33fUP6EkxwQ5u0B/EAKoG+z4zgA3rCnZ3tG7f7ftaFbmjP4jeu0SdF6J+0Lu1Clvq4PZF3XNL9z2L0g/jiP0CPDg/H4e7BONjeG0f7B35/AVcPTk+PhMKqAVmmfyhPRcRz5YHEGgvleyVhZtBZwnkU3ve/yMClrVol+HkKXnmmMsJpA2ygzbRXfJ4cHIwzGQhfjaiVlXnyWUOAl7V6K2LjlTabpzCilArzRTccTbtYpXiCUhzOLNgMuokjCNvWJD4hpxTw3KA4B0lGGMZUIQgrYAPibH7lICLXaaYrQfiJQcKdTtnWeKXSnPiNFxyyCRMRCe+dEi4cf1AkLAC7H8W9paF87rC09daHpT8doILEnGbFE0kVtKCpI6IVSKmO1VF728woB+NUsHB2PNaXVfbkaBzu70rIubR2wpUS0T06krId7EUJzCoEFbLSpY2zzvU3kEAHUrcHI2A1E6LKzsMXswv1nY3j/SPPfmdaloqAKZu6wtlSUV5SUqLvNIWM8oxLZW7rtIzLEZZzeQ8mKaGUOgfExqxBC5CEwsUogE8i+RcHtuqrspSZdW61spxvUGIFk0+Z0EheZSjiD+l8C3priby8V1ZiF7MkiQMSAEaDPjw5lgxPNRjJZyDRbtriqvRjeqFFO9OW0LVQFcJAYawXtGxfXFkdS4LllTWlLfhNRcBx/dEwA/+UP0Y+3PdK5WB3exxo1cJVosXltbG0ujGW1rZEZ32cqvyJ0nP14lT9fjIOMG6CExm0Bv+9otrgNztLFwHwDqSz1G3+wipMuw0O2tFA/ap9gMaLEgChZKDpgzCxgoXoPBH1QBNQAVYnilOVgYaAEJi+FJdaxBcN0wEfajVoMQkuJ0vsv+qmLElKAzKYw4/pylGno/pIDXN5hgToaBqnHl8RkAbkEhAZFMeHnhSWkDqdq6NezupjJZDQc597Vi+nEuruvbvjXP6cZpNFVhka7IfqzKNjdYwMwNFh/ufP/zytgY9xYkBY6OKNWqGfD3yQHj4bcBOcyveABEQDsEJIMY4O1dl7B35l1+GeFEP8UAll7UIucnIaqxdL+oIjj8uRk9NtQHE3Bqd+5R+zj9U+FK2vi+OCgSxB5zc8T/kueVa+6SbmehvX+LRPuDYqzGLWJ3RN6Ab6Fx6n9ePCQ2jgspdelIE8GvOiswB9BjDGWeB/TNJSmiU0mkk7oXjMW4o5X9AH31c9KAfdC1VO+8yrjzDn37wAlVUlV5y4S7f29MsrojPvtzAfanByn8IJBkL+4d6ety97u3tjVwP4ROVkSTQGxaMMw/LGpbF59fpY37oqu7Isw8Cr1k9UFwNf9amNfnAPYwEojX46krGJEZIPLu2XTCOm8EyXMbZwF8MaHW64wENF6QwYd7WSo9ikSclZzqiXegD2tXFwuy7IQhs/5SpuC1sCBVeSzpIe46KUErzT1CEWMzxZ8NAxkYTFE1HGt2TtLYE/KueBI5+6WMIvaSAsC58BwaUbrjdz0KmSJgfFGKu0GSOA5E81CLidlTsplyWUS2vL49Kq9mwqcCSrbmOmMmuaBa5dVYeJBh3FHnhxedX0qKNnSipDRumYi4AzjtyDeQDX9Huw8Nf2vNobo8Bsw2wG57PuwfJJs2fXdeFeiwuvwTGekvz2ox4g5TzoSfdArfI2BFJSKWCW48qvtGnZoql4oA1dnlSFhpCNY+dyxIu/Kevu/47TdxgDBtsu5wV3b43te7fGzp2bY//eHc3EO76DcFlGI9OBdEQeDzyxD0e3eWUZBkQNk2zz4h/a5seoNWBZLdlYaSycSfEwpupgVU48zMAjYrPo9IPxWVlb881J0Dv2yuDQqwT60mNI5VY3L3lVcHSM/PLeTxrIFnVza2tcvf7wuHL9URsHDhDdbupHLv2pOK1D26xx8OO0EhSZzrNHR4QUQHmFhKKAUj3oIFCKoJ5MhzIoWbICchlA8jXA5hdVVV9WhLJomBUNSCqAjClThRoICsOROhDYKRmij5chSd365aV18j2rU5b69OO6IUm280jj3XHqYvHqe9KxthI+qur+0lLb5bF2IMrPLA5wnTjlmYVOpBSHB7Li6ihWF7zjnq2E+lP1no6d3Z1xJGU4k+Wf18BfV2dtbF0eaxtXREvKJl6oBiaRlvd8icohk5JpATLKKivxB53zwSPPvhk1QLP33kGOh5uUkw96G4H2J875ATtlgzM5wJSj/7MqC01kZNBs5RkKQ9V1iT/CDaRNjGK5rq/ptcHzAFRa47DKcLxw44oOHkDbQJGcD/b3MgOzdBYwQ7N8R6qs4rx8VronHOpTGn1s4y0aPlx0/9R5kGTQ+262TBgM+F3gUA/aS6uivGgaMSQnGiJsTKhRdNAn1ccAp/n9DhGfmygBuXCGtbq+4QPAU602T4/3xAdlcr6BATnY31HdWp2KzfX1tbG5sekraWp0RADvlnvJif6DvtrFaOFjpyw7T1YZp0yuKjbFkdMiG0xSQyxLzQxY0lNpKktFWD4ao7B8z9gwQhlwTQc/YGUwLVDCSDJBDt0sCVNX0ko5XJakKA9F2rHcx+rzP3c0iIYdyYofYN1BUMOhGaIYl6aXcOJES2HFN52Y5XV4Ib1vCNlleT6/PNauPjSuPvamcenao+PwbH4czK+Ns9UtrVRqYKogpX3gVXXQ3DBPIK55mPBSzjJGWQqI85kaQ1GHbAHxLj9LJ3QrIuc2lks4/YVrHqYY5OoDLyUfcD3LScExCL75rAZ9PnF9GfMC/wZyU48ZK+i6nQ7GJJ5B1XThyJCv5dsyNr4UAAOcPP7XUKu7lZWxvL5pPg6272a/LRzooh9zGHEtx+e4OgFogvALVklr3hnEXMJTnEF4dLhn4AzgsHzOBLySOGPlxpZAxudAeILjI+XXlQzaYpbrg04f7O14NbN7//Y44lxK+McyAod724IdbSvuj73tO2PnvkCrHQwfhEzL9NBbqBHvPlWcinASiGuTUKyXnei4Q5GffPp6/sI/uRQR/9KDVgYE4WQX9tIfK1ezCGgZ31jG7iRw2W7AIBEhMM4I+7cIyktjUneDdxGVDg9gmzdAzuQ0s/OYLdeYOYNI7WTGN290ovBOlUZ32HajaOAqjzqstCqgvhGLudoyj5lU+841yNc2L49DbdN3j8+1tLsyllfXZa21POVAR/i7C+tjf3F9nEmhzJjrthd2C+An19yZJaaDhYEeXBCLb9ILZwLdD9CS51mmcHFdHtezc8urXdNuR2i2fMoQifztyFcYhcYgeJ9vpDiX02AUZfGpyUK8Robu8InzDIbVLud6Z3lpPgReOcwAaWateIK30jb9UjPtIkc+ZwmajRk4DEz28Uvak3PGc7izM6EhBj3YPeC11eMJXV+z10yD/vkFP8KxbkObsDwbKsshBhHGJnwim0prf9oufUhXHNroNS1jZTtdZQVUeAJO6zz3QbaKtNn0BKZu30EBsmc7LrrgKOYLAaIReSpF5GmYJ0SP52yt0Url4OTrGyWjCGQ6T07p0GhF6WbyhTl+W3gGfaCjuuxjGoKlOvQLEA456jRiYRDG0w8IQCcbspKxkik5ifGCGnrksdSjK32vugVMqqDwbBVRDJW1QEBTRCvB8fjTbx6bWhFsyyKsXroiw3A+VrRV2Nu+J4t+17MCswnLRxV35a5bn1QT/swrCUl0XV46CgjD6yzgOtwGgQosR9GYyNLCneI+CJO2GnDtU6zCxpk6yiBX826vlTarNoysbzpCZjK24Rbc4JuhckmbAni45k8/hkkcV7hW5CpCziyOw5N6hKdfdNN9qeX88saWjQL/eMy2j5N7+ohl+ZFmXZeX7Cjp0oq/5o7asGbZ9yrSk6PD4BBOP3uQwwo4+jCszAuyEhAm1fybTkHX53Bodp77vMqGB9qbMkoseTppEnZZ+TYe+iQmULpX/DQVRGSLrxh+thtOYMvAAptYUmKNEle3CLnnVgoLCLoI1ZUQ8SdC4G6q3CmFNeJAhtNq6NCW7M9E2+cS1KdlqGZbIfgQhcHr02GB0HIYKMu9Iuj30U3u7YaWeGOskzaZNRGmfB8GHWyPjUW1ae/euLymPZv4Yu+L0FgtsITkxIHzB8bBkRTo4Oh0PP30W8aTTzw5Xnzx85LS0tjd1xJUSrZ99/bY3blrIfBCi1XVe7a7O+ZFx/WKI45moOXLrYIYhNSXmSCyTsc3IDvKx812uMgF3AOcudDh4l1AaLYsfs/Q0GjlyJCJj2FxWLx4phN4ZUdcBtSHX5wTaOvGIbL3+NoicLDmPb8M4TQuuvoid19ftz5APTym3dGhTBRTcNMoR9+VHJyoXDwH5WCNNqQdoi/PTag0njWgdUjDMl1aGisyCiI4DtRXXJJb2bw6Ftc2x8nBoZfhHABDi4M9dZ3qUDmtCBd8riSeOB+Tb8MEnvLOMIDilX72WJC+nmMY0X1WGhhK4dlQctVgDiAsPPmcOdCRWX00jui5LHWzegz4zU7GyfMP6DN0fO7VNOGBcTiJuyvcbuh2malDviVjCzf90xO2x4+p0FNgIHmIABOhoycSGgOazm56s+UgAmGVRxFZFkODZdu2ZtIdzagH2h9x2INy+LqpjACKyGHP7dvC2dF+S0q4f3g4djTA7m9rH3WUS3oYDXe0wl76UJ/SOIAxX0qBC/MxycuhF1uKW7dvjFdeemnsacm4vr5qo4db29wYb37XF49n3v3u8UVf9uXyv3Q8/Y53jXe/973ji9729PjEx35lPPrEw+Pak4+OZ972zNja0tJzHI83veUtY2V9SwNyXsp2NM6O74s3YnHmBlnSPQrCO3xNBrmc2yNZZfZByUruggxktZN4tUwR1SGFEPgwUWVjAGc7fJYuUqo6Z+pt1ymN2+WgjUHpah90PmCTXDEc7heliULVIZ5pR3TRYKUTHoaJfD5eLZVDp7zN0EDDMKRctYEBwUCiCfQZMhGkpmkd1juloPxdfmllfWxe5rB3fuxrj356fDiWZRAWVlbHySG6dzLWNzfH+lVtA7eUvqat4PrGWN3akvHQCmNjYyxtbCosUNqqcHivwRpxAf664huEKSfaK2sbWp2ApzCHhTOwus57EdaVz7tC1hznHQnL3Fqt/CXpEysb6l5SfNH8rDnMOciKgbLQUZ3CXQc2Lymcule1Elp33rp4oo7VsbLCHYwcgtKnCNKSK7/iGsfEmMTQKSP4UhrWCMGSYstTwEeChYA/mt2lEp49mAf8GKdnfgrS8ZhccqiLymCg6ARJgDOGYwz2sIWPikWhPYuLaSuRGVMJhcHkHm/2X76WTloBs7CvzarTadPW5etj6/r1sXZpaxxrX8kgQkE3JbC3vOXN401PPzGeeNPjHvwPPfbQeOKJR8azz35YXJyNS1evjesPqfyWtgq7d8fjTzwmnEdE85L4YjWxL940OMRP9pwlHw0CoF233b4+s44+gCdkTcs8iMulD5KHcnsGqTgAKfuv50RmltZseNZ1eXyMAW/r4ZmANSnuG4KUcx3lFF5O0Jn9QqfPSvq8BLq060FHXupLnYS9umFCAVTujZpGVVB0n0+oYxRYHeW2aV46srl1xYPh5GhHGq+VggbWxqXLvsrA6/CYIDY3aQ83FIkH8cHr/NdXNajUTtq4JiOyrvCmJhAGP6f9G2o/wN8IrG3JF431DaXz4hP5m5vrY8uwIVCdlGWgQhMcld20QRFUGeiuKn/Vg5m6QxPDw+S1LmOxbnzVo/o2RB+AXt4fCU76BfoA9KG7srxyQe88ChX1JA/wIe7hiOUQkGEx04EKI+RWRkmemD0fFhJghpCXjhcsclKbAU8ZQmVxgm8a0EzlleXuJIcabekLMCrkxliERugkzsDgQ9ygVPOBUmhmIX9tdWVcu7w1HnnkIc1EY9y9dcs3qsADl85uvfzyuPeq4OYrglfH/Zs3x6c++pFx+8ZNX7G4KX///r3xiV/7sC8r8Tjt/u6eFOxQFkn8AJKHRYxcihXMIaymrQIGsxgw1CCJ6xIALYhs2pkWhrcPnvTxTAi9om28km272fhEbjOOUs0bDtq9nZnNez2IYcqMTt8rKXUUjabTdbqc2wXQ9rS/abXxiB5Bu3Gn8Iau8+kD5O/VrIKsYhSYkzGYl8Fie3OiVQJbBS71KWfcu31rHO5s59/ItA1CL3IzVm4gAphAWN0e7u0OnqTkPhSnC7jByDcAcVXBN6kdWC8o4zsRuQohfMoYt+BgXzqklfEhuALqp07ToazTyydPk07Kir5pq+w+VznAVzr8iG/un+DPZrlTkfeMkOZ02sVYRU6WJVpUfUYfEbENQIudk7TJ0i4bYEoo1XhtM9LhErZqICIcwGhVAUXpFIHS+k64VmL9KM7ejFkakxEm0/HJp7P6JNZmRR2dbUuzJFylU9r1q2ypcQaJ/WDdvnFrvPCp5zzwX/j082NHHUsmK5d97Sefe+658eJnPz9uvHJjvPriy+Mzn/rkePWlFzVjLVu4OzIGn/nkp6Qop2N7Z3/cvbczbt26bYHDi9/HeC5lNv9wgQ8vKL0GC+2mLeaunJscvOQV7x4MU3wcg8yrIMm8gX5SThDkkPvsIGyYPbN4EMyL+Ux5oMPuY4DyD4L5yerLfVu4Oau4WL5p4mhrt28WcLP1kxaZzcpIUHi4cC2HAaAsKSUy+AjvqKfyVHZl45KvIhzXwD5RGZbeQhvbt2+PA21RT3xTkNqlwcMA8o1pHkhqL5cSfadhDAFnXlzWxPdNWMLlRiNuFmNwstU9kG5xizEGI8ajBm8PYKcpfJB7JLiTkfsl2thw/uW6DAoLt8O+3wZQHKOSuxO5cxacjkM/ONBkiyfhCCQkj62pfBnYeJlgEWdnIkWcMwtZ+SVy0+oDMkeqa5xHXfqh61zOI1LWX6sG/6uSli+8VNJ3hy1zh9iqDx+5LLS8tKLZgaWe9ouAyrH8biPig5wGxbEjAW5ughVVrkahEwG40K/46POI+3e3x8Hevu8x5+CImQQBHB3y8IsUQQOe5+f3d3Z9o8je/p7fkbd3b1vtmhvHyEZtYQ/KOw/cRr7yW86K8GvPAwQ5KcfmquQTORnNZQEPghSttAkpBZJGQgxtbUcYlAw68dWDzwOm/Afhdd1MfvPSdSX7Io0G8/A6WzX9UMrSn6VnmkWP/EDioZW7FWnfBVoTTz8SoD+Vz4FzyPJT9L0uiwstk7AOrnrrICO/t6PZdc+XGNmTYzT2tErgfgDffKRCNiieHFOXK/IXOZGGwUlt7mOFfShLmvudPC8g/Z4DtpYTuu1Xu+nL1KNySlOCmM/qZrIqdH7xQoMAPPBdRjQEvrMXfIW7nCo0fveJVBmu9ZN048iRb4PAj8LOtBATnBQMUeZsFLc7VwUprA//opyBG3yxYUXhQI90H1CpLArEEp1nANhz8145XjjJng0VOhHjWG5bdVU+rxHvQa3SzbxTqDeVGbgy4ffoBVNJ8IJREa+kyxitbl0ai+r8eRkf31pcWxwaieB8j7iWYNz4sSycO/fueW94sHuQGZCOEw+r2lfSFmQCC9kOwT2Ha+oMh5UO/2E8HVSdPuqFGJnZ5OmnAblGvpRrRyNTD0aD2Y7TCmTlO+SoMtXOgAigF5L37HX/B11yqCyAPOirXrqzp0cWGMd+lNag5TcGflWwonTumvNS38DyX/3jS3jyS1+siDNtnQXkf8JMzGAUIG8D+Xzkm0cELkcacZpJLBNXZOSrVMSlA2iLt3IeEDw4pEnp0rWxIP9g+76X3gtqy9L6pvX1/u1X/JARxDxoVRZdRMhspW20oRfBOd18GaV4JoLlN5L6tKJA7gPAkIVn9CNckp88aJpG1eM2AuSV8z0SRAU9FjxRwrf7eypvOydJFqqJdmE04CFqWIT8Kx96rhQi/OqnOxKLZdEqkTyEBjf8UUoVgSOVcZNMlv98fOLpp8fbvugd46k3v3k88uRT4/JDj/ohDZ+6ana+dPmaT3u1i5dxyJNYG5c2x8aVLOu4tLi2rs7b0KpBVpyHOFB+GxTN4szk7NuRFk83nmiZtXPnlpZ+rwo4C/js2Nt+eWxsaK+4tjiuXLs6Hn30kfHEU0+Nx554Yly6sjU2rl2SIqxqC8ATi9A80Ari9ljTLLJ9cGz+/AAJD7uoXXtacm1cujpOF5bG8Qkvh1UZMiQrLokit/zEIdzuNBwdhLySXsreHXbBTdMoYhyBKSsBg4DpAWz4UHrCVlyqmPLgsItP68KfzBxys4MVn1UaDwlNXr4ho8B9+IDjAPmSwzJAGKOgffoCLw6VjbWmFx9UM63fkYDzkg6gA54IAFCCbYCSNcxkp7Sd6Zw4ZEF+UKS7UnaMdM+adho4a9o+oIf72/fGycGe2rokfdtUG1ZkkLQN1HIb4oyB1v0eNxlQGdAkeHBhKBQV5+K9Znb6OEUMxIoD48peuueafhCrLvMtvz7kIaOk0esKmyEoYrhqtSHfoDz0hMmQfMZ3+BEu5JRHGHpQnNYUWeqXGklXkgZjOkmVkVYFQPN7BLAGVZyeA+8Eq46vWXZza9On9lsba74+/6YnHhlPP/P02Ny8rEH52Hjb298yHn3kofHWtzwznnriKQ0mDXwty5955s3jrW97i09Tz1UP9xj4zypEA36oC8fJ67WHHxrXHrk+ti5vSQnnfcrKgSFXBt70psfHm556YrzlzRr8jz6kvRmv0tobV4T7+KMPj+tXLwv3YZ/ucv0ZA3RJNBc1g7/1rW8djz75+HjrO942HhJ9aL/5rW8Z1x57bLzjy943Hn+L8t/09HhcBu/K9WsSAzwu+bZWNCbWGmFHdGFZknLnlMwmLu3B9aDEVTPtOkxWZStNHYtyk+e0DGafKQgpVYZeG/Zfz4Gf/p4BBqeNsIweMzd+AX2N73sP5Nwq19X8i6K+s21qRxYOGaF65IKPLQOcT/0AQeGhzLQH8hmU5IETBVdClXMIZA++hB3VV7rLahNiSmZ1yH8j8OzJ/s6OjQCGjm0sh3LcPsyTkr7Xw7RVTs1l0LkWyFT7CfuJUQWYPlMrA9ZVKxTjECOsMgxW2lAwa5ypBL4tD4cUoIximd8bL44cP2hoA0AKOihjo1BrIaQ9WYgh95NyjGq/DJmQMB5ZzdkgUDyVcTJvKnK54kCDmjmnmgEOPHj0dn9HA05L7RMpCtjL2puz537+08+NT3/q0z7Q05geK8s8tbU27t/fHh//+LPj7s1Xx+basi/bcNnq6uVLY01LuRZptiBiUoUBnuy4dP3qeOqtbx6Xr1/WEnZJWOCmMVnm8iQjS15u3EjjWeLCP6goIa8y9+VU+kaCWltaGPfFy8bq8tjSykFkNPONsXP/7nj4sUd908nDTzw5LmmVsbK2In5XxyWtZmirHyvlUlutkBr4rWbYsYICfONJgZfXtJEe+HVc8hvoYJQIpZEi4MsQeKAyQwg8O1U48RlGXsdhXIw/M9jzeG0O1PLw0muhldy6gXzFp2XukVvE5Wbbl/z0K/ivcZChb4oWDs/BC/iERUO4VE3cNwP5wyKAFVvw2Qb1TU8mw3BROW4gWtM2El54H8G5VoIrmiRW2Cb6igBPtJa8VQfAnGpwWsBMGy/BqtV1JM/Z8kpHSDekDLSAtJMy4OpjNCEUAeMRLjxyiNgPoQDRYNr16t2TldoKHRN3euOqfgoo3XoaQgKlurPcrAibHKJVlwVMETJseTTLQozuWGIgCodrnm9+5qnxrne/U7PpU+OAE8/TQynoqU9SKcfJJ3Gq4zJNykMX24gLcyxZWdKxMrj68HU/rfbiiy/6lJ/3AaDQnP7e394ee1oJ7O3JQB3wYogj02HLgUFhcHBFgfT9fdUtw7Akxo+0bNzf2xm7u3vjxc9+lidixsuf+7zvPdiWocMCa+yqPKsgloN5tJdtjDtZy2Ye38b4lNTMvQWuWQm5dWcDlp8hxiCQIu6scq0oOOMYP/R6APclpX7YiBWaDxsB8Z2w+JyhNes6vel5gBfMDv5ZIG9aLmV7ts6KJDBtG21OGm4Sn+RPccWRENCxtLXT+6PIhAbBTnNZfV0HcidHaTznwmrgDJBB6OMbJjrGBH8lsLy24XYdSXeU5MuRK9pOHHCJUdsJz8p8KaN8y1GEbBgowTStNC/zVaevmqWIwvBVuBRTmlcR8EJRleklvLeBxqEkhcmgrAC6ipLFIt31GQnTgxTqt9qOTPBcNmjyoWxm86HfbOWKlstEblCLUz5BiPufivSFYJZaUQI+DzoMQgMsHWhw3Xj55fHySy+N7Xv3fCDHa6u4bAJNzgIQEJXzWii2B5c2N7QfXfRSlKU8+3dmYJbkm7Lk3GnFZa47t+6Mk8NTcSEBqiyNypuNDm1suC57IOu+p8HMVQLqYDUBLnEG8+H+jl92ciR/+95t37yyp/JLWl28+rmXxsMPP+IDNdrNCuie6jzYuT92bt8ax6JBG6Brn48MRRuyQCuHusAys/givxmYOhH6dZzxZwcig10yzWWvPLffAxmqvWISE+Gz3Gx41jUv5DeOapoM/nad/+uBsNyaaXym3aKHMwZ5lU/K1DUvQNEwxMtP+OPDSGn6M0hW6twGbAuAtVAWAE7qAIcVwcrqhle8R3vbGqDSl7V1yW/Rlyd59kE1TNtAlfrQBrfDv6Tk07RJx5mvSvLBofKN5zEFNH6cV0hO0g8ByLgcmU6NI0DbXTso8mknBgi6lY6jzcGpeAE/bkWnE9cPYziZLqhOsxApIkwzpWq5fUnrbGyO9ywuI2KhEoBx5TBwd/aOxq3b98a927fHvAbh7p27Y/vuPd81xfJ76/JloZ9rxj4Yd+/fH89+TNuIW7d8SBU+opAcOnItF1zun/dlURSezlanWaaq1ZfAZBh4CvGJx58Ym9oj8lYhGoeB2bm/O+6Il3t3b2sb88rYlSFgW8DJM9sYjNEd8SgzK//OuPnKDdU/Z8PCffBH8m+/elPl7o158ZXXwIvLY61STvapBBFGZOYoYfeCBjA+B6Es8X05y4NtFizRiWuR4sjDqBoohxEUOuOLOzV9GBdUO+TnjpWcemnvfiKvAAKhMV0VmLbTA0Yo10vObHk6nLi3P6af9s1uXaDTddOgDMopH+bVmeVKmYNE3vTjtHKJExCPlWye8eEDkKF2SHpLWj5y0KEebTO4gY1bfrmhjpUq5wdqlFYK2hbOLY793V3J/dh6RDX0m1/EQ9vQRdWZ7cjFQUcAfry1S61ywgHBeWxdmcNVUkm+8gAGA1pQpMuBI5kbW+mCTDQKqS3WNssmXKYcYeFOGOcnuCGruNKmZZWqgtYbohUvKAGC4LjCGHfOrRRna7C0vCghahZimV+AYhxppr2rgYeycFmK6/rb9+571rp7967fFPPFb3ubrPLyuHPvrmfvVS3Rdnb3PTCFNta0V+fWUf/NthjmHvdNxZfUgetrq+P69avj8uVLvkcbXmkBl8u4aYQ7yu5rG8CrzTgUXOEtR8rDSMEbbRXX4+arN3y+wNaFwyPyF9UmzgkYeNceethnG5ygc1cZxoX77Xnd1Y3Pf94POFk5DqUwh1o1IC8Jx6e/Jcfqn1JMwgifdMUs9JIt8jYYK/1jhCA5BG36wwngQUNLT3lsD9rRHv6TINunAAeDDw689GnKOS+VTniwAWCgq82E+7JbLksKtNz2OwK8TUxDs4XA2Alm2oOjrJVNqFRlULprrTh+yzDRyiAdPH5maEbAuGAnx0jWf6j48rU3pOp1NRfReRY2amQPGf58Ff5OWEXu3nfbl3zj0tnY274vIfMWIxl9jAuFq2oGpm+rp84k2bVM/bFPdeDh5wCyIeUyOKEDqJDjNBfIT5zlKoIuyeoUX6U8QO0je1at6gcmEepVO9EVxpPVz4KwkOxcJ0TlvC3BwTgW3+yrgLtZVGCAylmiolwWogphSbCO9pWAEdiVQF955ZWxIJx1Deg9WdhXXnl58O4AFPDlz784nv21D49Pf+IT495NLcG1QuAM4LbCL7308tjb2fUJLjMyAzgvpDyWYbk/7t+5lWUcd3wd7Kjsngcp17y514CHQM4XNONvH/icAN5sBNxOBsCpBvma7wbjUuGqjNLqypKNDFsO9pEvvvCC8XZ3t8e26uTxWYwBRo3VDHBfYYwP1995+/KqBgf3QcR+y7lCBofELPkRIymDCnkJV77Tqsism+n7OJdlUDKoFFc+OPSLjRLbLPm9zz9xH6XfOp0CnWaSIsTZCm2YvfegVwE+zK0w+f2cgQe25C1KViIOM/OPyVIqhWEvgwFep43rutEdNb0gMpgNh4CMtiI8VcPlOZESguSIThYegxIeUF4AI7+ITF1cbTMkD33C6KMrOK/SGCAiBFgkgrklbUsxalopcLsxT7LyoBAP4nHTEltTbn/2KlVtZRhRm4OmQWUElFM+zv3AmOFSqCeHDGJQXFTtQpqkAYwl8y5we9QuzkAy25OCbwrmN+MxZbt/QytlwU2ppHEmkRRkmhz6VT9On4pRmQ5DFEBYpAnobC7fnUhQvldbPkCcG3qONHMe73HvtgaWBuxd7be3794Z+9vbfg5gRzPqnuJ7ChM/VPqBtgq7Wp5v37mtwX7bLzPlxpA9+TvCJX1by/g9LdOJYxDu3np13H7lxXHnxqsawJqdtWTnbTUMYmYuLLsHgTru/u27MiBa8p/kts215TUZenWu+OU+8FuicaY8jA8afUdGiZsyDmUEuFLCyzQ4ZzhRu8/ULuo5ES77Su4lt5HDSCrMk3O4dGWJWzJ0R5cMe9ntQTUZMMmbuu7QOJerMlmW4wqH+ExZcBnAPGjUD7b4VVs48dL5E2i6D0DX2Xi+x0A+aTjky9UH3+Yrvw8uZ3kPa7PtijzQrwxqoDLkJvjWS+qfaXfFne8qFFY/McnZMKgMA1tIwlGkeHEeg03AkZiGM6muDONKJ/UAAtdPDPKMgwYZfczLWvmfA+6u9duQNBmkDZibMlqQgZ6AduXcQvGSRYy42uBSkmnpQJfJ9Ft8K25wWvITVtMKPyjyxUexLmcMNUJ0AH0muka4UQQxPpZCZEgeDrHIw4AsfMu3fMv3mGkR+P/+o/9xvPTyKxJdLCcNgxkrgQYTxsAPYkg43OnFACHe6R40AgwDz53nAQ8NIMJOz+HiBCT4E4PCosnlHnD8gEfRIHyI4ZmUOyqgDHF4Ca55Ukf6ARDoiTb3i6M83NC0s6NZX3kHzPCa8ViB8O86zPy0l6sS5qkMnu8/t09dMoji70RbCJSD1QeHlLJGjBLLCSJ9kCjZqjPOxuOPXdM25yHRXq5OzqAC3BPl+h3+DD4GdeN6ryo8TqHv7+yP23e4MsJhV9WhaZS2YAB8GKq+ZDtE8dz4pd5UJMqJUklJFM5gSFnqnOQJkEOvCNqBb75lBDDAsJ99NH+FvjAubW36fg9450pKl8Fx+HmP8xfxdvnSlvkkJzeb8WrxA68mUfTLWr5vbV7KVQLxoh8ojXt3742XXnwphkh4rE6YBBCEZ3z4Eqb/rERbPc+OwmPG9XZLOLTG/87sPjvVBKASouMVrurh3hd0nmcGkAP8YxDPjnlFmtJkATx2Vd5brjNNBJaFZn3VP2fZJI18luzELS9NGrmlWGnyNZtkIpnkKSyABrRcTlsVgC0LNJiAmMTOxAv8+I9gWBGST/qpJkfiM3j2FSffzzTAN20D9HnHF3/R+Oqv/mqtirU6V97cr/7qr53T8QvzS+M//s4/Pn7pg79qgwA6wmIPz0wQ5ZJEq4PcExUiHPL4F13ZozBBxxgjpdq5tPOi4ORiqYOLZac4VrBqgQc6050b+i4POmXofHpfWSg2Nz/tasbf4SRZdHmGHKX01kRCUqWDd+lDAKsaN+HcMwjO/FCt8BAs73fgnY5AzjQYNOJYPjPFstasX/m+Lxpvf/sXj+XVDbcN52UrHYxiytEELn2y/+fsgkPRHozB0+CWnnz+lVvj459+fty4cVudLwVEMSUfBvCVK1c8GOkr2kY+5zZuXznLrRydzwClDPg48v2x4kemtHPWj1zoG00i55oRVWZrfXk8+cTD46knH/W2zH0FpvChSbte0HaMS8tPPv6YH/FlucsLcXnq755WizdffcVK/zQ3fz3+hK/+qDDiVptOxmee/8z4wC98YOxpO3iobcq+BMKt1TTJB5kaCPT7svqRW5KjNWmTQ+IlKw2Z6WqLpaF8JgzaZVzlHR4ciUf+Em5RxoxDbZb7TBiLMkSFl6JOd/FynU7AWwWcE/1VeKpXdop45pY/STNGFWMmR89NlOLg0h/dD+STAU/gXShNAePQdlYoGFO/Y0Jp6Nbv/r9+w/jW/9e3jldf1apbhlnGkUJQLMtRBCpahCES6+gUBXqQuFLluwMsWWgAzEIqI6XJuo5scM0eRCagKlNOoP6QIInjoOlvSINYPgIyn/gCBpDp2lECY7CQZxI0y+9oH8jssryyrhltRZ1+KKU6hC3fpRaezWb4URx+89Yj6pevtSdtgkfS5nkjjtKLTRsTt0Jp5gYBKi8dWEtsAZ3pDqUeOdCAN3JeymG0axnvJTz9oUKtIKkjim5ZAMpv2TRMaEi5MZa9QgAa37SKV8CXNyU703cHyFW73G6VmdAVuP6i1c5xY1OOHycajAcow3UDqqvrn25L1B/WtCYgUHqeD1Cu5M7TgGwL2eLyEJP9CvMHxNydSJjJoPF4kQ/gg1ilMeNSRkKYGIhDVqWijdHaN71sPX25m3+DclgTjHwus/tSO6tI5Xs1yx/raDvqlaXiXnWKJmdaRwdaqR4CxJOelS4rWJ5Y5AE8+eQr/ahWk3lzFW+40oQtvNNjTVIK84cuhCdvtpIMvWJhELkLkB2azsQp+WvY9NhWzzG4BOpELttZoX0r31TJQiNx+s3RAqLu6hoY7jiPXk1pc2JEYHo48kTPvnGT7MikTkUbxTTFoj5RCKGQJNy+/JPBhY+qlOIIhyfceJkFy3oOCFma8p94vHTCf7QiY8CSd2llTfQQg2sRROH8cItJpW2unna5TfAh5dfKomdDVypnvvujCAN3UVkAB1K+HdizWQ0kBqrK8utBL/y0OAaF1QdXSpi1PdCUi+vBRoeCR13A7CCcGAHxycBnJcCVHQCaPXBxPQD9enWUDMAQKA2HUQougDCAaVuThWYF70GIAFOmy7tI4/CZ4BvJWN236hEhK6XIGIUOKkc8GhB9lWSFXlASxrl/Sr+aVsIldeKKYsB393Y1WaxYbsiWbR13RXJ5nLrRn6wCVMIMoUHEzK1c6jVd5VsOIAYp9ToFWZBQMeF1K+wKz05hb3lcmH4PDn3pfiDVOkmes8w7kHAVFV/ZjuKmNKBiBBNSp5s+ccANqELVGOMW4GDCSyrn8sOgpPOIxJkBIyAYBQj75BixlUDBEWLSHBEv0E6/U49/SSCIM01B8Z3TXQ1CDR6WwhiD+1qOYj35g4utrUu2sFhgFJ3leQvSp8DwRlA+aZBOZYTwGRyk0z4MXhQ1S0rShOe+6HahCkn2T9F3O00njiS7SUCu2gmOZcDVBAWoa9KR5cEveNxPwYrIA56tjAwBBoY891crsa9McC7B8BEfbAsV9lOfgPacGIVZRWoHHZ5EdUMld+64k8XJLK7ZKC+MYZUSQE5MOJAJLdUnhiITf+0cD6cKi3YS4ihntUiaeXAoIgDVxg0gTfguIiCfCGnIKdsGgIypE4Z9JElZeoczDlYRK6sr0ifuSuWfsw5sTHnLE9tVdze1UsYkWBmTBoXU2asvZwfVg76d010mn4Q8NI2PS5tCz0ZGhqknI0hFtkTw0VMEVg4E9KB0oY1IfuETiqHFBBYGAf3gh3UhwgBpDc4ByJ86mMSFp4QfdOZTrjsrnSta+I4H8Mw/oHCTSxF+HYjfTgRpqkGCYqCzRNrd3h6HMgosj3mNlW8yUoeeSNkxENyY4vr4RQ7wVvSoIbWlLngOr8SBCC5KIXzLACSwCUIrn3Ri0kpURU+5DkzDjs84Zke/MKOW7F5OYxSMx8BO2HUUceLgYBhbGcHzCkCDnQHPvryfVWgauKbTtNqfdTm3ESiLkBVTaRgrlqem5/zgWRFNk4FLH5lI8oh7kFqKUz4E4FHGMq50OzLpByNAs1ZPxSs0/Glf6dMpC8WP3kHSOGHFEC/8YGDQFZbxvMeDSYbDTG7H98N3iwz+1BFHW106tJRHf+Uv4mzRjOkDvSqXkoq7SH2qHHmZBFzKcQfdTOfaJz/nDEk3jl0CrqvSIquEcaSHsnyVn/dsY2waIscsUnEz6R5xjvPFuvPskjyJ2s2GodG0nCHoMo6HdIQBdEddSLRzsQpfcEqjDW60PrwXD9w9/kRT+zeUhK0D+b50qsHAU455D0PaYx6gY3JV/8QlFWeFMzLlgsMv6FzaCmbxYpwCl4uCTRU3/DbfuJTrtNDzQNbM5EFW7STMbBU/+Vnus5c88okx+2GUCQa4RTwzf+Ckfa6yCIhTHtrt4DF8Fv/l4Ey1KhG5FY6+Tjc/7QtH9JBT47Vh0I8oVTnaWmB88FLVxHXZdpYBqzPV5a1e0Z2QlvNMJ4NRZOUqrDIWrNNw4WMC/gkCWzy48Ut0tMrkwJQrOKwc2Nfzngj6c8I/5QjrY5MoGfnj5PiKTuhSl6tMsRkdAvhNJFRon7GLVtGbwctP69cUH+dVrfrEZwk2TvIr23UJl4+kloJmSBnsR0m2HQUPSDn7yVWoZikYdSrloOO4S1d6OjIWLOAl9QRIm5anVFzKkuawaxVfxiNFMAlEFGu8kUmdtL+748MeuNvY2NDyeWHs78sYqCNlDfzsu/kyb6Lb+0fHoMsPfMmvClxVpfeH1lIvP26W8cRlECeAcvYs1sDMiAt+tzOuabg0PsAsCihMnS17PiRk9kdx65VcmtVIY2Yi3YDhkEIYlIcxaPAgZoa3wrhVv4FTvcVbeE14FkCZdV4d0P5ubxqStnSdpAunw+ClDDraOCnKrzCEk/4LPcAx92WtO3yjU/orH5cVkqujDgKiD054F426fErUW03JiYf3+u5XZMqqgRvTzIdrm3UqWI5QAy71JFRf1w8BwgG2sbRB9NUm2tUiwKW8iyiLPGuvvpHvRC5OIw6Nap8dXDi3fpCFPRiJZQ+u5wAlKQ1rooFLH3UeAs1gRblVkfaKfc84vRA8GMhy1WcTJJmxYtr5zXiSQwfrH2wcBsTXjsFxOfz8kIawULANGQNul+aussODXSu9X3VNmvaBLGUpwMqAG5hSt8nJQbniHtnVWTN8kIA8wHSebxtN2H3lFurXPYbPwEKKckKinTEGnMKrfn0on/x4uMhjBiS7nNwHXKd+aXPfXAQe9U4GjBxpOJJ6xjaO0qbL0OQRtj8zuze8hm59Zh11pW1TaDzYKFYch295F1zXAZD1QPbEOR1WGmh3J84WUr+hjz3hmHZ9wPXnQiWV5zT9QJe4WJUEaubOszds3dZ4/kF9wXsNMQzc+0CbvSIr1/JvF2lU2PRTxzn7fetJdKudy4umBzrJ6CLyMd1gdru6Kt4l4m11D7GWp36i3yrncOi0EYzD51I0iRQD2eSFbEaEQpoLBSdlTU5hqlAl4TM49oNDuiR0IY19HDfYJElxleHlEqRJ9yIXWiNLl3yuMfPaMICjEsRnEapOdQABOW7K4eCHd+Pt8ejq8ZkNAWcJPBrNSy+hNbGYHqzQSPlqgL5pa0f7yoOLkO18Ai7ViYYeQK5ILlICVXHkiOGUPxkwjhvV6emHOIKBpNvw4kNT6ZRn/8pNM30n4cSBIEdanx/4uQQblaqbNGhUGq7rUkjNkYxlQHNpdArG8+9FRzmME1dEfNtz0yoI7Woz8DpUmv4bOfNAICyGtMsgEyKRtfvI9aFJ6Kh4Iz4tKv6A8DH7IdfysQ5K/9R+8+5aYhz2D3nt/unY3NwSroyCthOsPHkdoDmAJwrIwYP5AxS2+pAmIN71TvrF8pnm+QqT+tf58CE/TmHFlVpXpeSk08iDTxtyoak+Sy31gyZgshSCAS+1wcfimPvwr/6axj0KtjC+409853j/Bz4gRdE+SZYQWpyu8qARnPJ8uVTN1KkQptxAOdM1o00eMVBnckgNVyU05UZRhGfFIxtiDlQYwFiUBQWX8iQWDd+VdXailcGurPeRjYPfzyiFtgBBU7ksU1GE3N2W5In0kyCa5pw0xemEJIdnJzuMVVcOICGBR6ehGMd1+If5W9Gg/ar3fvF415d+yVhe3aRG0yD/WLwyu7gidene7r7/XZqbqK5cuSx6MMVWQB0s48du5+UbN8fHPvmc/BupWh/zItcGENquH96FdKJlLUtdBninRZ5x8M0lyW4j0A78WYhiKgM8yxOjMzcevnJpPPno9fGmxx/zDUVQ4F+3kQ3kGDTPPfcZy+NNTz0+eEUbcjrUPpwbk3jS9MYrr2rRdTqeeeaZ8cSTT9qAoVvwytWLz37mM+MX3/+hscs1/pPzcXicG7B4KQ5LduTAn/ykZepXulY/YrvkJF6cR0xNsHj1A4NOIMrgYkuFHghorNJBMVoNLvqGy9foz+7envT3zFsHnLdf8k2ewk0bBzMiZA4UhqMpb+HL5cBXwHdGyvcVHBiu8uB3X5qKfOeJP/2WUw66KR+DwQTCBGAjLwYxZjyb8bt+1/9pfNt/8G3j9s07PnCf+5Vf/vC5ZwpV/p3f/V3jF3/x/SbBwQmKsqk9k1+mWZZKP2bGTAuTLUVHrTjwRvPAtTPLpHjgwLAbQAkXNCFinl3xSTaif1S+FDj1SqETsdLs7uyOO7du+saS9fWVcfXadd+avH3/vjuNv5Sj3KKMHOQ8UyGiCpszfNGl/wnjc2kO+simD/Vcv1wu2zEQxVuWNTZAe9yMcpy/DbdBWFoYX/s73jXe+SXv1AyynrqhrXz+KjwGQU0SCV7usrMjg7COQbhkpXOeFOFcRkzkxysyCJ/41HPjpVdv+LS75YF70CDQV7QJg+CzBAjIkUd6+gCnPklVF9Kh7f6WI63jzRf9yyPiK5LvQ1e2xlOPyCA8+ZgM35plenZ2LF2hrqGBfzqef/6zY23hfPz/ynvvcE+Tq77z3Jy6b+ice3LWaII0o5FmNApI2CBrbWyzrIQQAmRjcIAl2A/IXp5l139go4ewSOYBm2B7DRLIoIByAIE0eTTqST0znWZ6OvfNOe738z1Vv/vrVs9oQs9IYs+99XvrrXDqVNU5p07VW2+9O7elQphfXI5ZCTUbgVAIp06cQPsVhbDDT4agBHrZpvvkwUNxz317pBBmMq93KuYHYnJPRYuUzAK9KeJQJpXf6G9hApnrIF7XlUelaAXMfMcT1oDaDjiA+kihuqtdO09B2SJNOd4/goCpTxmM2OhG+9BUOahAk7JSBsrGwk3x/CTOpBV+En6iuS9xvpC2pNev0iRtkFkXm4mgj0hGBErSfvc9+yjmYmaGQ47TgmSh9O++9bvip3/mf49R3v2R9dOyRwohTcrWeN+/+3dx1113CzGMkAyQuLOweoWWWkmvWjo1jl/u8h6g0mTjh0pSvRQiGsZJSn6QlcoDLkShDpbfqFfx+/h2CQGLh3w7gY1GHKjCIiJaemZ22ihYGKLybFTyV36pm5D6uDhwC9cZdCO05c6dUu5gnJQFfhB3UsiZJl1Up8bcXG2ClHd3tsctr74qLrtSCqEjRxRwmslRCOx7J6+ST0qxrVoIqRBIqy4W3RwQsxLHjp+Mx/cfjKePHc9RzPG6Km13V7e/zlMXBqtCqMoAx31VCO4L4rmH3gI1HEjmynuuDWaj3hqZqTvf3Bxc2xs7Nm+IXdu2+CUhRtKlFUZKyl3WaL4cTx5KhbCrKgTVB4UwJUWIQjgtJSezNHbv3h3bd+z0wa5+YqGyed/lyYNPxr33oxCwEPjs/5KVPH3bxavrwgnVtAV9Sz9beUFwoZ9+I95rL8rnelEdcire62Xl1k3gPs2eRuGrsUwPCWZljbB7kM8LsL+FMzL4ZCE093k6oTKUzidQF3mCVfyUQ85+hZo2/VVFW0JJ7nDocv8omBiqAb7Ka0kPLJdX6uW6Qnd1imPwgWZ2XMI7IGLw+u63fFf87M/+rM8B8Xs/D0oh+Bt6IugX/t37NGW4z3MXaIB5IJiiXBw0qyZZdPktBEG8owmnEg4ufhHQyFXw1ftEKqi3gkZ8ehxSuw7wOQrdEhIxxtQk343kdKRWL/ZwneaMfTS6/hhB0NYtujLquHPoH2JZ9DRGQD7+qV8ps4T6d5VeoKRxJWtc0ojfZrzarkfTrVtuuiYuu/IylX0uhZCjNu1jhVAshAEOkLW5CDZdW3lHYTmOHjsRj8v0PibhoU+rgJIOC8HvMAg3zkwhQBFg0UCd274449Y1aTnzkWP1NyuE6tdFZSM4EjqUrXx9PR2xa8umuHDndj/p4RXpFgm/sHsaxSO6Q1II3a2yELZv1cjeJYWQFsLU9KzfuagKYefOXVIIshCaFALfZXzKFsKDMSkLgekGFgL9SbtTVSvQ0v51tOUva55tTFpGiYbSF27yZgozhcI4P0L+ZALdp5JgvYs5utFwr3YjP+9O9K1dm32ogYk687m2fAqx4HKggzLqtaB0ficoODNNuRFkjgzPRCiXxJh3CrWn3KtuXttzmjMh0zF1kBxImUPCoqzH73rTG+Lnf+7nY3Rs3BYCe8lcIH8wXWUk1dgxIPFcRm3kEZd7/ZzhlAhinEbxYABPOjoLCw3NrLSNKxocRQRu/JhdebUrVktNV8NhekZR3nPnoxu8nYhC65YyYJ5EpQAUQT5RqDjkHJPNbNrcLKrUav8rBBZSOC0oB0O0sJSpK2ZjalxOb5KT4Lci/A7DZTwoweE2oQGMSj8NKC1OPjv8xDenIQ8ykh/ERbN7lCoAWnBTL5chqHiqRQDTGkpaW0rF1a3MuKpMKi6PsrXNilstK10FLAw2TtV9EY2t2fJjRrN70mWCp9BZ6QFP4k+a8BPX3Aolh8Oaw0WiNyt59NMUwsfuse9fZc/JQpwVTbyrwvSR91Y4a3NaI+AM52qqPTk2b1bpZ2aVdpY2Jh2PFluUh/UIxcnNzgmflA+4XYYc2+Dz3Q5e0Jr1+RlwFdvgoYVDddRa6osW553lXQRdWdzmM2u8i1DdgpQiXxz3vdLN6Uoe1kiwhPhAEEf/s1BOWpQocc6neKcBj+oNHp6C5L389V7WGPRBL2/3oqgsg+qDyifuGvqYG3ekImg4Xs5Y5JyBpfxCLq9mMocTFt3LDORV0EVeB82zCDhvYNH3crr3K5dyK4uzsaKwkGvxK5iZz69zMtezA68cZS3jeL+AbyYSrnjSSvDqK6S8edmvKQHMNjU17mmB6hi9vX0S/jbdz1ggksGYV+a6B4LJYtFyLUd1atBAnUzDrPDqKtfSdG3FDz0ygfnCM8qhhW3LGkmgTQjsCG8ljtdaCaddRRuMb0Z2iwPJ2lV4q8vwvHBbw6yI1DfcM2dGGSLMiEoKVboUrFXBxZ2tAKqrwoerYSgEP1PHr+kV/npf86RLvOSFBq6sXeT5C4w+nGzFx07XxIBGTq58x4Ft1NCWoGsT7c04M0VpC0OmORtgbniWdmZUc07Sodmt3esVAEem8QnNdqnU6oCUtCQd8uWfwjwwlbiKB22E0gToG15smp2bzo+y9q6xMPJIko1LtJ1x017CweBV2x4epbzGx27czvkNjHyHItdI6uvoHt3tlF5XTqwiH37eQ2pXvYyHMOqkdDgOj6nh0J2KW7KldmaqzfsrhMF43hFK1dB6nC3gZpJGaZwMowq3Shj50CnLPJ1K0CkB6xRiXu/tVuZu/Kp0h+67ZC52a6TuVuHML3GcKtTT0R49IrzHYa3RqXQ4+0U8L//weKhDDtzdKmeNcKxRXK8YZvP6dXH5xZfEEOY0widBYfTZsnFzrB8atKLqUNquTo1KHcLDl6HaloV3xQ2CsGLe+s24ZZlyEnALtYQdhWUFwRmJwrOCQlO4lZgUBhp1RR1sp7R5TWXJB0RRKCgZK1BGR1kvZj6Vp+Lz0RCcJAerFxtl9S95qwGZ1Ll1hRnozBYJXU+sHxyyoLXzYRSnQyhXmYxOh3mqQFdna0CCbgGXv+LPMsScwkE81gKukade5VLglV9XmJg69Un4N2zYEEOii4VnlMGWzZvjkosujksuvlj+LT4Sj6larabpdrmrrrFmgmuGM25puRWPbpxoRB934jrU7+KRLvnhJzvxHOHdoqlbPNHT1Rm9HHjCeoPi0qm+XI0H61Ptp4GjW9eeLvGq0vY4r6zSbqapXKWUuRcuruBg09MK52jMTahvemKXpjxr+9ZYWXQr3TrxJ98CQZlzQhfH+ff2dBWH8uxR+t5Yq/7tlXJlqml5Ee6kX2WhdNWOvZqiUDZrJoR3S3Hgx3VyChhhimdvBLTxIpYVE7Khvs8659MZnur4WAMNaAw4Xkj3CMRNMfn8ZlzRPA1NBiIR2akG4jAMVpZZyOEIMpwrQONAlJiXjqLD6CzegfcqrJmuMm254hTOtTIZrlPx3ZQpXNz39+eHXuCNqYkxH1oCrF074EXEyUnN3VSHWk7V6meX1Si/yeXoIOGwM6fmwILkwn7F6rYgqwxMVLeX9WXxqyHPcGrHHOETpUVPTKzcGWaHwpCjyCaHBoGeFNhCt+oD7d1q540bBsVwW2PD4KDbB60OZvAhUCjVrFtOzbCqODKOK48IuWY7K1xXO6UnjHLoB5jIjCZG6u6A4aQgFOZ4KaguuW4x1KCYe9vmDbFtyyaNjhJ6lHxXWwwM9semTVtiw8at6rsNfsKyvMIjL1WJH7VbqkamYzm1SqAWgO4Jczi8qRHNmRNoJ6wK1pJQlqRRKqWDh6WUxeCs+Ntvl3E+ql7KHUWOsJLGU5zC+8z7Uzhq/6WrUzvTK5o4YDengzYWlISFzzkfosMgwvF8HPRCm3qrvNIgP7aSQAPa0l+JJ/s5ZTFpqTRzZTpqS73UJxeB5dz3YJITu3i/hRykw6deN4FHlZ46MuXELVB3cKhMsatwl/KU0WrbdSKTElpTyLlB5IijAl5tpRAHZ7y8NFehSP/lmjiykKxkFmZHmBsFwsUONUxXMsMDEAUqmIBPefOdBNKcPnXcrzLPam7XK9Ns7do1MTo27KkODWoQEc5frklUAjs7TSKNliG+txD63rHJhxlhQbbSAo9duejHjj/d1zbJOPImZFtkHRuOtqRDTUVJzMV5aZfEpR87oizIYn5M862bN8XunTtjy6YNMaiRpQ9lLLngWxMa3PIqhwWH1YazX9xof5ssufZV12lH3JId8Z2yrjKcNGJoWV3dcj0qqK+nMzat64+Ldu/wQuLG9eu92s7HVK2MYXwpjYUFzVllbcJ01DTbQXWzgw9gzOoqDyB0ONZLVtsshUCgxnAq3aeSyH6glehxK0N3QCpV0sKjlG1e5I5mdbizFz+/4IJJdPUFPHL8y9nKkQc15jzgVDu3avDjnnWIqSk+LHxafdUaQ+vWSSm3+d0SCsXqApFpcX65hsCWuvBH+cVRl0qH+bJBfKWtpmXAS+utDggOlx8ervgaTmFMR8DHEyyQ0j4tX7vvaytEsNDy0z/9U3Hw4CGPBFlwaSYhQN4goRaki68AhJLSaMlj5yhDJUJ1twNW4zO9Uhg35pcFWfF8AboNc0cNiQBxxBoLP8yz+vvXxszcVEyMTwh3dhRQr8lceW/KuAWtr0lfJkk/5Zdbp1N1M438jM7WtsZNYElU8iZkPRyjdB7Ru7vidTddG5deflm0cAiLSyG7GFMaH5Mt22UlJsRIMA4r1P39/dkHAAhFBK8oS9pcHqSwWMTOTPZbcASZ59MkLQQlU+Q9+J1RUNsHYcOZZkWVmhlyxMo+M8WNPOBNS2JgYNBWW1c5XAYMHNXF17D4nmafTOZ51XFyejqOHD0STzy2N1o1DdsqJeYTk1TorKap7CvgxO2RUyPKvxzbd2yJrdu3eOcfVdKA6A0zhw4cjK/tedT7FryYp2kb9KXA0P8iQTgJoxdIk0Hc0Qa6o92pa1N98DoPjeC6+j/DM0UjzE+oBM3tZeUux4I81gameS9TAlmvnWobjo7j0TjKgJejPEKr3lgCIIJ+8GQ/yGcy+FktA2Iacb5VjPzVujWtJQ1JnM/4nLhRhhMaZOVgvYjmq6+6In7hF39RbcwhMDNSCPc+sMLcb1pm+E/91L+MgweekonJY0frUmc3W5i5UotRAAoB5+Ip2VTwz08lRv9Kmx1wlmYkpMYpgDJyiylaHNOzyxs8FtXIfDGaKlWh5HgrBIrGBowHYozcKfNP5MLYdBpxRAsRKPK+4fTjwAR8tfOrdiUhYeCo+JxQcZSlBjMeUHFLg3drjvi6V78iLr70kmjt6nEGcNGOKANGSPKDb2Jy0m8oskCHQkCgXS8KgZn1z9SNjvACFUWqbVgU5cUbXlxSjPPlNKmUozZLZpKjHvp3/5X+TDOUfs0+sDJQfhQafvJQQwYRW5HCx+abnu6+GBpar7i0BGgS+oS5PMf00258LYmFm1Onj8f+ffuidX4hNm9YH10cXKoMs6IfAR8bk0I4PaK6SCFs32qFwNoFZS0JNydzM1B97euPeOE4FQKHldC/Oa2k3tn+qQCpU1JewlxFXakn7VAgFUrpQ6WnIr4nnCDCnT6FlzSk5sqvyxQ99KFX7OW6PJVmc1K7hQ7cTGVZv+mSUoA2PioEbwPGLmRJp/hCf5Ti/ocWx2d9DOZJppEsgCo/7ax04KV8AFyEqafdF9SnWjiKFX+KNpV/2WWXxvve9wuiZ8E0yUKQQhChk9NTsXHjhpiZmRViVV4NzDwNgDE+9KE/lrI4EKeHh30gJo9P3OgqgANHJiYmjTAJoXbkc1WchkNG2ThEOB2NMNCAXrBTHtLA0DQIX9TpW9PveH86TWnoKPZ1Y5ayI218fEzx2aBiYTdSHi4KY0C0ssiDKYb2dqtCCxe3iX6wFDLEnVoifE+7mSZcETJiLaj6I1WmpD5ZFxZiGQFoP8x7vjFxy6ukEC65ONq6e5PJyCC6/IhSjoKgccLvYaRCWLuWfQiY3UpP25g0OpZVYjG/cLtu6lCfq0gapQWX11BgGBzlyCVQJiNkqZ+ajDjPp4UDmlxP8Jf65op81tMmPkzvOuKnvbtMz8pSS4ap7mv6umMdFkJ/X3RKcc8vzse+A/ti78MPR6vo3bx+gxSCFL3Km9Uoz+7OsWIhoHXSQtisEZVj0VnrRSHMSCE8KYXwsM9npH157OYqi9ZO+EL0esARsTgew1G/vFe9XUWmxGoXZ6TNioAokYPcr6Ut6an8dzx84JZTQPIAg0O2mxUC7aM0nv7AC/KzOMur95jxdWDBskMY4d05ntKRVn/uQ6EnD32PLKHo0+Sns0rh5YJwszjMwMl5ntABDayTJICvNS699NL4L//ld4g2ULXqn5iYiB9774/HL/7Cv3F7cpK4pwwgZheTD7eU/7kA7zhAOI3DYtVv/PpvxZ133uW4ypAQdezpp73pgXS1YfKcQjp1PmakiGgcNziVErGDAwNx2eWXWsAffuTRGJclgID1y0yF6PFxDg/l8Es6nC5sVaNoZFU+mNhNq39rTCFMYZczE9D82fEk8rmPbqRsJS/yGEP+ln8ifGXkYrEuR1+VobIxaUdHh/08PrG2eA7JivItshAuKgpBLVPKSuGpW0sRMlsIUrTNCgGwQrAHhlfbyetRTe1pSokHicB1wOkWa4vxw39E6ydHeNpEjCOXbZBxMBhWgTzGka2a9LrNFGc0+qMcFqIQCOLznlfQVrzLcteu3bFh0+ZoFS+NqO8ffOhhf4+jTdbMpg3rrPCbpwwcsjpyapSGkELAQpBCEKP7xbaF/E4HCuF+KQQ2oYl0M7BKNkV9fT0azNbrrs1KgTkxZz3Q7bQ1veRWRH5LLtoQRUidnDC1blHarrTS0QZZX9YKXHcJPAINP9OO7O6DJnjYuN2+KFeEu1N17Y11svjANay2YPBdu6bPCmtyghfxxDPCT3/zxGHzuoFYv64/RidU56ePmtcu3H1BDEmRerBRIaSHbiyjG1/9qviJf/bjao+sL+E+zUn0o3y8f0VxUyNj0XLieHSJMN+L7gNPPhUf/tAfxY/90v8hfmANRBbC/fd+bYX5zbxG3a1btmpkKHPXFwBUalVRZEP+4R/8t7jrrrt8X83wxx57LJ46fFh9kAyKZFEBd4DSDKgBL734Qglfh5hgT4wMj7ohUVZoYN71B8yIcgAKgXmrG0w4bTjpxn+ZRBH8pwAloxQmN1ckVMYHnE83SRnpkn7KJVPecb+U5y2ooRNQCPmlqde95lpNGS7UlKFPCdupqsv2kdk8+hSlKKWpqRkphDplyDfpslSTUNonlSnBphPCueWqOkNX0gltOBiTkT7TEkfZWEwLFmjS6sclfCOkRaFWou8KHiwQMlqpIWjsu+AxsFAwSg9ZIVwQ6zZuUWyrj41/+NG9shAekkKYi43rh/xmaloIdcowHsMoBJXnKcM2KQSl4V0JFALP+RsKgZV8EcVGHxXuOvB0i695UQ8UjdvBlU0FmgTbo0sRbP85QM4/9loZANkwjsObcXmlrgBpEVLWtmxBKaxO0RhY1GReR3jlK67SINcfDz+2L06dOq1cWLsdEliOysf6lUJQfzOIdEj8rrry8th14cUxPjXrR81vefOb4/VveIP7DUAWqkJCEfBOQvIChGb5wKwsgLHHHo9+WfUTDz8aS//vH8WA8rQr2bjK48SQfimhY7/xq7EoC55DYhsKgQ+pbN3zcLS/7XuiVUx5vsDMKeIREK7A5z/3+bjnHl6iyvivf/2BeOBrX7OA+Qs8Ti+zSsI/rqkIIyjNT5e5L6i36657RRHGyM2iDW1hgSN1tkvj6h4zlgoqS5mhwQNEuc9AXRVWb1dHDgXQL7p6sVF/i+pZNkl5p6eiyMDjPBYVb3vNK+OSy6UQOvskXOptMbnp8yaseSVOhTCtzm9eQ7AAUz/KhQBK95VWSj9lM3JVBqhX59G1KoRVHJnGo6iVZUJz/vSTtsYWfHa2GdRWGZ8YaIxsEARlaHDQ7yMMbdgo4WyJkdGx2Pv44/GIFELLwmxsWi8LQaM/CoF1AKaoWAi8bQfObdu3xJatWAi8qMVoxqnHKISDcf8DD2k0nlFRhDNN41EcwtTqx88MRB4g8t+Kow4Yrpt9QNJPC+IvSdyWtFy2FFDT8Zt9kVeUI7ESbSkEhLKBXRcsj/rkhBF+Ewup4s3JyekYmxgPvhFiBStLA8Vw++2vj2uuucZTY0b1V7/6prjp5pvMT+A4F9Q+awamH1g+S7I25/c8GEtf+qs4/ZWvxrYTJ6OnCQ854TyG/jFZo8c+8GvuKz6U3HIfCkFETZw+Fa3/4qdj182viXa07UUXhmrCsB+jmCA7tkffli25sHWegAZmneKxvY/F3r2PeoRhlfaeO++MT3zs4zGhUZetnIDrb6b0rfwOcGcZFEFjADlyuetKfHZ91exArowrjS5OpfQ12iOuIBnfHsVJEElLkJDBaBYS/dFpNj+JLGGYcxzYcustPGW4KFo6e1WEjHjh9Oiq0XJZFgKP2BgJpybzm4w8ZfDLMmoL6pCCSKH1em6FUF2FTFkshCalkO0C/a7GGXmrO5sJa16cVYIbDdqINRY8LpPp3i5NGdZvkkJQCGtOjz3+ROx95GHZ+VIILCpK2JmyYPb7uwyyELyoqD+sg81bNhWF0FYWFafjwMEDcd/XHrQCwXrytlwphFQAaXLnNDX5IOtS6qfQpFBA+1uBEUndSJP1IS+xGZGDF0gyJsFtWPwe4OoNCeQnta0ElYFCksaIDk0dmP6iOLAo3vnOd0roX60oFNZyXH31NXER8iZ4NiVwNpBukbUS2lLWQMuRI9H7wJ5YwRp44onoOnDQ9FdoJhWglJOyRk9+4DdEVyrelvvuuX8FjT06NhqDP/bPYv3klJlZw1SETF5abA6GkgZuf+0tMXP7bdF1+WXeH3A+YZXp8mOsTz31pCm/44674nd/93fLyOCUTp/Vq/6zYbURzoSz0zc30bnyPHtZCDZRZjpFk8JCI8eoBePf+tpr47LLLy4KQYrV6aUQZB0wZUAhiEesEFgwO1shVGFOwL+qEMQ6Kl5/lF9cBdiW9YezFQKOVLkAlnms0OTST9g3UQgun5hmpYDCbYl+jThbt23zB3Oxl05JIew7cCD2PbY3YhELYb2Fnakij9/SQuApw6iwLMfWrZtikxRCfisDhZBThgMH9ttCQIFQGmcsUC5/CdCEv6m9dFtjK1gR0k5n1VHZE4jDXxWHcPEH0J72qg/ykkqjxqs1/Fv7ggFhy9Ytsph2xVve8lYLPQLPdf36jU5T2x5o0P0sYNoFk2rXp770pejZ+0TsVhnLhw5F64Oy8E+f1nxgwvUgJa6oNvspqS4KcD/d1xsHfuP9mjKwkOkpw/2yELpiZHw0uqUQdkkhVATfADJnl3t7o+XC3SE7JxZuvSVaOcxCFsZLATQQQsJR6vfcc3d88AMf9BeAvp3AO97EZe5LRk3+dMOLVjx6ulVThsuuuMhThpWQdVWmDH5vYwXDDaZQB0shoPTYeFQfO9L54EpG4ZrTrnrPP0qhWaArw1gh6IqQnq0QUCpWCEqLmYk7O3+9AjUfawhej+AP5JQBGfabHO/IWyOFxuO1RaFgH8LJU6fi6cNPRvvyYmzUlAGFkBbCgvp3zk+oWCdiF97mLRtj02YsBKZ/rbYQWLQ7IKXytYZCyFd3c74Oi0NEUpD0PCMHN8BPBhpVzLoDrgteXWsTVGUPcHUZRRlkjwO0M2to7TL/XxG33HJLvO51r4uNGzd6WsCUhqk50Ny23wzcLyw2yC1OTcfoI4/E4mc+E/1ffzi6Nc3nUS7bBGQysSBh0nHP1AKsrZ2tEA7++q/GgnCwn6Xl/vu+toI5wzxu+b3/LC5T59QMFUBCAVQcJLVxDBs3xMpVV8f0tVdH21VXRafuF3p7rDja5c73FIO1CBYlP/jB/xSHNK9kgfGITKW60PhyAx3GWgeCByPSNhZCWVk8j77tFhTCxQ2FAP9aIXhRcVUhYCGwynsuhQAkk9fRvigF/Z9LITifU2d+C/MZSkG4dI9CwOSsCsEmrnv4TGjgUL7qEpgmcS3lyOdb/S4pbJHVfpXBqUKnTh4PPrCGQqhTBhbUUAiT4rlhFIKmAFYIW1hDEA9ZIWAhpEJ4QAqBNxbBvyALQTV1XVe5Utdav+cAZE0cvtMfnYM/cVEjQmsIdcXx9IM8rA+slcndpz5bqz675JJL4nu/923xqle9ygrghQD94K83TU5Gy+hYTB09GifvvTe67rgzdhx6Kvok9BWgrNS64cc9G6A+a+sg16dF/4kP/qYVbOMpAxqMxY5FKYQrxr9RITRD0ceNgishDZBJeFoWxOyll8TgFVdEyJyZXadRQXPHnqZvFr5YoGNY/T5y5Gj84R/8Yezfvz8OHz4cpzQaMRd/uQBhQsCrwMBAXJnT8tjp9te+Mi6/4hIphF61nVpWnATj89IUpwrRdjA133ZkCzaMxGPH2k7ubA1RVQnktbShMqMQ8mkAjL3qSOEpNcmcL2/sRzloNCMPjw+ZizcezfILDvsSan7KZSrEX8KqQgBQhAy7tjzksBCwRHi0eOrYUW+dTguhy3NWFAKvJWMhDGvKQLts2bZJSmGLrYhcQ1gqFsJ+WQgPp4UgvLzGWxkPetOPAEPH8+Mx569X6pl3tKz83PFLmlQE8B1w4YUXxlvf+ta4UgPhq151oxV5QfWcwW0tN6kBeezpI9EqBTAnK3jioUei/4EHYtvwSPSYhoRm9ElRuhcCqJanB/tj6gOpELwx6T5PGTqlECZi5b0/Hpd+E4VwNjQriEpgAyQUw2KAiQsviL6LL9JU48KY2rY12uX6ZUoxGp4PgFmZVtwnTfrEE0/E00eelv++l8VyqKOrhUGQApfKgacMb3ztdXGFFEJLlxQCjKrOt0KQicd0A+ZiYYlty+dWCDBhCiO4a2snI2EVwLaZMpkxhZlUVSEA5CWPrxnrcOMhh/BUIKziARAHl03dnI973+LVf2J0GrVF0oZAqW6ie2J6Jk4cfdoKgUVFK4TFohDUPyiE02Wn4jYWFbduDj6+u7QsC4HzBGamYr+nDOxDYMrAHhbWECgZ2rlWWqAkIdvr/MP3f/8/dj/d/JrXxPXX3+AnQy8EUAInDx6Krn37YvHxx+P01/fEkO63q726mupR+wGo/uen8s4NWAinZCGc/u3fynMa/JThnvtkIXR6rtf6o/8kLpRCeKGFQWytxtmWBDCuRhzftDHapBCWd++KyUsujrhgd2y84AJ/vfh8AR93vVcKgfWGPXv2xKOad+1To78UwHTB89jSUzAhyoBrX29XvOGW6wMLAYWQ35CUoCiPFQKKBIWg6+TkhJUXSrJ5Y1IRtTMc8pqLf5TdzC5Zfl4zNT81zeoVlzRalJyHHjsT19lALGY8SI0fp9v0g4vCpAaKo5yllraYmJmP41LSnbGoGWZaCBz8wWEm0xrxJ8Rzw8Pj0aJ22L5FFsLmTdEu62pBZbEqz4dXD+w/2FAIqEBe14cOaFptA+hCRWQfnG943/t+MTht+S1vfYsfI6Z1+OxtdjYMDw/Hk/ffH10PPxrrnzwci7Jqu58+HAOT09G8ErdaozP95xPAO8xTht/5oKcLbPZruReF0N7hLaTtP/re2PUiFEIzNFeijj3NeGfb22NmjeZZMrNaNGrMXH5ZLNxwffS/8tro37ChpHpxgKBxVtzp06dtOXzmM5+JL37hCyX2/ABl4BqdJY+FQwzJAbVvuOW6uIwpgxSCpH9VIWjKgKlPWhQK20irQuBQkVWFABipblIZVIfwpYWQAuqUxcOvR89mIJ/DwJO9kcmNrLhnA6wZpkWZb1UZ1Fh5ijJAuEnHKRTjM3NWCF0tS7Fp43qfzLygeE77abzLUBTCDlkHqRBkRagAHi9yovaB/Qfiga8/Isbl6Uw+sqTErI+cSYcQU+dp0fmC3/v9/xx8+o+9Amy/p7+fC+Si6YwXE4/t3Rsjn/5sbNn7WHQdOx5t4ss1c/PR0aRQmuWkhpamfUlgQR33JSngXb/+fj/tWVhgynDP/X6XAQ3R/iPvjR1FITSvRp5POJdyYJ651NERKz3d0bp5c0zfeH1M3HJLrL36yugbGiqpXhyweIbQPS7T7FOf/GR84hOfcJ1fLFQLIYVBjn87KYS+3njDa8oaQreU3zMohGoh1EXFaiHAFB6BzBX8yDWUgn+UprCO03ApHsEzj16kYdEy77JXuJFqqdJ9TlhVCKDIema+BJUupD5WjnZRyCIKYXpOUwaNhK0rUggbikJYiTksBI3+o6O5U5HDazhzccsWpgypEBD82alJKYRDUgisIbA9PI8Ca9Dqdkh67FMbvViF8PkvfFbTgjUWlHXr1rus52INkGZUwu4FW/Xn7P1fi42f/2J0ShEsD49Eh5REWxOec8nDywWzqtMnd26LV7z/V2NickrKFwvh7vusEDjPLX7kR2O3tPVLqRCa4Zs2hqyHqVdcHSM3vTrWXPfKWKupxpLmay1ilhfz9IJOY83hIx/5SPzXP/xDCSMvZr2wtQbm/z5UVcJgM1wMCfPgUiFcG5dfeWm09awRk6pFlZ61A08Z5Geej0JAWT2TQuCv4rRCQBrhe37snBASGuDNNiXK+c4A7qtCqDhqbzwbSCE091ZDGRiRQDSi5FCQtItCUiHMykI4HD2qfioETR5U+BwWghTCiBTC6ZMj0SolsZOXm7bwfYduTTdaPa2YVf8wZagKgXI4N9FtQvu4eP24ntzQVs9PxK688kq39ac/86lc4NXoDXyzRXDyzExNxYxG/dkTx2NF8/+Fr94RfVIE644cjc5zPBX4VimBWn6FObXXX+7aFhe///1+ysjWe08Z2IjEOXAr7/mx2K3OgdCXQyE0g/tUULsUaCaeTVKz27fHiKyG7quuijWXXhpzMNf6ddHxIrZa75Up9wVNI+66806vOTC9oJOfK7DKL4m2HyGsjc7GIh5H3X7zK+LKqy6Ptt41ikAhLDUWFW0heA1h5QwLoU4ZrApgeHDC/GJyXylBgY53bCqVCuRxmuKaFUL6cakQvP5hHKv5nwlcEnUwh3BH6TW/fnVBIbQqzApBZS23tMfY1GwcO/xU9LTLQti00U8QeAoxJ8XYUAgnRpyXbzswZaBPrRB4HCaBO7iPNYSHgkNTKbEuKtaygepDTz2TheBFYNHGNBlgMHzjG98Q/89v/ZatSLYOPxfgjIPpkyejbd+BOPbQQ3Hq45+IC2QBbFH+dhpC0KBHDj+utv7LCbVc2q25VZgy3CkLYeuv/6qtNNZlioXQ5g6KH/qR2FEUAs1N17/cxANnNyRwBh2ak81rFJm47JLoueLy6Lj0kpjevi06Nm2KbgnTC4GnDx+OO6UUPi/l8NWvfMWM81ygHnQB5K8olYdn1Ly99sZbrkuFIAsBAUmFwNFdYmyZ1TAuiqRaKVUhVCGuIp8LlUUh4JriABTCGXNbLASlqni4ZD57VGZRCGKTnPKAKbGV6hiynAJGwjuUqRCc1/lLCl1QBEwqsCX8K4XASzrHDj8phcBueCkEhF15vIYwOyOFMGGFwDQj1xA2RjtKQxaVn4/LnD0gwasKgdJSISTUVuCX+kHOuUZ26ETo+9bQxmvjH37f93l+/5P//J+fge+ZYExTgZGnnoqNh56MpaPHYvSRR2Pg7ntjgAX5kgYacNlClaZ0LxdQJtDcd+cqH4Xw0I6tMfCbvxbDI6M+WbrlnjvvWcH85jNtK+96T2xXxLdaITTD2ZXDndHVHR2xqDmnFcLWrdF+0UUxfPEF0XXxxX60+XyBDTD33ntv/Idf+ZXntMaAQkBOGOUBMyRXBXJg5ptfd31cJavG5yFQCwnM8jKvpIqxJQAwLuLIdxkoj63LPNKy8MrB3DA86VAKXAkHVV5Jw7pEKoQzhLPQQRrja9zTggU3CorRXI5MJZVcAj7Tjd95Vy0E8vhJh2qQyKQqdPVKf0sqBLYfT07Px7GnDkVvR4vfU/AaAvsQUAhzvMswGadOjvrEpcZTBs5DEJ28JoyFwJTh/q89FBxlTg39QhF14kZlcgHsgw6mZ+cAnmb963/zr10XNhBt0cCCVeC6FWAwQHGgLO740l9Gy8iwF9t79u2PiUOHYoMUQq+mFa1NChhfxQAtZ/DoywC1/tlfCas1yrBmuqB3UXV+Su3d9sHfTIXAeQj3SiH4OOdOmVDvfHds+TZTCGcDlaqVbq6gQcKypNF1RtOIdr4zeOUVXn8YuP6657XmADPs2/d4fOADH4w7NB98NsWwzMnNDYAyOYRCf7y6ikK48qor/C4DPIcQoRCwEFIhtDUUAivSPNNuVgjgQ8itEIoyqM6KXJZIVQj1MRguc66mBeqVMr0xCSWCQhAdqRBKHv2dC4yrlXbEuqBMlAmWVMm7rHjwVIUgwUSBTKEQnjwYvV1tsUXCzrF486KVF9f4HuOYhO30KRTCYmyvTxmkEPyUwQphMvZrypAKIefkHC7i+sAEBVAGrrnCmhUCVtc/+kf/MN72997m8PXrN6j9F72bdKgsWtO2AIeScBLX4fvui9Yv/mVseGBPtKv/1yq8b1Zlqt4VqhLAEcr15QTKxFUZOJuGZ4uH9iW13ylNu+d/5wNx6vSwF7pb7r3jzhWsAw5yiHe8OzbJLCLTt6tCOBdQ0WTJpNmgyq7Ieljq6422zZtj6fbbYvyWm2Pw2mtLgmcGBAtmY+GRZ7M/+IM/GMePHS+xZ0K1EBAQWos/C6QCOTr7zbfeEFdJIfixI42JQihTBpvqYkTOOGBRkfl0VQgNS8DAlVFP2BWGc3zbapqqCJKOmqPmT6hpfeqSHGk5Qs2nN7kVE+pbnhVXBaYsrXwjU3jTIiEfCqGU2VAIUgYohaIQpqUQjqIQOlsl7JutyFg/SIXAy01TcUoKgWPs+fbjVn80ttsjGO/6oxD2acpw//2rCoFwqgeJtZbUoZLcrBC2ynL8+Mc/pljopr+wtlq86/GRRx6JG2+8Me6+++547MN/GpcdORI3jWg+zSAgy6QLXih4gG+1XMDnVHG1dmcCcaR5pvhmYMowtmF9TP3n346TJ0+p/TVAiTuyUcVg+XnN7zygc2iA2gjUgjlqi7R6uyyeeHRvtP/278a69/yTaL3tjbHyT38ynvy134iDH/+LmJEZOHfqdCzJBAUwRavAYV5u2rTZ+xee2PdE3P6G2y2wVbAAC50FqIofAkGDllEab8EHk9pJkFk0xNWR6VyQAl5uVKsq8DhbBBrlGEFxdbpAWWe7CjUv5wj4Ax3KpwD3fU2n20a6sx2PWP0Kr8tbVQTfCKVMNwDtgpKsAcKlP6YpaZ3kgS31tV/KMdS8dtzyl+GE+d0R7isNeaNLbh2nn97whjfEwUMH4vNf+HwcfvqIR3/2EbBD8Pj+/fG1T34yDv3xh+KeN781LvuJfxk//MW/itfufSLaT5yIbqXpLsqgeTUJ+6gU9bIBAl5pgFvOFnZaoMZD23NRBgC4vIFLCGq7t/2T9773l2hgf5zjTz4SXdKMIIUIMrzclT8fAM1VzKhmrQvAR1ZaNQoMyhQckknYqVHh4N/8jT9G0z0xGQeOHY0BjWLNJ0c99dRhMetKvP3tbxfyFpmZg3Hi+AkzGNhhcAAWTV/6OWrrwl1bY4PMMr4tacIkCJ63I1DuBOUWgeBC2Fj1pi9WBVmYin81LIFOrO8wEJUWRAo3f2cD6ZzHQlhoVrLEe+a9/xzeBEoiuTUObprzmQZdncMewsHBtwmWY1zzcL7T4QVTKSBefEIJsBORhUIe9WGp9K/N4/X5ihFTKZQQynp0ZCyOHD2he0LV6pr30+4uyvQmrFu/Pt705jfFd/+dvxM/9/M/H0ePHnN9l2XuLzz9dKx8fU8c+POPxdTv/Oe46tOfjRsPPhk7Vb4mdKUmST48A+CvvPNSQy2/GVw/uWZ+5r6Z1hdKI1OGFSnO6be/zWchMFC0/VMpBCI5GrvrQ3+i+RInHGeBL1dDvJRwdmPVBgXodPzrZUX0fvXOaJViaBPjdeu+ZXJCGTXP7uTg1hYfBY/Q3nDDDfGWt7zFX+JhOzSmPjgS56oQceW11At3bokNMss0L7PwemQUk+cLTigT0aRwFsv4XiAfRcE1vxtRIb1ZRoavxuUUo2nRsUAKb15XXcULHl8MhNWFy4qn2ZHO0wCnTbwp+JmXqYZjbRYRrvvWdtUrFQJfUKoKgVOXWYdF4OfmORdhTh2yHANnKQQLsxQCJy8dtULIUZtwFUppLpvStmhq8BM/8RPxL/7lv4pXamo4cvJknLzv/uj6yldi7FOfiZZPfTrWfOR/xu6HHoltUkCy9bL9wVGuAP7qXmqoZVaotDSXfzZ9QHP8CwEsimW126LaeubvfW9uCUfZ3nvn3Ssw6uDgUHT/43dIGHINgQzP1fT4TgUUQlUWzX4N7RE7d0Ts3h3L69fF0kB/LHd0xlGZ+hOcHHXJJbFh62Y/phwbHYnf//3f9xFfRdLcUzBpT1dPvOmWV8aVV18dLR09schHBiQIfiRX5u4s2vOm4YTm0RyFze64vj7WGxgBU2EYZ8FtwcsCFCaKSxj7HurcuIIVj3A7qfKjgDKafLW2xOcxZFgYViBKBB5GYITZaRRnq2KFtYfMZ6e8KVZ4yZ90p1JoEyp2wS7Ek/sfj7U9nV5D4NRo1g94yjCjAWhsYjpOnx6TJTAX27dsjs2bNvmMjSX1g08DmpmJffsPxb337fGGIdoLawo6offCiy6Id7/7h83Dr7355nj6wYdi4MCh6HvkkRh/ZG8M7j8Q3SiQJqj9XWpxxqDxUkMtc7WnEup9czzuXGmfL1Sc1HOutSvuXnt9PNJ7ebQO9cWb//2b/I7FwiJPGe64a4X59uDQUNz3H/5jxL0r8YbTX462Fc0TC4IXS8x3AjQ3+jcoQ5nwKAm+AjE7OBDdYtijl1wUbTffFLtuuTmeOHQw/u373hd7H9srHBZXCxAHpLxRCuHqV7xCctQl5p+RZaB5rIQX14owqYFZxEQhIDiMoA2FwPQCCcYVQbVC4J5S2Bkpf/Novgo5NUBgariF3aBCUQAq3MpJ4W1KAh4/grQ/8/B8Hp8VgpSD7B6HoywQK66ZUmnEMKkQpOycSa2IQphZlEJ4Itb0tPttxtYOKQRZBXyteG520Z+En5qcJrMPI2XREcurU1Yr0zPa57HHD8b99z8oRcL+DSkJLy62xPXXXx8/9o4fiIm//HK8SspqiB2fwyPReep0dHN6UIGkdrVfm/v75QDKO7vMZv+54oEXQ2PFWZXdeHt//Ndd74kF9cnetgviROfG6O2J+OVfbI/RsTFN3Wai5e6v3rGCacwJN7/y/qdi/Ghn7Fo5GT/9xH+M/gWZzgUZjYn/xRD4nQLNHfNMq8oLGsGWe7qjY2AgHpIK+dOjT8cXZzTSlXgEirWAN91yXVx1zTWxIGadnuHI+QWZzqwTdKRCkIPBx8enUyFgIazhEWXOkSk55TmvDWWgK/PzDJcjrEAd5bMmqXDwItSkTbNfisSLmopCcWgKQxxfFgYVioFUVirGQjp+a2sw9SCgEWsmsRKj1ZREjKXwtBAOPvF49Ekh7NAUig8DoWj4xPn83HJMSyHkWYmt3ofB6dNPa76/RubsBRdcIL3SGo89gULIfQjQ1K/8r9d05K29a+KW/oGYPHkq+kR/3SUI4Pt2UQLnKhfacLRSFdoXC2fX+Uj3tviNS37GfraRH2rZbL9P7xZUhTAt3p2YGIuWu77y1ZXWjvzgxi/+Mt/Ld7rob+cjlaBP+Kl9/zG2zR6xf60URYcsiJezcb8dAMuBjnu2ej+kEfKAmPITap+nJPivuvX6uASFoJxTfINiUQqBL/t0d0oA1L4SIAQWhTAzPW8LYW1/nwpJC0Fia0EFLPjFQQXmeI2rgDKwawpHuOEUBA5IQU1zW7Jm8ONCAU9AoMlKRVCvKogf523EgdT5dCV6WfFWIKK97kOwQliUQnhMCqEjduxAIbT5g6NY/SgE1g/YpUldUAicDfHUU0/5nY6LLr4IwuPRx/bH/ZoytMkyuFjF/cBiS3w3C7VnAZQ1C8TLDbX8Z+IT4mp8afoXDJRFGVznWjpiqmOA4NjXe3H89oU/aT+nKU8sNr9YfSZwbOr//W85En4xTp0+GS1f/fKXVzo0121p6zhDIZwNfSiI4v/Rp343Ns3lc/ntM09G39J0g7BzNcLfRqBTqeuz1XtCgXfeem0cufZqb+H1Ue2Lc9EhgeCT3tLBgnzkxm69mek5b6nt7+e9B0b1VAgIo8viimD6H0XBkwvdWICFST9WBppjQx90AQ1FoDjj4NGnRtdMiw2Ux98D+fRD5SqP0ysMPJlXeEx0hp5ZivxLbFrmD+uGRUNoa5NCWJZC2Btrezti2w72IfDkQQpBRaMsqHfd/MUmIpQDh9ugEHZfsNt1PPTYgRi+94F4zfxyvFlTpQtNQ4LpS++LFrLnA5RZqWjmhwpnxwMvlr5aT2C8fU0c7d7hMp7s2R3/ffsPOi+XcRYAAEAQSURBVBwlML30jcryXFAVAv177NiRaPnKX35JCqFX87queN//xae1SspngZ62/K4e8PbjH41t82k5XDbxSKyf50MUq4Q3N9DfVjgXMwDMcv/mddfEoWuvilD7Lmq6wNMFBuF2TdqZv7P4xsLf+PiUv82AQhgYWKtwFh15G1KJhZjUDYUg8ONFjYPqR5vQ1WFt2K94FATKgKkL4ZzIBLAzlReM2Jq7MD9rYWQNIXGvaErDZ/faLZiMHOAgzlMMXgoinehenTKU3pZCwL9SrBsUAudIYgUceDwVAl9l4gBaXqbjm5AzMws+T5JNYNC9bt067yGom7QGhwZ9slLro/vi+rv2xKXSV/Mqe7NwZ0u8vECNq1Cfq99piXr/THzxfKHKEjDSPhj7+i6Jsa518VT3zvjC0BsdjhKYW37+dlFVCMCRI4ej7T0/9EO/xFdjYJIvfHnZWvubwaI09MJyusfWXB73DLwq7u5/dZzu3hRP9l0UD/VfG71LUzG0kE8saBjgxTbMtyucq9OpMxbCoe3rYmYLL+v0SBAkaFIMPBEQ98uVBTv9cbAmjzX58hXTCcsmP+gD5v4gFWegABwoBgCFTXSeJCCIimT7L64eT8aZie1tnR6R+TqUD8JQPBhRNmxQ8uu+KpvdfyiOTgk9uDgFms/TMe5DszdSSZir4oCYaiUQhH6w0mIqRDylyIrB6BiROdrBPoS1bMum+rkXYmGer17N+eUu6o+FwIYwzifET92hd/3J0bjm8PHgXK1+U59Qry8lUEOg1PqMsnHN8Wdfq//5gLu4QM1/QHL12c3fE3cN3ByfHXpz3DF4SzzefZGVACdLLfHE6QVAhwyJN9+e29j5lH3Llz/3+ZWOzq7o6O2LRx6L+IP/sSRmKqmfJ7Rr3lgth0vn9sXmhVP2v+nkZ+IKWQ+1crXCL6SxvlMAJjmhCt7z2mti/IZXqH3XatTWiK5aM21Ynp+SWpewKQ1pGSERirQQBlLAitO/n+JZGTiQKwH5mJFHhjn116gsgWY7MoePjExwTiMC3ht8sZkzBJgSILA85ZCnoEKZSNErL2NMn5RSV2ebpjZ82px9EeyqZMFR3COlhnUCA3FWAQoEklAuK2xdVv5oTSvFaxWa287JQti/95Ho7WmPrds22UJgsxIWwrQsBB+QMjwiGpZjO1uXt2z1uwxMi3i8yDseOx49EN919wPRBcEC6KTdnv+Y+NyA9aKKmyJdryYoZDj8XPHPFyo+oOL8+sB18dfrb3fY8Y4N8XjXxbYEcOcDeH3ph9/REVdcpr5XX544eQyF8NkVRq7O3jXBbrpnW0d4PuAV9OLfvnw8hpYn7P/u438RNw9/1X6gatcXpt++fQGGOqUGuOuW62Pixqujs6/P6wh09OLCrHTBlGYF8w3BX1UIa4pCYMwnTu0oj+81olrQ5JgwdPJFII3aKASEmleraUdG1XkphRMnh2N4dDqWFtgZqBGZoVpxfD+Qj8GSxWsFEub8cIrideWDoDwFGRzsi40bh6wQeP+Chxqtbd2eOpAHpTM/Ny+lIEVEuaqIF6KlcLyeYWpyUfHAE49HDy83bd3kRcU8ZJUnDAsxMjYhOvn682Ls2r41tm3b4RegFv0pt4WYm5qKXSiEe/dIIYA3+aVezxd8MyXgOhZ3vuBs/v/ShjfGX218k/2nWwbiaFu+sQs99cnAi4Whwbb4hZ/d4rbt6sxP6GGdnT51Mlru+MLnpNjbor27L9qwFDrWxq/8+kQcOSrzsVL7IqG5Gv0tM9HbknPZN5z6vNwX7e9d0pxRDjifnfytAphrTBW/75brYvhVr4g2KwR2K0ohaN6OQqgWwjMqBEus2kN+FAEdiAXQyaKk5tdML3LKkHP2VMIIpebZChsZmYjxyVnlC59duGChlkIQ2g5SSrD91qNoZR2DfUdtopFDdzHvsQ7WrxsU07AAqbmkOobFZxYkcex0Qxlg0nO4xoI3MbEgCd2i31ZDm/caHNz3hPC0SiFo+iQ7tSqEmRkxoug8NXw6VkTorh3bYsf2nbIQuq1A2SwzOzkW2x56It58395YqzZR9exeKIi6Rn5myPifydKgH+HHF1Pe2QDO6ba+mG/r8f1Ht/x9WQKvt39WSnD2OS4IfjNoVx8i/MD6de3xy+/baj8AP/FCE4oAPpuaEq+MjUXLVz77afWb5oZSCO3dfEYsTdaf/JnDcfLUc1hQeBHQJdOyszW1zq3DfxW3DX/ZftYeNpSnGHQGHQicz055qQGaJ0Xwfa+5Ko7f8MpoWdNfpgxNFoIUguTGCmFifMKbcVAI9QRq6wMJFbbCwoKmGRK8DpnbjN4d7WkZ5AdCFzzi8/VgP1FQRkboOc3P/S0Ilet1goUZmesy/SX8EmlNAxDunMZAFwJMWLsUDYqHJxAIb4dwMlvw+x3C5UVGFAkCr4z0oNccJPjQAstTp3xEySEnPGV4QoqmJbaerRBkIZwaHfPXnVYk/Lt3bI+du3ZFV/cazYg6xLBi1vHRuPDhPfHmex/zoaTQCi88kxCfC8hTAXrJ3zzw1HjCkyPPjH8hUOkEwHmse2tMtOejwc9tfEvcPXCT/awDzEsRnA/o622NC3blF6K2bO6IH//RbzywmL5iwRiFwMCDchgbGxH/jWvK8OlPrfDsuaNnjQ/x4NVb3hH/r3+kBJPosog77pqK2bnmJj3/0Cnl0OHFqIhrJ/bEa0f/xv5Ncyfi4snH3Li1yZob+tsVoBHRuOuWK+LpG66VCTQgBs8pw9I3KIR8/flshaB+shnOq9JLywvFMuhMq0IWQJsEhs+fLUpRIBws/KEPcmEPYZSS6OiW6/TJRAtLs/JL6OFOdS3KAMG2XSHhFgKH5WPBRS8qMlWg3VlQxNRnXs8CNErBaPSTuyk17VhiAZCXtOa8TTsPZJXwS/Cf3L8/2ttW/O3GDlkcWBNpISzE6dFxTW9OxbLaBYWwa9fu6OphzYWzPiUwEyNx+cNfjzfc85hKzLZFLbR/Ey4gHUAqaAWaxS7xZNi54l8InF3m3rVXxUjnOod9cd0bY2/f5fajAFiUP18wONAW113bE9u3dsTff9uzf9IAhYA1OipFTD+yDsQehJlpFhU//Unxg8xIWQgsfPGSEy/jwFQVPvHpsZiazib77BcmYnQsFcVLBSxOdhTL4YKZQ3HTxN32A1tmj8arRu50xzV36LcbYFtRgztvuSoO33httPf1p0JQZ8D4iwuaHkkh5HgnC2FiUtMGpgx9MTDIKKIY3ghc5EDWeZnbnf7OQ6cEmukBTxZapRC4+mAL4WV3JAoBhYHQolDa27usEOYoc2kuRIK3GC9LeFOeMO1ZNJR42epIHDyV4HEkZrxUgHH7KYP4wq9w22RgcVHVUBWYCrW0dllxzczyXgYfVEHZMMovxeGD+4Wbrzvz3cZOKYQlhaMQFmN4bEIWwslYmpuJnVYIaSEsyrpge3PL2Im4Ys+euPnBwyGd4haD9LP7PVsygfh672oWSK7KvMTjXiz/VJy1nC9s/K442bXZ93etvTGOdebuQBTA+VoQBHbt7Iw3vX6t/evXtcVrXv3cPh/XrBAATko6ceK4pw8tX/7UJxUtxmFOumZIZl2HT6yx6XkOeOiR2ZguyuGP/mQ4nnz6BT6SeI7AvLidhaoC6xdH4srZHCm2zxyO/+XonzY6/3x07vmCGVGj5o37b7oijr762uhYOyQlKwGRBC0tSjjnpyU8qRCgf2J82gqhTwphSAqBzT2LPAZUJzEV6O+Xwpap7dHfOTRaS0BRCDbTZTHQZ97fYKFNcx5Bx9Tn8SLCiiGA9OZLT8JjxZ9TDRRCOxaCcIATsxJ6GyUKT5sQeIrZrukGSkeFYE2gFFpb+XrjsvfE8+FQfwNRdKIQnjp4QKWsxLbtmzTlkULgPQYphOnZXFTEfEVR7pJC2L07LQQep83JQmgdPhFXfv2+ePVDh00H3McsG/8qZzyzEiCMPFhR54p/IQAeXMVz79rrY8/QDTHdvib2dF8ZY+39Dl+UAjhfi4HANVd1x/e8Jacdg4NtcenFXfY/H8jp3WycOpUHCk9PT8XwyGn1ifjjr6QQSITG7+pfb+bhi7V0WrOVcC44dpxn3dnEv//fT1tZvNQARXVLdd/yTFy4/LT9F0wdiHc9+V8aTIH7VioHPm4+r/Z78MZL4/irZCEMrBPdshAkYMuLcxr5UAhs11ViEcvGJNxaTxn6LbzzMvOZRfWv7YueXvUHiBFI4WEuj0LIpwOSGpl9fmHKI3xewc0eE4R2wQph2XFMN9AWmcZYM4/wtaNAhBuFMC/LxFpFBGKVeNpAq7Zp2tIhRhRuFBpnIbLfwe9WCA9PMzgaje82MqWYn1uIpw4hzCuxXRZCd1EIs+yNsEKYitNizmVNNXbt2JoKobdP0w6OW5eFNHE6Lt3zYNx670HTCtC3Sfm54WwewP9s6Z8LnI3zC4O3x70bXxsz7b1xdGUoRtsHYkl9kxuyzh/c9tq+ePv35DRgTV9rbFiPOnxxgDVw/PgJK4TR0eEYnxjXQCWF8MW/+PgKz5Dp7E6ZtW1eWOzXiLT6fcHnAnNSDBx6Afz2752Kr+9Z3fI4N88ocj6baBVqJ4vFYl3rlP1b5o7Gjx/4LcexR39gYdijAwAVL5YxnguMqKQZCdteKYQTUggt/SgEUWELYU4CIYWwMm+hFIn+etHkxLTXEPoH1kiIZnwwyFoJxuCgzELv/mNU92qBTWk+g0Zl1sqqyLP+JOS6txVRKsmJ2iwa2fxXGvqZAmHZZmVAONahaRTLL7IWgEJQOuaYXEkjtaHoDjF+W4xPTit0JQY5pg5UWA5SKCgFjk/nq8+8rjw9PROHnzxi5bZ966bo6e6K+aVFKYTlmJyd1xR0OkZOj8gamvV3GXbv3hndvb22EOYXxDsTo3Hxgw/Hbfc84UNcgXNxZrbAueNeKFScYx3rchFV/l+7+GditGMoRpZ6pPQ7FXZ+FAALgr1yQLMS4IlPZ2fp0PME9MuJEyfMG8ePH7U1SD+3fP5jUggeVVp89HW3GJdv77GOYOY5D/BnHx+Nr309FcSxEwtxevilXYPAguhryyckA4uj8RMHf8t+HrBdOPlYQzkAdOT5beqEMWGWvo2Hbr48jtzwimjTlEFi55EWC2FVIdja97sMkxIwDmbt6xOjzc9Et+b+6wYHNaK222IAbGVIUCampuLYyZMWYubdPGVgWzTTCoCOBlhoZHrgOb0qyzc4rAwUh0Kg32kB+prtyixGMsJRnqciysRmJgSf6QRuWQphWqP+Ec6ZVNzO7dt8wjTWixWCULLvYcbKYNrz1aekEFpEB4eoohAWlM8Wwsy8LISiEDRl4LsMKISunl61jxTfopTTxGRc8uCeeP3dD7u/oIVaAHl/fpRAMy/QevvXXKaJW2L+wAU/qWlACujkEn1QU7444EnA+qHkyNtvWxNvvE3K/yUGeGNkZNR9wzTh5EnWD4pC+NzHPiYLIRmDzuzbsFmM0urPacEg5xv++quT8cCDqRwOHpqPg08yCr10wOvFvW2pgLpkor/n6d+zv31lKW4a/qqfCVcFARO8GMZqZijNvoWvJe5+3VVx+Ppror13YNVCWEqFwOnLDNJs4bVCkIXQ09MtYegQsqUY7O+PQVlr7AHgaQJ9hIXAlIHDVMamJi3IQwP9tgy8YakIONYA4CmC/D4/QFGk97cT5E9LImsMHbY+GAUVSXlmEPCKFmrH9KPd8R0xL3N+fGJKcctiaFmWCk8Fg0LJunMgKkyH9fMkUwYphB2yEHpVx3nRWhXCqKYMw1IIrCGgEHbtkkKQZYQwzkmvL46Px+VMGe7hvIkz2/nFQnOfU8s719+aN4Lf2/4eHyYCTC+hzM9PqVdc1i1FkLJ16y1r4pXX5H6ElwuYLnjNRn3Am6UjI6dXFcJnP4pCEKOoI60Q1m9UC7XZQjj7QNHzDQ89MhMPPZrrDqw/PFz8LyXwYhbQoRHwH5z6c/uBtx/9szOYAz81fz61P1shsP3q7ttfEceuuzo6uyW0zRbC4owVgqRTUwi+BzgeE1IIXRo9e3o6ZSK2x3pZB72y1jDfUQrsQMy9A53y83EdtgcLNNpSLk8IkgouWAa5ZgCkcKfAOr2S1r7NqUiuJ/DEQVlzrUPpUDAscKJf/AQCvKRpk6BYmaz4rEQV0MBjpaIrTyp4z3749GgcPPhUsRA2yTTm9CgpBFkRthBGUQjDDQth164d0d3TF4sqh9OZF8ZH4rI9D8fr7t7n/oHqrNXzB1oHV/Pz2vCnt3xvuYv40KZ/VHwRM+dpgxDw6ht644LduT/gphv6Gv6XG+CJ8bLnhf46ffqU32FAIRDX8rk//xj7Uazh+TZD19pB71hkLwIn91SmeakBSwGLAcCCwJJ4qYGNURXeMval4ot451N/EO0S1so0pKqM+GwAo9U0am4/ZXjg9lfGieuuig4xuETOncDizcIiZ9gt6J41heUYHZ3wU4ZOTRP6+rpjzZoeP21oZ4TXaB1FIfAVYisEKe8UfRnQmiogsX5pCgIUwTTBCsGCzqiNn1EcfSDhtVJIaqGpriP47EeFE+/3HkiPhWD8si6kKW1GQ4eUE+Z7q3C3l6KNj/y6gwZesDp1atgfa0Vp8CEWnqSwwIlCmMRCkELwoqIUJQph587t0d27xgt0c0ozPzEalz7wcLz27r225ugL3HMF2qkqePLNqv3+x853yyfrQ/X9Yv9t9gMv5I3BZ4LveUt/XHhBWhhXXNbl6cG3GhYXF+PEiZMeIOCPo0ePeMGZ9aJUCLIQ6HS0v99pkInKWkIqhPxgyMsN4xNLMTySwnrPfdPxxx9hv/VLC21NjzavXNwvxoOFIv7VE7/6nE+OalYIWAeot/tuuz6OXX9ldPT2Ohzzm7k5zmcPYCGoc8ZGJm0lYKmtXdsbQ+sGfC4CgtqKMkCgGaHbO6QYNLrIQnBpUgbE26yXwNNqCGOl0fQUompfLrO/gbIBEY1CYHqIwMMUCHmNJI8PhuVxgRClUmHxMB8/rqCwUChKB+3SJMZhvArjparTmg489tgTsSTG27F1i+rHEwSmDMsxURTCSJNC2FEUAmsVc0uaNmhqctEDe+I1d33dCoEveZYqPSNQg2YlMNoxGL9+yc/4HoX2SPtF8iWcz70BwI//yIa4+KKu2LShvbFI+O0A9BMLvJyfSAuxrnT8+PEGPzI4tXzuYx+3QoDZOLO+a81AtFkhDH7LFEIz8HSCpxQVeHrBUwwAHuXwjfMNzTXe3Dq2qhz2/WpsLadGdS+zSCchlf9cLYQyYHJy923XxdHrr4rOcyoEhJwROKcMp0+qo+Qf0px846b13qRE+7dIeFtZQ2DjkB/3yTrAbJewsd0XheDSEFAWHSW0fq9BuM4FS1gPajwLrqBaB1xZO6hhzcDIsrzMlKNd5UkBIFZSIigovsHICjx/Lcrv49gQSWhU3PDoeDzy8KMxOz0ZO7dJIUjRQcOMphQTM3MxNjothTCsulSFoClDnxSCWp7FyWmZt1v3PBS33PlwrFV78C7GucSM2jJ5WpDCpH1G2wfjzza9PR4deqWVwPHlfH4PnLtlnh/0dKvGhZCf+olNceklaQ10dzG1+9bKzbmA/h4dHfU2dpTD2PhojI/xCTdZrOWsyoaFkAqhXVOGISsEts9Whvx2BaYY7H8A2En5Ui9QPtOpUcCOmSejp5wchZO+FUO3xF1SCE9bIeTCEQqB8+9TwBjVs6NGhsfj1IlTzrtx47rgg6fdvRoLpXTYLbiytOCDTupLP5InjaiKW5qPTg2bLO77qS9bERFNFEkT28MA9Yopn+WLQqVDGXi64DRpFTD9aM7DuweoAUmaHw/Kboge1alFVuUy05cVqQjRyfpEB41EOcKDghqbmIxHH94b05MTsX3b5mIhaDrhfQiLUgiyEPjqtpTbjqIQeqQQeJbANyBnJsZi155H4rY7H/GGJKDOwJNizffbeuNwz6441b4+vjB0e+wbuNJqfOpZjg97IcBGoM6OlAneE/h2mAY8V6DPT548qWuu95w4cUwD6ozDV9cQPvrn6mLxpVQdz6xRCLzklO/l93/DSPHtCk8fWYg/+8So/ZOTy3HP/fnm5EsFzadGAc0nR3H2Q+/CuKYNS3Hfra+M49cxZZDwKP03KoQcrYeLQuDx4datm2PT5g3e4stcfpE9CRIWvgXR2cPZBq0WKF49ZjNPXzcnIPF+gPDJzGbqgPneRJ4ZoF5TwMtZBvLz6BIlgJ+rpymqHIqjAnG8m8D6w4wEmynWgKaVLcVCYA/K3MyMFUJfT35XgtGdBUieRux97HGN9ONeQ+C7C4vC50XF2QVNl3LKsLKkKYUsiKoQ/Laj0sxKIezY83DcdsfDfktThor3BexfcxX6yXCkc1t8dPPbZXm0xOx5XAcAeBJQH7j90A+sE/3nF//LBew1YP0AoP+PHn1a17RW2ZfQsBBg7FzBbhPDrYmOvrXR1d0d69evc9h3GvCuxWe+MG4/26w/8en0v5TAy1l1HeJ1Y1+J/rnRmFnQdOM6KY+rBqOjh8+CFIUgs9oKgTkbawgafVmJP3b0hPcJ7Nq1LTZv2WhBZW8Bpjajsr+dIUFZkPAtaCo1o/ng3MxE9Pf1RG9flw9AifIEwgZ8ERbJHr/2A/kpt3ztFaWAZbj6iLkqhHxKAaAcCGd/Aq85T42NeEqyYdNGWwhMMuZFz5QsAUZ5dlZ2ivaGQpicjr17H7NC2CaFwKa3BeHOx44LMluZMqAQsBA2x44dO6JXAxJ5eQlqdnI8Lnjw0bjpjidUVkuMdAzFn2z6vtgzdLMUQlaSdYD586gI/v7bBtT+iZuXhapV8J0K9CX7QcbG8qg6HjeOjo6o//OUrCYLIfchaFCx8PORzU6mDWIQ3mn4TlQIzcAawx13p7XA3vnf/YPVs/pfKuDlLDWtRvcTccPFD8bFF05HBxt3CKsWgjqisagopj99aiSOPH3UwnfhBbtim0znjs5Om+FT42NekNuwYWP0rFkj4cs3Bac0t56eGosNQwOxZm1PTM9qyqQpgxf9WPxLcs6CXExitABQTCgDTjvGOmBq4P0GZYNTtRqAVAgS4BG14cqiv5TUpinMnCwJRvLxkdGYl5WwbrDfew2YwiyLHr678Ogje2NSc1YsBBRCWggohMUmhTDnKQUWQt+afBmMHZmzU+PRuXcsFh7qj9MdG2KuvT/uW3uDaTqf8JPvzcNIgFtv6VO7fGcrgWbg3IqRkRGfPkWfTk5Pq201FRUPenIpZeC+9mNH9sCLMRkVOju7omtogyIjNmkE4CDOyhDf6aA6x5OHz1xn+Ln35bsQLwV0tB6L6y/aExftnvM0zKOsOoZdgLzYtMTbjrISaGw277DiS7vv2LE9tm3bKqHs8kg+rhF5XtbAxk08slursEUptzkvCPFNPnb/Mb2bmpkWTiEoI7w7GoSUrC7040c1wozSsT8AawSFQNqhwUH3MxuePDBohAfIX3EIsc9YHDmleaimKlu2bpFF2efXvGeVz1//EcNtXD/kaQGksIbABqUD+w/EpEz/jRvW+XF2fcrAy01jYxqtvKg4b4Wwfef26Fubr4ujEOalEJ4+NBh7DtzsBUP2c7CI+WKBRcH/s+nQkHqOwN9GwApgusBhNvixLpl6wSNAMW6LVakOT6EXA+l3kbmgwng5ZZUZvvNBfO9Ob3a//592NxwvjbCfHHdedCCtLDzZgjQ9TJztTPsaStuz0LZ9+9bYuXObhHutzyQghfSHn7JMyboZnZiRmcdx7bOaRszGzBRrC3k24ewcz5WFX4KCdWDUKoalQDYw8XUuf09R9ysSeISN+X97V5eZJBeVWVxMZUK/ozzqOgM0sh+B+SaHsU5PMKqP5jRBI838jKwO0YSC4T0G6M5GXNKg0qrBZYOmQZujh6ctCjdfCV/wVEOjFJaT2wJxlxKxOsvm87SArw3Nt7I9mpOanp8ygIzarzt3rPb5f/q1nWfwwt9moB/pG9qdz+eptWUV0N4JPGqGP9p++B3v+CUYLz/QIWbQFUZgcxIdhCkJgAyAWf42AXPD6t72dwY8X8TteWjWb5Zx8MTkFI/oSobnAe2tM7F16EQM9GvUZf+AGJkO8W5FmdyeMqgjEDbMdqwxRmb8TNnYKotSHtOUgY9xWijLQh+Lewus6uNHUDUNIR7BTuElXOIvT7Nw49iHAA0cwcbbjcMa8UWGz1zgoFXMS/LU9BZeAQuHUxosRofH1CaahokX8lwEXrZaXZfgrUno5zBVHr/BdK261q9Cga4++mRKRL4Z4aNOA2v7Y3Aw36dRLtd3YXEuhkda4vjpddJ3WKzPjQd5IWjn9k5NwTrjV//9Dvfrd7+5v9HfdY3gbzsgu2NjY77CGxynB5/UczUBLsh22w/9wDt+SeHuKBJjLmIWdsjERQZ4DZrHFMw/YKq/TVOIZ4M3vn5tvPVN/XYsTG7b2uHtpqdOMwKWVvwm0NY2E1vWnYjB/nkJBEebY4EhnBIyntd7ZEyFUIVuFXI+PzM7G2OjYzE1OaWRPxf85gnTdIGFIeZ+9F1uPc9+8WNFCRsLgDAB/edPp81x1DvXfOloSWGUPXzylOeWKAemHNCHUiBvQ4monAUVxfZq3qPnW4wdnd3BR1mnpLTYDz/FF7OVF1psbehqBaAwFBb4KoCPcqCL6ca0rB2OiOuXQuAIvw6OBBZtKA5OYBoeaYsTpzdKIaBYn/lRHwr8NTfl1uDrr+2Nn/7nm+K2164psf//A9qZvuUAHoAdoqwDpRVZ5FiXFGnJ/xkKAXNNHUkGjmZH+/uZpTpuUqMUXyZGc798CoGRrHi/hcDLJ+xFx/X0tMTFF3bF1Vd0xclTS1YWzwStLbOyEI6LyeckrDnie9SWwWandk3dnFDn7lgInu+rRxBMXl1mFZg4tjajPGZ4Uw3F3ZELgt3d2S+1vSRHhhpmS0OjBG8VomAmxietGLz0CJNIUaBc2lUGSofH0Fyrgx6YiaPXOVoN4UZosXxml+ZjcmLc5zegCHhBizcavZWa+ooAKwDVBWJsGUhB4HwuAgpKFsKScLIWwsdZWFCFI73RSBbC6EhnnBjdrXZc8w38t3FDe3zvd/fH1Vd2xy2v7ovv/wdDcdONfXHNVS/vS0PfjoAy58lCtfSYLnCtzm3Jv3gElmn5/J9/zPtN3Mb66ZIimJ+d91yzd2i9LQW/NCOzdGhoXXT39plBmqH2T3NBODODI1bjGBVgDkzZNGkZKSQeJZxdew5jZNK1jk6ZTvekE0PlKJs4ah7MXTbrOKwpHUJlHKrVal5c0uW9/VyL043rg4DC4JxCzKYgn0YsIUD4urq64+HHWbHvjPUbOBasK/7is+Nx4ODqomVn+3Bcd9EDsXPbmASNpwxs/mFEZy6HQPDsN98poHyuddqAAPqAEAkLgjyhTiV8jdqfpwAzM1NWCFhwHKjCa9PeTkxntGCa5yhNX9G+HKB59OixOHH8pL/ghLByUGuX66bpigSbsxjWbVpvGlY7VY7u13VBAjyNNYCFUOjpYU+BuGl6fMLnN/B0IT+0siaVi/KiMhlYWNWuFgdvX7I7bmZuMUbHp+K46FqcmYvdu3b5e459/f3Bjkuskpnp8di3vy/27L85ervH4spLp+J1t+b7B+r54Mt3117dVfo9ecHvi6h9UKRYRkyvbDHR14qHsOSfOo+ulppvXH8sMq558aoGdrXrlO0sJ3A6xWX6bCv6wkfNKcxpASdTuC5WskJU8eoChkZYnfrh1w/FZtqCrxFXcZFGzmUApR5YZrzqzLQMOWAxmerDh6s4GpWOls/+zz9f4Rm5P9GlmjA6LUlr04BtYnLeS3ejqSBXUEJiYvlrEAguQkDNFRZI4jIqCSdtevgv8Q7KcH4baQC80KqrQ+uP6OGvQsWFUBHM1fG6wiAEOopwM41bxPdVsdQ8mYb6ZkfgRzHgfCgpRZV6g5mftiLAT/kJRq+VBjT99//2u9GzdFAj1c5o7+5V0jYzrRWBHI/u2IdgXKIBZYffx56pLPBj4k9NTnq7KR2OwkYhsN3U6wAqm1V7j9YoBCsAZVRa9iNAILgY0TkQ45iUwsQYB8ksaw5JvyxHt/KuGxqKjZs2xsC6QekTDkjJ6UK2hXDJsX+CF2GmJPxz08xDOZy3OxaFY1bCvLK44rc12UDV3ZMWArwCLaw/oHitmIUzj25fiFnVb0zTj9OnhmNJ/m1bt+ZjR00dZH5YIUxPjccTj8/E1x8fihuv3xTveueNsXPHDgt3B/xKu7nKqj9/Ko91FRQCL+3MYWHJzVpBKAxXlNOi/NCEIFIf2gown9Oe+qMetDn1wFGO5+BODy8kP9S6Tmt61612YRAhnD6wsOMnD2nhKflJ74521qQ9XUmvtlKGvCg9befE/CoenoVGQg1FKWbbzqlf8jwKjkljIFjTv86DWSoEMiSuCi2f+cj/XOkeXBftXTAswkBBiinlcnFhcBmE+h4CM6aGFOwlvBm4zwplet/Kqx8FcmlAJs00huLzpeTVr5NxI09tFMKtdqCx0FKvDvOVf6VDEPA7kIYX7pLPGr10NI/LfNKQ6m7LgZJ0xbwif6OuBT/KFCuCaRcj9sc/+tGYPbk/Lrl4R3T1DXijjc1uDjydn4kOzfn55gFlgitHOAQmOx/+gmnnNZIuSkkDMFHWC1pTQfvQE9Nd6lYYEweFHGpCvD/XJouD0ZrRAuZB8BGe7s7u6MYKYndkqWcqT4RYAgdOwmgLlIVGW8IlLX58xUIlnZkWVU47aC+Tar97xwAt1NNKR9moGlbpimjqkUWKMDFdpb1mFDkxNhz7H98fex49Fje86sZ417t+sLRTKvZq1bkXhHu1LeQoW9dst6SJd3agk4/gUA/Cyr+d61mvxq1/ql8GlxIlX/ZVTe9fk1Ty69eH5Kqd2rw/hMYgzpntr97EZ18JrzIDpBJ1TE1CHRvlCIya+pMm+chtxFX9a8tJ6Vn3QbnRneAAXEeA7CiErsH1fn/BWsOYScRVCfPWQMYM1S9IdCE9jOzKKihJXI0HjFON73KVrkGAgDhubcYJUssmHuejYRDYko4Ygrk0wksAvxVKkkaYs3IVvmyMGldTylfqQBgMM7/AQSaM4sQVQfS//tLbAOJYWc/5f0v0apT87Kc/JYWwLy67ZGf0Daw3g7OBh/MNNBxaTmxaVtwC2sF1170VBczgTqXCcrV82sXlZp7a4Y6vuHRPeLk1kMTWBx7BIgpB+evow9XC40YSQ3tUVxtAa0u+EZnHrIFbtNEHpjMF3nRTMUEtg8eGpqnwlNOLriUxqusiYSGOR5rIOIubFMibI2MSqLHTJ+LQo4/HI48djlfe8Kp457t+yIJmPCojy1mtv7zy42pc+qHX+awgJWYIjurXnI6a4MOCIQ20lKgGwGlufZfFFToyzuG+pg+XdSe0kchZgUyTd/zWcF/VtuA2rkREaEKltzmsQE2qXpQ/cWRqAFwqEac/hMFtQ4zSwQWk8Q23tSKVmAqZTHEOUzElKlHRuKthzfEA+NQXCWhZkJUL+SwCMCDEKYmj2Tfv8hRHGgIdWy/pd+VgemdygFziSUrTJfWMFPLhFOn60ggqFyZOx9QgE1Ql0LgKi1gpMYqZUKB2GgFytDLFTkF6SiB4WaY0gykr+IzMpqNMC9h7P684RknM4wXuNWjV+6Vl2kFMKcd1aRmlwjZdKRYhZwvwvOo/jyWh+aI/rybnpwqycHCsQ6TLD8pyIjLnFBBGuvqo0Yt9i6zT8K6DTG7MaimDFCQ5VZtThBfUxjxoWVK78L4nHxplvYMr7zvUe2VR/ux76olfaNMJD/smMm0+FaHObEFWc/kKS3cqTafq20bhatM031PhGEim1vFgRpvTNfCEvI1+RenqinD7BbEO9bEUt6eCUvwo8eocbguC+OJ4fKp0Vob0G/jwm1/EG+UKXTWs4URItVRwpKX/4SnzGteSJnlNhFMNOXMT7ac6OUz1Sj6jfmAp8kM4rSBZsSxxr0w1jv6z8qYjlB9Rq2WQlsbiESTBqRDkfFsS2U+wfzIQvzPL6ZcUvhKUkHky5iww/uItuTMboUlIs0sgj1LpfzVFBWJ0L7ocWkapjNGflYiLNZRLA/z4z6iJIW3S4/QuipjVXOB0NyoOR4P69CA3YtKphtQ9LtPo3zjAiSJAwNJUT+fFTQkAez+oB68WK9jCmNYZoxhKozrWKdhOzNoCgodlRkGFycRcdTEx80OfmFSMm8euIUS4zAeTiT3sXAMRzbUyZa0Z1gDTIMxshIHR3K9euyyuKCtoyvRJQzrT7ENUeDuTl8hppVRuVvhNymMBmkQjDmUxb+WpmoqJO3RtganFzF4noZjist3pE/pIV93k9KCElX5CGBl03DQCm9t22e/uKyJ8z7oRbc6aT/YHaRJS6TuH8yWA1sKoK+GZTx4IMdSUBGVYFeQKNWW2vv6UrqYF7Jejr1b7Ll0KvjyA0ygcp0j3SwnnLytTa8EtiZQK99k/1ZRhaEO0asqQCUsicMhj05RjcggUw1dEHpELNLwQAtJymwjyLsNrTGkI/yjMwav5Gin5WS3G3rOCBOfKB426a86rMI8rDcRO1pQXv/4KvVxZmOHRWFoNJb2cxUpX8mRjYnLn5iJ/IVlM3tPbF5/81CfjyONfjy3r+6Ozb20sm8HItJRnGChfbWcjLEDZbBLiaQZTF4TZ2azlMbV1BYeI8qijrH4iI4VDGvJ7tCJCLkeL7EMWDP09B8jWD/WDmcAjxF5oROhIzKiCHmncU3PqrfTkz1YGCKQoFBP05D3B+LOHxMTQjjI0/RnKkwTzsdJTB8ikvcFDeVgvs6On49EHH4kH9x+J7/67fze+/3/939w3plkZwQVuK2iE3viSslVlTxtkOupFPFYR83uAuKQy6+Z2Iz25hcPrTPL63ulwTp3pCxAOkBfI+ickfymuhviSYU2hLg/I8ExW8yVaYyoxjnWW5HdSFZzO5EDTAy1n01OBUGexQli3oawhZIF1hF0FEHPlh2wUmmCf/zOkFsJdTXNuEhTfKKSENl9qQiWBVPAn0RVbVsBAJRW4mi/vq0YQizo1I3iGrFLpZG44hSW/E2LG4kMpzGsRSoRCQWJC8DiRQPkrcwtHh0bR3GEYflv0Yx/7eHzkwx+KifGxVBTCS4lZ76SEC8XbVarAV3Ca6RvlFQzcO1/NkXlcsALA7LxyLoo8JYw/M08J9TUjS1i2l1vMuCRoUiCOUUajUzsyRpDBOCpeXPFbhZGuFEa+nIpICFEK4CHCGHzJOgDCkX0mASSvFN3U+KQfgb/jXT8Y3/d932cLC6sFsIIR7mq6kw/MOK+t6ApqK00UgsqnLCy2eiBMVUrkKV5nonyHyxVKncjBJX3WJSFbIeMMusmQhIaP+NXgArUtaMGEuk4G8FvRAomiICqRlTfMQ84G39ZcpC7p+XWCkkEO9dryuY98ZKVzcKO/x5CYMppfkPrARZA7TAgd2WgaQZ271ZAsYDUFcc6pP/0mIocRWm9LIl0yf8YkluysrGCGJtRyua+YaoNkY2RYXpVCDZNUZFgjVh6aI6+JHdwrMI4PJmFvgEZ/5bdSwOmHOnkOKGXBSn8HJrX8YFjTPxB/9tFPxPvf/+tx+PDTVioehRTpEmrhdH7DLwcNtKX+CTcdcjZxSzrjwG9Emc50k8dUZfvBTLQPeyTaO3oUirmbSCiiZFgFhwmUL/EIJDB8iUmSY6wGstmbrUXaTK+/ilI/Zsr0GooOcX1W61j8zVAzZGql0dRCfcEOxh/5kR+Od//QD/qJhKdD6geye45MowifLQHFo6xTAaQVJBTBmRELKCRdecHK82pTnvTzn4Dn7DDEK1Mn0KKAal+SVdLxu/6ipxGm+9Wc5cckZ4raDnmbYTWvIp1uNU3Jo4vDHJfpbRkaStqChXSsIXl/SLESS4yvtKUshI8UCwGGAYGiSqEkzIayt2S2dzWNC695GhhKohLigNK4vimR9mde+0pUzUMH10aoORPyjj8vsuieERwSnFYJjU+mOzhhZTyEganiMe7qXw31P4zCYaebfPq05tAwnpjLbG2rgDWAXHCDTdxOimfU4VyCDgnhZz/3ufjAb/5WPHnoqWiTQkmqk8ZvhKynfZWURjrnyvyNemRI4tNP4z7rxAhb87DhiPMFmJOj3w1u2+IlFUj4J9BlJO7FJc48HLGAEVoVU2JPSDT5Sxjpamze15RAlptlZkgtP28zPkE0oHCZPqiZmQa9/e+9LX7u53821m/YqPZeLEohB61EUNtEN5Sjiy0IWkRTERQEUys+cnP06AnvSaj1KQSYXxKHfuxZvTqdIelNHoUH6D9HZMbShg7PUAO5GukAIUSZnAGNBsj83JXijS3RZ0gqV+4JT7qz7MRBiNMqLq1ZBjO1l9MUnM7v5NHy6Q9/ZKV7/QZvnEGLOtC/Lk6/IOOin2I/eeShIP1Z2ABdXEQhLInLv5IicQgSb6Zv+JzeXodBionMBA4HTKIjMjJNa/nkQH9G8oLDYfLY/KIDfU+8/I7PhOT3va60BVbAmj62K3evPutvdmpYXjoaGx/3831W5dkNhxZmVfqrX/nr+PCH/jhOHD8uxmXK4CILQY1LrZoh284+KyWPfE0p67oAkMoIyDzJFAWby/GPaUdwAIJa9ZMYaY+SDJxGUpUJaTQCiokWFxedntCSpJGffNxXyHQZknQXmvH5WvLAk/qreLLOFeAFpeW/4Ce+va0j3vDG18e73/0jMaRBjLjckMVeDNZvZKXhFMbVmCpiyrZXU0Ep8tGx8Tjp04NanC+VPbekS7/7otBhn4KJWaU6odJHGsfrJ+ua4Hj7HNugqbZHxeuyufg30zh9+XWrKNK5wKGbLLcpjFQKx9XwzA1kXPE6P9AIUljLp//kT1a6122M9q4+pakMVlIQkpiyABeouEIMIJZ1ancbwfohVWKisgp3WoXLn95EmkSnnws4zJxnAPG4GpFXN06D3tXY1RqUMsqvMejGdLpcXTJJCklF4BTUOyNrnetqteOdnrBWf65sfGzMJm1FgRBhpt95x1fjTz/8Ye8QRCE4u6AUa0/1O6rgJWHdTcccOFPhskwjEl0ZB9QrUGuuX9rbmGnl0jKgbzQyaXQhTH9mOUdlvqrsG0wEZJDT0jY1jt8StQqK858iEVoElZSVcTNTlltzJzb88uVN3srxtOP222+Nd7zz3dG3ZkCjfe5FSBK4yql9OotSqArVI77yUyz9SvkOlyOvLQyKoJwK3BgxGflPKv1Tgpvp45YUBFFnp+W+pDM6vMLp+kMr+OXPvET61/1D2ozBB2RbG3dBlmmMwmHGRwpnSVxO5Dxca5oSLCipyOWr7WwSJ7sQSONkJ3nuakdGssqJ6ILTqZP4bAD4jDUH5/NfYd6Sr7VVee0vaZ2rgMNcqv12jUu5MYhSmWg5U09aKcOmbvHjpSQ/asuhyP6kx//ElvC8B5sFRR7kLONTAL2F1Qkzseuo9DAXTkF21io4paM82pUsKBMeU/oPnMTbz/Pt3N3IFKO7u8dXdgDWI60QZJt6dJDwoXi8+00mvJna/ZfKweawGT3DaCsrAhOn7PKuyMrLPITQV9RFYaKp+gnX7ILiBAonfcFL2+R9xvoevA4vzjHCY0/SuCgrA+uJ70p0dfWqzlhdfGNClhd/pV3SYd5nm/PHPQ2ZbUH7Es8zfKy27FfSAdDGngZ2mfpRr/zsoeBpBc5tCpFKno8nhRs6Myg9cslPhK1eTU9zPxJuekjhSYlT1oYgHXQT5j7Hz795hBz0Txas/5Slgs/ly0FNRvJT/XKNCKKEv7RXQS2HJ32kdc9CO0GAPKBwnZwj/aU1uIM0/HKlMigsrplCvpqZ/2bhJTaDBcpb8jltA3I8d33B8w2u4tCPErlNld4M1yiHH6UAiW/BSAhlkhq6E8CZnvwhTf5BhwJLgUalKxcwOEp/9rtYyisR3CttNrozEkGgw8uN/dxWwcu0gGsiyDQoGl4kQhHgOrvy3MVFvubs+tS8ckpfZFBRRRH4hvuKPyHvVn8pC6XTpalPBmf57MbLjUlMC1J4eOcAxcLmHGhiAYr7unmIhbh0vI+AohIBwpV1FnKu/svC66CCnyc2rOq3d7ZHd09PdJU6d3Tw3kPZ2tvAQRZ+EwoK1522cQ85aUbUvgXgCsLNb3IpLKy2p9DQXDQvcQ0gDFzGvFoyOIxHAY7NYq0gU+lyn38Vap0d4kzJT+Cguch2howkGkPNh3zV+Lz3b+YlpOAESoyvbofMYDlpVjC1TBTXavlAYuK35dMf/vBK9/pN0drVoxAhdcHoE9+64jCum5so561onMp+h5C+FMIvDbYsofW9CMvUiScx6N7Unwk1nRMleoPx+I9OAl/iykaiZHS27hW2mpU0bJ3hubZzlDpmHPVzJ4hZSG/s6XG+nOY4V8Z6sCp3unImweTkhEceCCErQsKU4a//+q/izz7yJ35xB5M5GQh86RACjqxD6Hg6AY6ZqXGflZjP5Ck/ac5Klqsgl3OoGx78/jeUlrHf1onK4f0ClAJvPUI9i4Tbtm32cWcctAka71YTTkbtDUNDcfUrr5XwdsRTTx2OvY88qjz5QhBfjQIHh6ceOX4qeAsyV/srBatAulpf6KW+a/r7faW+afFIKS3OSeGwN6NSnvWpbQawFnLrbbfFO9/1nugfGLJycfWpu66UJbFXpVu8GxFc5HcSXel/BMEWF3/yeyABiRElj4LQ6fxXChBkioIrgzKrrlVBQ0NzOPmzDnKO4kfOt8qjhMRn3uyDCs6n24rzXEA+g/LB/aVmJUdzvoynH6DVU1NBo+ySNK0cwSqCLN5CIGE2+qKVMb1yxTb/sgMSmisFkGrZOFRhhE3XFCZiaQocXuVrOOFxPOYXLgksFBGheNFAbuN2SDpr/8Sf4ZnDudkVl0ElTHlFr7WnIrKE0mAlkfEQ5oByrzIN5QJQa/5on7PDed5NloKi4WnkEVR66aDcTFTq4cjqQLLKOG4j483WqdBoK6W1ENqvCNOdju91SpLigl3b4vrdG2Lr/MnYMncyNs2eiI1y62dPxbqp47Fy5NHY95cfjUN/9dGYfvSO2Kg0m+eHY+viWF4XRuLy3oW4fENP9HZYDE27TX41muuRFCTdtI8rBm3UMdN556GuHsFLeoD0Jp3fGij6Ew8MnfGOBFf6Mp66+toclv7k30a06TD4vgQCLiPrValazQe91JE+yTCoyXTy6UKZTqsfQrPOYAMUIfxpkQh0wWtZyVi75ukJQBhpfcWrcGIcq3LM4wUPHv48VSl/nrqJJ5OnsxTLggKSSngIwq3u6A4qIa0tR8ORpN3z51K4rqRCWPm0GDvuXGmBK6sEEEWQ05JPfjcqTClO9jZah+JYCa5sULuUNCVdaodGLEgpvbJOq1Dmo0ViRbvTGENmKhcgyczAnIdShijwanRaB268kqFeyUJ4zZsusRnwynExq9UoOohR3gGE0+SZ11hqOsxZjXzMmbHE/DSA8kiUKf1Xr7WzS4IzAJSOpp3tz5Ggr7cvBgf6fYr2Bbt3x43XvSKu2dYfyycPRcfyXHS0LDFPifnpqViYm3W3rN++ObZdtCs2SXH0DK7xkS48PZnz2YkzMT09GdMTY7GudSEuGuqJjQNrYrBf5fSvjX6O8ddUyHN0C7uJ8r9f+2VHp65eP0DoFO80/OOnLRQnT6lQCgrXxGU97rBG+xY/FmmFOngZA7iVDHqAWqaFsjjuiU7uyjJJDXfVMCCTl3huuPqn5FNEg5fs8GdufsFFfE2DRNjJv5ou0/LvcmhLEjtGYSXcSUR0XfRu4Mc5KWWkn/7A0SJuN3A4Tw6+5OKrXAJFowQyu24VmP/ENK6VoCwn/faKOuORqw2dEatpHI/X1xJvrIkfogh2jDyuMFdCCOSihAizrYlSoC2FzNLwJ9RM4Kl36WkUrytYuNJg9guyIRPwki/z4MtUq5TLiZY6CiWWkqaGK3OOELqCnH+HrbpkEKVpdHym0U/FlvkILw7IOIAQ7hIf+SizT3P1K3dtiWu2D8VFA+1xQe9K7OqZi67Z4ejt7YzetX3RJ9c/NBCdbL7SFKFX/nUb18XpqaXYd2IiVrrWRLcUyooUFsV4oVX4c6F0OTZ2tcSlQ11x1ea1cc3Wwbh2x4bYub7fezfytWjawkRaEaSiaKorzsBVrqQHu6P5oxOJVQBlkwCUxAGZPh2Q+QrIk/3Af+LET1dUfnUYUMrJ3CrDiEoaQp0Q0an55GgPtwk5KsCntFe2GcwLBrz8pL/8GU/WofJL5st4ZyC8guNx+jc/UZaSNMrQH2FO4H/TxTTU98brGthPYEGnOgghRORBIcUycCR/XIvA4axGlLbS5vt0ZmjXgfR13YCE6Uq5IlpEKdzY+SefHH88H3f9HE+ekq8Qz03FQ9n+0GhtcAG5cm0hgxxccDtj/uunEK6E2RmUwzUTmOEA2oZruaXuDcgeMA53ouuq+4KHv7oy73vhMtOYcVQ+9ItaNjdxug/zaM4ZqHhqG1eGBTX1wxlMS0kEslquSUjLgDJ5BNc1Nx6to0dj5fTTEcOHI6aGfahL59qBaJX10NEnge/pip5uPrrSEottHbHn4Kn47F2PxFcf2BePHR6Jlg6O1OMEJHYIcvhuV/T1sTDI16UWo3V2MtomR6J18nS0T4/E2piLdp8KxfqA6raknhE9rAO45lhPhd9cM9MNzSgK2irpzzqpnu4j1bSEmd/IU1qEuOwHwnD1bxVW82UfpJLGnzgdT1OWsjPdalxBYr4AcQ1fxZPvgfjdj0KnHYnhFf1nXlEtx33iL7gqf2SOBIV7euR00FfSlHv/qc7ITv7RAFmGL5RbgHslEJQ0eVPAObEQEHC2eHKslzpJ93b82U92kgp0YxTuIHBSaCEC58QlX1NYo9jiN6GlgxtxjZvSWIasInfkXL1b9Seu7LwGPc5O+ZmGf4MiEncpW05d5zRJs290LXSWRgYcj4bVNXEX57ZIZLV8/I41swNNOIgQuEzhm5GZPjE+GmNjwzE2OuyzEh3fhIvc6UrmcnEczvoAPzPAUkf/60dp+erTohfuOJBk2Z+Va+0fiugdiPbeXgmp2k/9L6n1HPPEyEQMT8z4AFU+6TezsOxXkjmdqC6eYdHT5n4vQNoLQ8DvCvC0gg+HLnB2Xwo7V0hi+zZnQXAY65SmG1OTY/4sHN+WQHGayakWfxaoWi9CstK03yp/ZTyB2barjsyOK5D8Ae6Cv+DOgOSfvBGQvXpKSfxWWhA+8tT8jYGrhNnxl0gaYZltNS7DncIuf/Mnwws4MZcMpC2MA4SF1owSlb4p/MufPOTL9RomJhkD5IQq09a6emfAMo+DONKLJIWJUWSAiVAD11GMxjZSdaD3i6Pl8a8siSHyTTYF6p9nviqudlC9GkrhxWUFKZe8hAEZ47SlgrWyjgEXTKTAkkpXfHnNtL5tCk+/lbRyGJP8dtxlMlFBCUpjYU/cgOtS/bU5TXKW7nC8xfG4zsEFb0ZQT9HvnuKItHkphHFvbpqcmvQpyzwCNIOSxDRUJNkyrhuoaBcFMeoyajhd/qcXR6WUYUlCzeEsnJvAl5CX27qNh0eAXVIISz47YT7Wctix+rlPVsAGTRN4a3NwTWe0x7z7H03QzuNRPuEmfH6VWnhSMZQ2of9pmEI3deVpAk9kxkZHY3T4tK4jPhpudnY6FuakPMQvleGz3jj3lv4SB4Hgtx2ohnZqGhxnZZ18Vzol/QXcxyTNO7nECc1YMU29nmU1rsgCnMI9oUqTwQpPRZJXBTucFGfiMKWkAYuyp+LLulSL1o605CvOOAgjsqQjJXkJJES+RhoPYAWZekZ/ideJXHl43LmNmwHEkaWciJb4/wBoW6mctUzECwAAAABJRU5ErkJggg==;movable=1;resizable=1;rotatable=1;deletable=1;editable=1;locked=0;connectable=1;perimeterSpacing=0;" vertex="1" parent="1">
          <mxGeometry x="789" y="286" width="520" height="440" as="geometry" />
        </mxCell>
        <mxCell id="zJTkyF94yKX1d19e7NJj-44" value="" style="endArrow=none;html=1;rounded=0;exitX=1;exitY=0.812;exitDx=0;exitDy=0;exitPerimeter=0;strokeColor=#ec1c24;" edge="1" parent="1">
          <mxGeometry width="50" height="50" relative="1" as="geometry">
            <mxPoint x="582" y="666" as="sourcePoint" />
            <mxPoint x="754" y="615" as="targetPoint" />
          </mxGeometry>
        </mxCell>
        <mxCell id="zJTkyF94yKX1d19e7NJj-43" value="" style="endArrow=none;html=1;rounded=0;exitX=1;exitY=0.812;exitDx=0;exitDy=0;exitPerimeter=0;strokeColor=#ec1c24;" edge="1" parent="1" source="zJTkyF94yKX1d19e7NJj-13">
          <mxGeometry width="50" height="50" relative="1" as="geometry">
            <mxPoint x="641" y="635" as="sourcePoint" />
            <mxPoint x="754" y="574" as="targetPoint" />
          </mxGeometry>
        </mxCell>
        <mxCell id="zJTkyF94yKX1d19e7NJj-41" value="" style="endArrow=none;html=1;exitX=1;exitY=0.81;exitDx=0;exitDy=0;exitPerimeter=0;entryX=1;entryY=1;entryDx=0;entryDy=0;curved=1;strokeColor=#eaeaed;strokeWidth=1;" edge="1" parent="1" source="zJTkyF94yKX1d19e7NJj-13" target="zJTkyF94yKX1d19e7NJj-40">
          <mxGeometry width="50" height="50" relative="1" as="geometry">
            <mxPoint x="613" y="619" as="sourcePoint" />
            <mxPoint x="666" y="568" as="targetPoint" />
            <Array as="points">
              <mxPoint x="621" y="603" />
              <mxPoint x="665" y="586" />
              <mxPoint x="710" y="576" />
            </Array>
          </mxGeometry>
        </mxCell>
        <mxCell id="zJTkyF94yKX1d19e7NJj-40" value="" style="rounded=0;whiteSpace=wrap;html=1;strokeColor=none;gradientColor=none;fillColor=#18171a;movable=0;resizable=0;rotatable=0;deletable=0;editable=0;locked=1;connectable=0;" vertex="1" parent="1">
          <mxGeometry x="246" y="294" width="509" height="277" as="geometry" />
        </mxCell>
        <mxCell id="zJTkyF94yKX1d19e7NJj-27" value="" style="rounded=0;whiteSpace=wrap;html=1;strokeColor=none;fillColor=#bfc1c5;" vertex="1" parent="1">
          <mxGeometry x="241" y="683" width="519" height="36" as="geometry" />
        </mxCell>
        <mxCell id="zJTkyF94yKX1d19e7NJj-13" value="" style="rounded=0;whiteSpace=wrap;html=1;fillColor=#6f6f6f;movable=1;resizable=1;rotatable=1;deletable=1;editable=1;locked=0;connectable=1;" vertex="1" parent="1">
          <mxGeometry x="416" y="348" width="166" height="344" as="geometry" />
        </mxCell>
        <mxCell id="82a4GhE2VWnD9GZY42eu-74" value="" style="shape=image;aspect=fixed;image=data:image/png,iVBORw0KGgoAAAANSUhEUgAAAWMAAACkCAYAAABCWE9ZAAAAAXNSR0IArs4c6QAAAARnQU1BAACxjwv8YQUAAAAJcEhZcwAADsMAAA7DAcdvqGQAABmLSURBVHhe7Z0JtGbTlcermiaUkJBITDGFUB1zRekkaBIzJaSRhDQixNCSNtNCJCw00SlZ5rFREaFDEENiniUUYp6CiJkQM2Wo/v+/s7/Vr55X5b165+x97v3+v7X+a59zi/d999xz9nfumfYIIYQQQgghhBBCCCGEEEIIIYQQQgghhBBCCCGEEEIIIYQQQgghhBBCCCGEEEIIIYQQQgghhBBCCCGEEEIIIYQQQgghhBBCCCGEEEIIIYQQolmMNCsyM3ny5Flg5oY+Cc0BzTSAZoAmQW/3sy9Bz1AjR458D1YI0XLkjKcTONtRMItDnzNLLQzRAVOzQzl4DqJjfhJ6uK/gqB+EFUK0ADnjQQDHOxvMF0wrmv0MFM270G19BQc9EbanwPNZH2YDaAWTaA5bmp0WkyG+NVJv9Umzg/JkW94e5YwHAI17Zpg1TKtCy0BN4U3oJuhm6EamUVlfhG0NeD4zwnwdGgfRCX8UEr3LUxAd82PQvX2Fuv8+bCOQMzbQwJeAWReiA14T+geoLVwJXUyhct7XudJA8IyWgvmOKdcwkGgvfHO8BLqUFnX/UV6slZ52xmjc88BsYvoyr/UAd0LnQuehcjJdPXhOG8NsB63VuSDE9HELdBb0K9R99qSroiedMRr3ZjD/BrEn3MtwnPl86Jwae8x4Tv8Csw/ENxUhcnIhdCLqPW0V9IwzRsPmay17V9RivCam4CFoO1TOq1M2DjwrPp8DIf5oClGS66DxqPd8Wwyl9c4YDZurHnaDvgdxYk5MndHRPWQ8r21hfg59pHNBCB8ug/ZE/b8jZf1prTNGo+Za3z2g3TsXxIeCihhWH/C85oI5Etq8c0GIGPZHM+BbmTutc8Zo1OxR/RCiI+YuNzE4JqISjrG0K3hmXLs9AdLwkagBrsDYCu2BG67caNPyLTbqLWAegPaF5IiHxvVmXcEz47gwP1uOWNTCOtDNqJurpKwPrXDGKLTR0G+QPAOqYWdcE+FEhit4ZhxC4lKjf+xcEKIeeLTB5aijq6dseRo/TGEN+vCUE8NgLryWue3Uw3PbEebolBOiWl6H1kbbKP7m2FhnjMbM09COgf61c0EMhzdR2Wa1dHHw7LaGOSXlhKie56ExaCOPp2wZGjlMgcbMg2G4YUGOOA9u48V4dtxFJ0csmgQ7fiekZDka54zRmPeG4a6Z+TsXRA5cxovtbeb4lBOiUayF+nuIpYvQKGeMwjgRpmiB9ChXmS0NexcLpqQQjWNv+KCxls5OI8aMUQALwJwO8awCkZmRwJLFwDPcFeaIlBOisVyN5rKapbNSvTNGI2YEDQ5L0Ir88HDuokM+eIbzwfDsC4aiEqLpbI42c6als1H1MAUa8WgY7oaRIy6Hx3jxQZAcsWgL25vNSrXOGI54aRg64kU6F0Qpio4X4znynOitUk6IVrAy6nX2oYoqhylwo5+FYXQKjhWLsiyKV65HLJ0dPMvTYHh2dC3wUPEroBsgRuH+u4lpdk7Yg++Kh02xLrJnL0RfjkK72dnSWajOGaPxfgyGjni5zoXm8irEMC90dH+D3oC4m4dimkEWGWGawU5pqU9BC5lcNmGgQhWrA3iW/DEtulB+kLD8x0MMO8X16T0JnsdRMDulnAubQnen5DRhW2BQUbYFnjveFQ+u6gYCru2smUdRl7K+tdfojH8Pwzh0TYKh89nTYgBQhjLig3oWdrpBOXwahpFIeG4DA6Iua8o59nonvmexYKu4Bx5FyBP0ongGohPm4eGMJtzT4HncDsM65ALKPJt/wXfnBq/vQjWF3loRt8hQTu0DBX4m1AQmQb+ENoNcN5/g88ZAu0O/hV6DhgMdVTHw9+9LHxPCFZA2BvUhFYsbg+kRDxn83eWgKzufEA+DVrQP3BgXVNfOedAWUDUrA/BdVoeOgZ6Fhgq3lRcBf3ul9BEh8MwS0QeUydKpaNw4zj66CPj7h6ePCYUnRbYL3BS3GtbKW9BPIR6pVzX4jutBp0ODpVgYKvztw9JHuPMr+wqiDyiXHVPxuMGzxYuCz9gnfVQYbqccuoAbmhv6S+fW6uIF6IcQJxQbBb7zvNB+0GPQ1HjH/vMi4O/flT7GlRugGewriD6gXH7RKSE/XLa943NOSB8Xxpz2VZoPbubX6Z6q4kiocU54IHAfO0AD/dhxorQI+NvzpY9wZ0P7CqIfKJu/piJy4V37WBfweQ+kjw0h26qv0E0fuBEus9k45argUmjsyJEjfwBx7WnjwX0cC7GXsg/EZXVdLjdbglXNenIt7vN8S4s+oJ3NCOM5mekdwisyuES2vRBhzhgVZEmYorP5Q2RXNOZ1oD9avlXgvg6F4bby7pgqQ5OXgrvuvDnbrPggXzLrhaszRt0+CeaulHOHa6OzENkzpiPmL3Y090Or4oH+LGXbC+7xKegbSG4ByzWnpeCmFW8uNis+iPePo3fPmPDohAia7YzRK94GZs2UC+UxiOFUrk3Z3gD3+wtLlsL7zOJncE/c7SgGxtsZcwetN9ziHkHje8aRu7K6HIcGvDDUdxxV5MG7Z/yEWTEwnueAP4s2NcnSnvAHwHXi0HjF7LBxd8boFdMRR7zG9uVwVJgdLC0ygufLnoJbcFOj6DK9JoPnwVBXH0k5FyKGKPi2R0cc8aP8stlh4+qMUTHmgYnuFV+JB7enpUV+5jDrCR2OGJheGC/u8pxZTxrbM2bonWK7vgbBSXDEX7G0KEPE+mw546nj7YyvNhtBhDPOtgvPzRlbr5jOOIrfwxFva2lRDh4F6s0cqF+ft7SYkpXNuoA2doclI4g4hZLhxLLg2TOmI3Yfozbug76VkqIwPDs4gtXNiinhWcBe3Gs2Cnb4PHkOPz7ZNoe5OMcKesU7otCinESvEVXOXzMrDLS7z1nSi8jxYjKvWS94jnk2vHqqjIEW1Sv+MRxx5DhWT2E9BUZt8GY1OB855Cnx3nkX1s7w7OlfGJDBkz+YzYKXg4yKgcbzCg6wtPAjqne8u1mR8J68i9p4QcaZ9eQas1ko7ozxi7U2zBIp5873zQpfopzxl1DfjrC08N3s8T46PhGrGbpEnNiX9U3Ao2cc1SvmDrs/WVr4wm3mUewKh8zzN8SIEZ4BEaLHi72HqLhfIduGD1LUGaNRcDdWVMM4xKzwJ7phMj7h5pbuSXD/K1nSi6yv7EMB97o1jPf69jPNZqN0z3gjKGLt3yH41aohRHyvEu2MyQQ0Uk4c9yq9cDgQHTH9y/4p5wYjjTfOGUfMbvOcgv9KSRHEdVAN50Wcisbq3VBrwXuzR9RKCj5f77NuJuB+37R0Nor1WtEIOETBfdvePWNGttjR0iIIPH/OrNeyEeMMaEvUi8kp235Q/mx7H0254nDzw6cs7QbukUMxN0LePmYJ3O8Dls5GyZ7xBlDEEMXJZkUsNQxVdPk2NBGN17W3GAXuc3YYL0dM3M8Dxz2OhjkXiujsZXfEpKQzXsOsJ5ehoCZaWsRyqtlaYODIa9GIf5SyrabV48V4hoznR0fsvf2Zb1bF4u2VdMZfNeuJesWVgB9FLm/rxturiQPQmK+BVrR8G/HeeefmjPHcOPTFEFveW73Jf6JeF4soU6SLjwJjL+S2lHODv1qjUFjZB9bF9IF6wB/kkoFPh8uhqC+Mmt0qUO43wHwx5cqDMnQZKsB9HQwT9bwm4jbHWLoIpXrGEb3ii+SI6wLP43KYW1OuSvZGA78f4hLMNuHmiME9ZouB5/M1iOdARP5w7mG2GKWc8ViznlxkVtTFsWZrha+756KxnwxFRCnJCu7Be5lXkSEK3Mco6D8gHst5HhQ5rLQDOhZXWboYpYYpOF7oHSH4Myiwv1q6GLi3E2HWhbpl19+SwVwb6n9P+l+b3n8j3TQrWtGxdpQZx/jWSbmqYQy13VAeZ6ds80BZc+fhhJRzYSOU128sPSzw3fnDyBUv1CbQLFA043F/u1i6KH0bZxZQoPPCPJlybtyDAnOJ9ID740H1UQcflWBRlN0jli4CymwZmMgIEEPlFGhXlEvWswc8QFkfB/O9lHNheWiwB6wzMCq3LVN8C+mml4LogBeAauIM1AG3s3VKOGOuL74g5dz4HxQa96cXB/fXqo0DKLfsdWAgUGwHwkQHox0K7FDsguI5J2WbAcqZa2AXTzkxDM7Ds9/Y0i6UGDNmL8ibW8wWBRXdM4SNB3eaLQ4q9n4w0WF5hsJ80Nl45oelbGOQIx4+7BG7OmJSwhl/1qwnLs4YeC+mL03xSYl+MA5httDmTuwBh3wVVL2Tw3fkklIxPPaCIw459reEM17UrBfvoPC8nLH3YvrSuDpjPCeeL93EwLA8pJ3bqWs/lrNtnQVPnoHWQx0NexNqQ8+46ORTPzwjJ3jgftIWKjuXIG6fco2CB1/xWM6fpGyVrGpWDA2uhx+LuslVP2FkdcaoqDycxDsooMu5xbi3WWHmSrlWMBmVL2S1AD73eJiDUq5x7Ie68HNL18ZqZsXgeB86EPVxDSj8/PPcPWPvgztI8bXFhsaLM4LKzwm9vVOucewMh8xjOasB32dmmDlTTgwCdggWQj2s5rzr3M74E2Y98fpF03hxZtAQGATAc01sTraAA7zQnGANaLx4cPC0txVQ97aHvDpyg6INztirQNs2XhwSJqc/aBAnwGyaco1jfaiW3XpyxtOG8yProL59HfI+xGxQtMEZe417rmK2FaBCMkJCFeC7cGMFy9dt3XNGxqF3zFfeaDRe/EFegsZDy6OOrQZd2rlaKW1wxq+bLQYaGzcAtInnzVYDGsp1EDcMHZ2uNIrtUEd+bOkotJIiwR2yPD9mHOrTnBB3Ud7e+ZfKye2MI8bP3jBbkraNF1cxRDEQaDj/DvNN6G+dC81hfzjkkCV7+NyIifNa4fb+s1CPLkzZ5pDbGfMgEG+K94xB214BwyfvpgUa0lkwy0K0TeJYOEbGZvOmbZ2F4RJxnvqwkTMeHLVEOc6FewDJoQKH/ATEHjKPUnyoc7EZFIuRNg00RDElcsYgwhl7nDrWqsNX4OR4DGgjwHf9Xxiec3to50L9rBswXKHJuyn5Ap5BxPzVsMjtjHP/vcFQ9ABqPFSXc5IdadLJaR3gkLlbkCF3eGre7zoX6+Zw1BvPSd9/Miv+n8b1jnM7z4gYdNymXBKNF1cCHPKt0NpIbgVVtWC/HzzHYt+ULEvQGHUTkDM260lpZ9y28eLGOuMucMinwSwGRYzPDpZt4SgZxaI02uwxMD3vjD2WmfVnfrOlaFvP+GazjQYO+W1oTyQZPp2nbtXGjNB2KVkUjRcPzIJNe2toQ8+4WOBTPExODjY+YnBf4MC84xMWBfczEVoDyZ2gVzsX62FbsyWRM546jeodZ12JAOfFWWTv0OxF49/hntjDKQkj666XksW5FmXV2mVQeFbc/HAkxOVwtbApyrxYHD3cs2dMxr9A3FLMz5xkYvrjEE+M4wqGmo4NuABlv6GlewvUi01ZOZypfs3stMD3fzXdhgs/so9tNbjP3dPtVgG35hYBf/vL6SPc2Ms+eqrgvxkFrQ+dyv8hmLftazWC3MMUj5n1hKHCGwkqC8ufM+9eXG+21aA39FMYnrL3cOdCLCuZLYF3L/RD6w/K/nXotxDfVhmC/9TOP8QwE9pYY94EczvjR816wl/ipi7v8R7v+4PZ1gNncA0My/eGzoU4Po/6ydf4ErjWH5TpkMoS//3d0HeQ5Hh+FFyf3giyOmMUPE8Di5hEaWrv2POM5BfxfF6zdE+A+30ChmXMA8Uj+WezufFcdvlns0MGz+EYmKgloo2Z4MzdMyYRveO1zDYNz4rS+PXF0wMcwbswjOp8R+dCDNmHKtDb5oRZifY7NYY1xIXnwPoXEdWFQxU7WrpqSjzMiHFj7spqIiXHE/vjHgm6FuAI3oLhGCZtBCUipnuf1Dbs4R48B0Z1iYiy0Yho5CWccURhf6JJA/UE35eRpmdIORd6Zrx4IOAI2DOOOgC+RFRx79fvXJO/HDbyDm6wFNobD5uqmhLO+Baz3nzLbFPwnnyJei7VgDLgyW8RIdkb74xRdllO+sPf4ZxSxBLL6uMslnDGfzTrzZb49Rtl6SbgOXn3oFkxYkREiP0Sxzny8H0vsv6QwyFzY5j33NIGZqsluzNGQb8Ac3/KucKQT1umZCMoNcM+ENWGWQrgCrOeZO0Zo9OxqCW9KLE+/ZdmveAZx7NbukpK9IxJVO94N7NNwHM5XjWRoKNBZ4Gz+u+lnBuzwRHkDLxQ3WaP6cDbGZOvmK2SUs44auZ+EVT671u6WvAdS8yuT4uenrwbAO8JpPfwI5BzJYf35F32jTMoj7thbk05NzyHBodMKWd8vtkI/hvOrvaT1rwnXzRmPCUcSvPk72Zz4bmB4jXUn2ctnRvvte8rm62SIs4YD+9FmEtSzh0uF/tZSlaL53hx9HbgGuFGEE9eNpsLz5BOJeuPtzNeDh21amPjleoZk8je8dYo9JqXunlu9mj0qXaF8G6Q2YZFUK8ZB9CTEuPFXTix/H5KulFt77ikM77AbBSnBFTcwbKkWQ80XvxBPmnWi4fM5sB73LOYM8YbNI+49J7s7z1njIJ+GuailAuBS90mwCF7N7xpEvAD0YowS7lA+S8Hw7rhSU5n3NSdd1PDezNST/aMyUlmo1gcOh8NsKZxoi+a9eCVgpMvTSViRj2nM/acvHsc9af0+Lr3ioox8AezWLoqijpjPEiGFHog5cLgZNmleACekx7TwnO8uCdPavsQIg6VutfssEAdZiR0z1596V4xidimz5iJ1VG6Z0yie8dkBehmVOZxKRuKpzO+yawAeP6Mh7ZmyrnxNDolf7L0cPF+xS7ujFE2PPPilZRzo8qhCg9nfDLkvZRoIBjSn0MWPCwmBHz2TDALpZwLmrybkr3NepJzA5T3Ae1eyyK962lvOmP88r0Ec1jKVcFecIr3QRtZ3hPP8WKiyTsDz/tMGM+3ki45nbH3ZqE7LVka76GKsWarwqNnTHiOLEPg1MIS0LlooBdCnmOIns7gz2hMUYepVwWe8XEw30w5d3I6Y8+VOJ6RUbwn8VgnqgtI4eKM4RQmwUQd7D0t1ocuwYO5EfoBVGwIAX+bh1t7OmOPyZeqQZmPhfgKHBHuh1yCup9lKzrug8NsnnjWn4hJvOrOqfDqGdMhcyLvupSrDq64GA89ikp/PXQYtAm0YOdfhwj+vxmgZaFtoGMgLm3isaKcQPKiZ8eLUd6joSOQ5DDNip2LMZxuNget2ezRH/gGvjU/k3JuVDduPNKsC2ggPMLu8pRrDIyo/IiJ21qZfwPiEADXK3bFZUfsWVOfgaJZHpX8dku3HtQtrinna/w3IL7xRPMsyv/Tlh42uD9OhDPsvRfz4/s/aeni4P5+DbNxyvmA+3P1fx+G+5dBof8EZr+UE2JYcCyYP350wiVCGw2Hw9DW97L0sEG7YWQMr5U4b+O75zx/+UPB/XGlyyEp58YquM9q3tZDfhlQ8JzUaFQAUSGGAFcQLYKGnu3oTLSZyZb04Ap8969a2gXcXsRb88G4z30tHY7bmHE/doY8K5cQnhyY2REvbUkvIo5ddV9RAaoaNw5xxqiod8HQIQvRNu5G/c59nrb3Zg/3lTgoM5757B2kVM6YoPCPhgnbDSdEIQ40m5O2ndQ2Ndx75Hjr8IxFOU3CnDGBQ94HJufyHyEiGY86fbalc+LZM+ZZGm9a2puIHaPrmg0n1BkTPHiG12/acjch+nM56vIuls4Gem4MIzZbyrkQuVkoYvNHNRGjw52xwa2qURGlhRgu3LCwTUpmx3vVUaQz7ulJvCqcMXoUL0AcFyvxiidEabZB/X3c0rlp/eRdF5Qh4+Hdk3JucLcsz6oJp5aecQc8jM1gjko5IRrBt1FvL7Z0CbxParvNklHcaNaTKsaNq3LGBJWBS960Q080ge+ivk6wdCk8j12922wkEWuc5YynBir4QTCMyJAzdpgQuXgVGod6yvMiioHXZ+9guhGOsD/e0aJJFePGVTpjgop+GQwj+Z7WuSBEHXDGn2caXJiyRemZ8eIuKFeGYfJmJvzwLWDpMKp1xgQP5nVoKyR5Hq33EXtC9OcY1McVIa+D13tls0d/Ipa4hQ9VVO2Mu6DynwCzCHRw54IQvjD80IaohzulrBuePeP3cX+PWTqanpzEa4QzJqgob0I8YWlR6JTORSHKwrOr90W9Wwa6IF1yZTGzHtTSKyYRzjg8fH9jnHEXNIpHIC6w557y4zsXhcgPI4UsiLoW8jY2efLkJS3pRa8741lQ5nNaOoTGOeMuaCS3Q9sjOTfEpXA1BTwVzYTzEozVOB/q1u7Qi52rMXhP3tWwkqIDyp1t+d2UcyV0qKKxzrgLHtzz0EEQZ0O5aYQh2V/nvwkxCN6BzoE2Rx2aBzoAeqrzL7H06uRdl55bb1xVDKhc4HWD98Xgn+PMhr5+iOp4Gvqd6Xw436hTyqYK6jB75R9PueKwQ8M3zGrA/XN4iKc6evIyyuFjlnanlc64P3iwo2FWgMb0sTNDojd4GOIhNNSNaHA38aIQNdETznggzEEvbOKyOYrpeSEGY2TEZx5fKOqFB8twNxxjznX1HETn29WDcL6M6i1E1fSsMx4McNgzwXQdM8XXWYbo5zK7SbCiMHgG/EEcBc0K8Xmw/DvSMxBCCCGEEEIIIYQQQgghhBBCCCGEEEIIIYQQQgghhBBCCCGEEEIIIYQQQgghhBBCCCF6gxEj/g/AG+5hyJIEOwAAAABJRU5ErkJggg==;" parent="1" vertex="1">
          <mxGeometry x="692" y="541" width="51.95" height="24" as="geometry" />
        </mxCell>
        <mxCell id="zJTkyF94yKX1d19e7NJj-4" value="" style="rounded=0;whiteSpace=wrap;html=1;fillColor=#181719;strokeColor=none;" vertex="1" parent="1">
          <mxGeometry x="416" y="692" width="168" height="27" as="geometry" />
        </mxCell>
        <mxCell id="zJTkyF94yKX1d19e7NJj-5" value="" style="rounded=1;whiteSpace=wrap;html=1;fillColor=#222f38;strokeColor=none;" vertex="1" parent="1">
          <mxGeometry x="459" y="388" width="74" height="181" as="geometry" />
        </mxCell>
        <mxCell id="zJTkyF94yKX1d19e7NJj-10" value="" style="rounded=0;whiteSpace=wrap;html=1;strokeColor=none;fillColor=#232c33;movable=0;resizable=0;rotatable=0;deletable=0;editable=0;locked=1;connectable=0;" vertex="1" parent="1">
          <mxGeometry x="261" y="386" width="142" height="144" as="geometry" />
        </mxCell>
        <mxCell id="zJTkyF94yKX1d19e7NJj-11" value="" style="rounded=0;whiteSpace=wrap;html=1;strokeColor=none;fillColor=#232c33;movable=0;resizable=0;rotatable=0;deletable=0;editable=0;locked=1;connectable=0;" vertex="1" parent="1">
          <mxGeometry x="601" y="388" width="141" height="144" as="geometry" />
        </mxCell>
        <mxCell id="zJTkyF94yKX1d19e7NJj-15" value="" style="endArrow=none;html=1;rounded=0;strokeWidth=2;" edge="1" parent="1">
          <mxGeometry width="50" height="50" relative="1" as="geometry">
            <mxPoint x="240" y="681" as="sourcePoint" />
            <mxPoint x="416" y="682" as="targetPoint" />
          </mxGeometry>
        </mxCell>
        <mxCell id="zJTkyF94yKX1d19e7NJj-17" value="" style="endArrow=none;html=1;rounded=0;strokeWidth=2;" edge="1" parent="1">
          <mxGeometry width="50" height="50" relative="1" as="geometry">
            <mxPoint x="440" y="670" as="sourcePoint" />
            <mxPoint x="439" y="359" as="targetPoint" />
          </mxGeometry>
        </mxCell>
        <mxCell id="zJTkyF94yKX1d19e7NJj-18" value="" style="endArrow=none;html=1;rounded=0;strokeWidth=2;" edge="1" parent="1">
          <mxGeometry width="50" height="50" relative="1" as="geometry">
            <mxPoint x="551" y="672" as="sourcePoint" />
            <mxPoint x="550" y="356" as="targetPoint" />
          </mxGeometry>
        </mxCell>
        <mxCell id="zJTkyF94yKX1d19e7NJj-19" value="" style="endArrow=none;html=1;rounded=0;strokeWidth=2;" edge="1" parent="1">
          <mxGeometry width="50" height="50" relative="1" as="geometry">
            <mxPoint x="439" y="368" as="sourcePoint" />
            <mxPoint x="551" y="368" as="targetPoint" />
          </mxGeometry>
        </mxCell>
        <mxCell id="zJTkyF94yKX1d19e7NJj-20" value="" style="endArrow=none;html=1;rounded=0;" edge="1" parent="1">
          <mxGeometry width="50" height="50" relative="1" as="geometry">
            <mxPoint x="440" y="670" as="sourcePoint" />
            <mxPoint x="550" y="670" as="targetPoint" />
          </mxGeometry>
        </mxCell>
        <mxCell id="zJTkyF94yKX1d19e7NJj-23" value="" style="rounded=0;whiteSpace=wrap;html=1;strokeColor=none;fillColor=#adada7;" vertex="1" parent="1">
          <mxGeometry x="538" y="562" width="9" height="22" as="geometry" />
        </mxCell>
        <mxCell id="zJTkyF94yKX1d19e7NJj-26" value="" style="rounded=0;whiteSpace=wrap;html=1;strokeColor=none;fillColor=#6f6f6f;gradientColor=default;" vertex="1" parent="1">
          <mxGeometry x="445" y="662" width="103" height="19" as="geometry" />
        </mxCell>
        <mxCell id="zJTkyF94yKX1d19e7NJj-24" value="" style="rounded=0;whiteSpace=wrap;html=1;strokeColor=none;fillColor=#9b9994;" vertex="1" parent="1">
          <mxGeometry x="527" y="569" width="16" height="4" as="geometry" />
        </mxCell>
        <mxCell id="zJTkyF94yKX1d19e7NJj-22" value="" style="endArrow=none;html=1;curved=1;strokeWidth=2;" edge="1" parent="1">
          <mxGeometry width="50" height="50" relative="1" as="geometry">
            <mxPoint x="549" y="680" as="sourcePoint" />
            <mxPoint x="496" y="629" as="targetPoint" />
            <Array as="points">
              <mxPoint x="548" y="659" />
              <mxPoint x="539" y="639" />
              <mxPoint x="518" y="630" />
            </Array>
          </mxGeometry>
        </mxCell>
        <mxCell id="zJTkyF94yKX1d19e7NJj-21" value="" style="endArrow=none;html=1;curved=1;strokeWidth=2;" edge="1" parent="1">
          <mxGeometry width="50" height="50" relative="1" as="geometry">
            <mxPoint x="444" y="680" as="sourcePoint" />
            <mxPoint x="496" y="629" as="targetPoint" />
            <Array as="points">
              <mxPoint x="445" y="656" />
              <mxPoint x="452" y="642" />
              <mxPoint x="464" y="631" />
            </Array>
          </mxGeometry>
        </mxCell>
        <mxCell id="zJTkyF94yKX1d19e7NJj-16" value="" style="rounded=1;whiteSpace=wrap;html=1;strokeColor=#252f39;fillColor=none;strokeWidth=10;movable=1;resizable=1;rotatable=1;deletable=1;editable=1;locked=0;connectable=1;" vertex="1" parent="1">
          <mxGeometry x="424.00000000000006" y="355" width="150" height="330" as="geometry" />
        </mxCell>
        <mxCell id="zJTkyF94yKX1d19e7NJj-36" value="" style="rounded=0;whiteSpace=wrap;html=1;strokeColor=none;fillColor=#232d36;" vertex="1" parent="1">
          <mxGeometry x="601" y="294" width="141" height="94" as="geometry" />
        </mxCell>
        <mxCell id="zJTkyF94yKX1d19e7NJj-28" value="" style="ellipse;whiteSpace=wrap;html=1;aspect=fixed;gradientColor=#232d36;gradientDirection=radial;" vertex="1" parent="1">
          <mxGeometry x="690" y="333" width="22" height="22" as="geometry" />
        </mxCell>
        <mxCell id="zJTkyF94yKX1d19e7NJj-37" value="" style="rounded=0;whiteSpace=wrap;html=1;strokeColor=none;fillColor=#232d36;" vertex="1" parent="1">
          <mxGeometry x="261" y="292" width="142" height="94" as="geometry" />
        </mxCell>
        <mxCell id="zJTkyF94yKX1d19e7NJj-29" value="" style="ellipse;whiteSpace=wrap;html=1;aspect=fixed;gradientColor=#232d36;gradientDirection=radial;" vertex="1" parent="1">
          <mxGeometry x="289" y="333" width="22" height="22" as="geometry" />
        </mxCell>
        <mxCell id="zJTkyF94yKX1d19e7NJj-32" value="" style="rounded=0;whiteSpace=wrap;html=1;fillColor=#AB0022;gradientColor=none;gradientDirection=radial;" vertex="1" parent="1">
          <mxGeometry x="320.5" y="333" width="25.5" height="18" as="geometry" />
        </mxCell>
        <mxCell id="zJTkyF94yKX1d19e7NJj-33" value="" style="rounded=0;whiteSpace=wrap;html=1;fillColor=#BF0000;gradientColor=none;gradientDirection=radial;" vertex="1" parent="1">
          <mxGeometry x="655" y="333" width="25.5" height="18" as="geometry" />
        </mxCell>
        <mxCell id="zJTkyF94yKX1d19e7NJj-34" value="" style="rounded=0;whiteSpace=wrap;html=1;strokeColor=none;fillColor=#f5f5f6;" vertex="1" parent="1">
          <mxGeometry x="241" y="280" width="519" height="14" as="geometry" />
        </mxCell>
        <mxCell id="zJTkyF94yKX1d19e7NJj-9" value="" style="rounded=0;whiteSpace=wrap;html=1;fillColor=none;strokeColor=#2e3039;strokeWidth=9;" vertex="1" parent="1">
          <mxGeometry x="440.5" y="300" width="120" height="40" as="geometry" />
        </mxCell>
        <mxCell id="zJTkyF94yKX1d19e7NJj-39" value="" style="rounded=0;whiteSpace=wrap;html=1;strokeColor=none;fillColor=#d9dade;" vertex="1" parent="1">
          <mxGeometry x="755.5" y="294" width="5" height="389" as="geometry" />
        </mxCell>
        <mxCell id="zJTkyF94yKX1d19e7NJj-14" value="" style="endArrow=none;html=1;rounded=0;exitX=1;exitY=0.971;exitDx=0;exitDy=0;exitPerimeter=0;strokeWidth=2;" edge="1" parent="1" source="zJTkyF94yKX1d19e7NJj-13">
          <mxGeometry width="50" height="50" relative="1" as="geometry">
            <mxPoint x="582" y="680" as="sourcePoint" />
            <mxPoint x="762" y="682" as="targetPoint" />
          </mxGeometry>
        </mxCell>
        <mxCell id="zJTkyF94yKX1d19e7NJj-42" value="" style="endArrow=none;html=1;curved=1;strokeColor=#eaeaed;exitX=0.987;exitY=0.72;exitDx=0;exitDy=0;exitPerimeter=0;" edge="1" parent="1" source="zJTkyF94yKX1d19e7NJj-38">
          <mxGeometry width="50" height="50" relative="1" as="geometry">
            <mxPoint x="246" y="571" as="sourcePoint" />
            <mxPoint x="406" y="621" as="targetPoint" />
            <Array as="points">
              <mxPoint x="288" y="576" />
              <mxPoint x="309" y="580" />
              <mxPoint x="329" y="586" />
              <mxPoint x="371" y="599" />
            </Array>
          </mxGeometry>
        </mxCell>
        <mxCell id="zJTkyF94yKX1d19e7NJj-45" value="" style="endArrow=none;html=1;rounded=0;exitX=1;exitY=0.812;exitDx=0;exitDy=0;exitPerimeter=0;strokeColor=#3f48cc;" edge="1" parent="1">
          <mxGeometry width="50" height="50" relative="1" as="geometry">
            <mxPoint x="582" y="681" as="sourcePoint" />
            <mxPoint x="754" y="630" as="targetPoint" />
          </mxGeometry>
        </mxCell>
        <mxCell id="zJTkyF94yKX1d19e7NJj-46" value="" style="endArrow=none;html=1;rounded=0;strokeColor=#ec1c24;entryX=1.148;entryY=0.737;entryDx=0;entryDy=0;entryPerimeter=0;" edge="1" parent="1" target="zJTkyF94yKX1d19e7NJj-38">
          <mxGeometry width="50" height="50" relative="1" as="geometry">
            <mxPoint x="415" y="624" as="sourcePoint" />
            <mxPoint x="247" y="578" as="targetPoint" />
          </mxGeometry>
        </mxCell>
        <mxCell id="zJTkyF94yKX1d19e7NJj-48" value="" style="endArrow=none;html=1;rounded=0;strokeColor=#3f48cc;entryX=1.148;entryY=0.737;entryDx=0;entryDy=0;entryPerimeter=0;" edge="1" parent="1">
          <mxGeometry width="50" height="50" relative="1" as="geometry">
            <mxPoint x="414" y="681" as="sourcePoint" />
            <mxPoint x="246" y="635" as="targetPoint" />
          </mxGeometry>
        </mxCell>
        <mxCell id="zJTkyF94yKX1d19e7NJj-47" value="" style="endArrow=none;html=1;rounded=0;strokeColor=#ec1c24;entryX=1.148;entryY=0.737;entryDx=0;entryDy=0;entryPerimeter=0;" edge="1" parent="1">
          <mxGeometry width="50" height="50" relative="1" as="geometry">
            <mxPoint x="414" y="664" as="sourcePoint" />
            <mxPoint x="246" y="618" as="targetPoint" />
          </mxGeometry>
        </mxCell>
        <mxCell id="zJTkyF94yKX1d19e7NJj-38" value="" style="rounded=0;whiteSpace=wrap;html=1;strokeColor=none;fillColor=#d9dade;" vertex="1" parent="1">
          <mxGeometry x="241" y="294" width="5" height="386" as="geometry" />
        </mxCell>
        <mxCell id="zJTkyF94yKX1d19e7NJj-49" value="" style="ellipse;whiteSpace=wrap;html=1;aspect=fixed;gradientColor=#232d36;gradientDirection=radial;opacity=50;strokeColor=none;" vertex="1" parent="1">
          <mxGeometry x="685" y="328" width="32" height="32" as="geometry" />
        </mxCell>
        <mxCell id="zJTkyF94yKX1d19e7NJj-50" value="" style="ellipse;whiteSpace=wrap;html=1;aspect=fixed;gradientColor=#232d36;gradientDirection=radial;strokeColor=none;opacity=50;" vertex="1" parent="1">
          <mxGeometry x="284" y="328" width="32" height="32" as="geometry" />
        </mxCell>
        <mxCell id="zJTkyF94yKX1d19e7NJj-51" value="" style="rounded=0;whiteSpace=wrap;html=1;strokeColor=none;fillColor=#eaeaed;" vertex="1" parent="1">
          <mxGeometry x="256" y="655" width="35" height="23" as="geometry" />
        </mxCell>
        <mxCell id="zJTkyF94yKX1d19e7NJj-53" value="" style="endArrow=none;html=1;rounded=0;strokeColor=#696969;strokeWidth=2;" edge="1" parent="1">
          <mxGeometry width="50" height="50" relative="1" as="geometry">
            <mxPoint x="332" y="577" as="sourcePoint" />
            <mxPoint x="381" y="503" as="targetPoint" />
          </mxGeometry>
        </mxCell>
        <mxCell id="zJTkyF94yKX1d19e7NJj-54" value="" style="endArrow=none;html=1;rounded=0;strokeColor=#696969;strokeWidth=2;" edge="1" parent="1">
          <mxGeometry width="50" height="50" relative="1" as="geometry">
            <mxPoint x="327" y="577" as="sourcePoint" />
            <mxPoint x="380" y="497" as="targetPoint" />
          </mxGeometry>
        </mxCell>
        <mxCell id="zJTkyF94yKX1d19e7NJj-55" value="" style="endArrow=none;html=1;rounded=0;strokeColor=#696969;strokeWidth=2;" edge="1" parent="1">
          <mxGeometry width="50" height="50" relative="1" as="geometry">
            <mxPoint x="380" y="530" as="sourcePoint" />
            <mxPoint x="380" y="460" as="targetPoint" />
          </mxGeometry>
        </mxCell>
        <mxCell id="zJTkyF94yKX1d19e7NJj-56" value="" style="endArrow=none;html=1;rounded=0;strokeWidth=2;strokeColor=#6B6B6B;" edge="1" parent="1">
          <mxGeometry width="50" height="50" relative="1" as="geometry">
            <mxPoint x="676" y="572" as="sourcePoint" />
            <mxPoint x="610" y="500" as="targetPoint" />
          </mxGeometry>
        </mxCell>
        <mxCell id="zJTkyF94yKX1d19e7NJj-57" value="" style="endArrow=none;html=1;rounded=0;strokeWidth=2;strokeColor=#6B6B6B;" edge="1" parent="1">
          <mxGeometry width="50" height="50" relative="1" as="geometry">
            <mxPoint x="685" y="572" as="sourcePoint" />
            <mxPoint x="609" y="488" as="targetPoint" />
          </mxGeometry>
        </mxCell>
        <mxCell id="zJTkyF94yKX1d19e7NJj-58" value="" style="endArrow=none;html=1;rounded=0;strokeWidth=2;strokeColor=#6B6B6B;" edge="1" parent="1">
          <mxGeometry width="50" height="50" relative="1" as="geometry">
            <mxPoint x="609.5" y="530" as="sourcePoint" />
            <mxPoint x="609" y="454" as="targetPoint" />
          </mxGeometry>
        </mxCell>
      </root>
    </mxGraphModel>
  </diagram>
</mxfile>
